STARTFONT 2.1
FONT -FontForge-Boogaloo-Book-R-Normal--72-690-75-75-P-332-ISO10646-1
SIZE 69 75 75
FONTBOUNDINGBOX 77 86 -5 -18
COMMENT "Generated by fontforge, http://fontforge.sourceforge.net"
COMMENT "Copyright (c) 2011, John Vargas Beltran (www.johnvargasbeltran.com|john.vargasbeltran@gmail.com), with Reserved Font Name "Boogaloo"."
STARTPROPERTIES 40
FOUNDRY "FontForge"
FAMILY_NAME "Boogaloo"
WEIGHT_NAME "Book"
SLANT "R"
SETWIDTH_NAME "Normal"
ADD_STYLE_NAME ""
PIXEL_SIZE 72
POINT_SIZE 690
RESOLUTION_X 75
RESOLUTION_Y 75
SPACING "P"
AVERAGE_WIDTH 332
CHARSET_REGISTRY "ISO10646"
CHARSET_ENCODING "1"
FONTNAME_REGISTRY ""
CHARSET_COLLECTIONS "ISO8859-9 ISO8859-4 Symbol ISO10646-1"
FONT_NAME "Boogaloo-Regular"
FACE_NAME "Boogaloo"
COPYRIGHT "Copyright (c) 2011, John Vargas Beltran (www.johnvargasbeltran.com|john.vargasbeltran@gmail.com), with Reserved Font Name "Boogaloo"."
FONT_VERSION "1.001"
FONT_ASCENT 58
FONT_DESCENT 14
UNDERLINE_POSITION -14
UNDERLINE_THICKNESS 6
X_HEIGHT 35
CAP_HEIGHT 49
RAW_ASCENT 800
RAW_DESCENT 200
NORM_SPACE 17
RELATIVE_WEIGHT 40
RELATIVE_SETWIDTH 50
SUPERSCRIPT_X 0
SUPERSCRIPT_Y 18
SUPERSCRIPT_SIZE 43
SUBSCRIPT_X 0
SUBSCRIPT_Y -13
SUBSCRIPT_SIZE 43
FIGURE_WIDTH 35
AVG_LOWERCASE_WIDTH 274
AVG_UPPERCASE_WIDTH 349
ENDPROPERTIES
CHARS 296
STARTCHAR uni0011
ENCODING 17
SWIDTH 0 0
DWIDTH 0 0
BBX 1 1 0 0
BITMAP
00
ENDCHAR
STARTCHAR space
ENCODING 32
SWIDTH 242 0
DWIDTH 17 0
BBX 1 1 0 0
BITMAP
00
ENDCHAR
STARTCHAR exclam
ENCODING 33
SWIDTH 278 0
DWIDTH 20 0
BBX 12 55 5 -2
BITMAP
2000
3F00
3FF0
7FF0
7FF0
7FF0
7FE0
7FE0
7FE0
7FE0
7FE0
7FC0
7FC0
7FC0
7FC0
FFC0
FFC0
FF80
FF80
FF80
FF80
FF80
FF80
7F80
7F80
7F80
7F00
7F00
7F00
7F00
7F00
7F00
7F00
7F00
7F00
7F00
7F00
3F00
3F00
0300
0000
0000
8000
FF80
FF80
FF80
FF80
FF80
FF80
FF80
FF80
FF80
FF80
3F80
0100
ENDCHAR
STARTCHAR quotedbl
ENCODING 34
SWIDTH 348 0
DWIDTH 25 0
BBX 20 20 2 31
BITMAP
600600
7F07F0
7F07F0
7F0FF0
7F0FF0
FF0FF0
FF0FF0
FF0FF0
FF0FF0
FF0FF0
FF0FF0
FF0FF0
FE0FE0
FE0FE0
FE0FE0
FE0FE0
FE0FE0
FE0FE0
FE0FE0
FE0FE0
ENDCHAR
STARTCHAR numbersign
ENCODING 35
SWIDTH 833 0
DWIDTH 60 0
BBX 45 54 8 -2
BITMAP
00000007FC00
000F8007FC00
000FF807F800
000FF807F800
000FF807F800
000FF00FF800
000FF00FF800
000FF00FF800
000FF00FF000
000FF00FF000
000FF00FF000
001FF00FF000
001FF01FF000
001FF01FF000
3FFFFFFFFFF8
3FFFFFFFFFF8
3FFFFFFFFFF0
3FFFFFFFFFF0
3FFFFFFFFFF0
3FFFFFFFFFF0
7FFFFFFFFFE0
7FFFFFFFFFE0
003FE03FE000
003FE03FE000
003FE03FE000
003FE03FC000
003FE03FC000
003FC03FC000
003FC03FC000
003FC03FC000
003FFFFFFC00
FFFFFFFFFFE0
FFFFFFFFFFE0
FFFFFFFFFFE0
FFFFFFFFFFC0
FFFFFFFFFFC0
FFFFFFFFFFC0
FFFFFFFFFFC0
FFFF807F8380
007F807F8000
007F807F8000
00FF807F8000
00FF80FF8000
00FF80FF8000
00FF00FF8000
00FF00FF8000
00FF00FF8000
00FF00FF0000
01FF00FF0000
01FF00FF0000
01FE00FF0000
01FE00FF0000
01FE00000000
007E00000000
ENDCHAR
STARTCHAR dollar
ENCODING 36
SWIDTH 484 0
DWIDTH 35 0
BBX 28 61 4 -8
BITMAP
001C0000
001FE000
001FE000
001FE000
001FE000
001FE000
000FE000
000FE000
000FE000
007FF800
01FFFC00
03FFFF00
07FFFF80
0FFFFF80
0FFFFFC0
1FFFFFE0
1FFFFFE0
3FFC7FE0
3FF03FF0
3FF01FF0
3FF01FF0
3FF01FF0
3FF01FE0
3FF03FE0
1FF83FE0
1FFC07E0
1FFE0040
0FFF8000
0FFFC000
07FFF000
03FFF800
01FFFC00
00FFFE00
007FFF00
003FFF80
000FFFC0
0007FFC0
0003FFE0
0801FFE0
1C00FFE0
3E007FE0
7F007FE0
FFC07FE0
7FF0FFE0
7FFFFFE0
3FFFFFC0
1FFFFFC0
0FFFFF80
07FFFF00
03FFFE00
01FFFC00
007FF000
001FC000
001FC000
001FC000
001FC000
001FC000
001FC000
001FC000
001FC000
003FC000
ENDCHAR
STARTCHAR percent
ENCODING 37
SWIDTH 676 0
DWIDTH 49 0
BBX 46 50 2 -2
BITMAP
000000000200
000000000780
01FC00000FC0
07FE00001FE0
0FFF00003FC0
1FFF80003F80
1FFFC0007F00
3FFFC000FE00
3F9FC001FC00
7F0FE003F800
7F0FE003F800
7E0FE007F000
FE07E00FE000
FE07E01FC000
FE07E01F8000
FE07E03F8000
FE0FE07F0000
FE0FE0FE0000
FE0FE0FC0000
FE0FC1FC0000
FF1FC3F80000
7FFFC3F00000
7FFF87F00000
3FFF0FE00000
3FFF0FC07F80
1FFE1FC0FFC0
0FFC3F81FFE0
01F03F03FFF0
00007F07FFF0
0000FE07FFF8
0000FE0FE3F8
0001FC0FE3F8
0001F80FC1F8
0003F81FC1FC
0007F01FC1FC
0007E01FC1FC
000FE01F81FC
000FC01F81FC
001FC01F81FC
003F801F81FC
003F001F81F8
007F001FC3F8
007E001FC3F8
00FE001FFFF0
01FC000FFFF0
01FC000FFFE0
03F80007FFC0
03F00003FF80
00F00001FF00
001000003C00
ENDCHAR
STARTCHAR ampersand
ENCODING 38
SWIDTH 539 0
DWIDTH 39 0
BBX 40 54 1 -4
BITMAP
00007F0000
0003FFE000
0007FFF800
001FFFFC00
003FFFFE00
007FFFFE00
00FFFFFF00
00FFFFFF80
01FFFFFF80
03FF81FF80
03FF00FF80
03FE00FF80
07FE00FF80
07FE00FF80
07FE00FF80
07FE01FF80
07FE01FF00
07FE03FF00
07FE07FF00
03FE0FFE00
03FF3FFC00
03FF7FF800
01FFFFF000
01FFFFE000
01FFFFC000
00FFFF8000
007FFF0000
007FFE0000
00FFF80000
01FFFC0000
03FFFC0000
07FFFE0040
0FFFFF00E0
1FFFFF81F0
3FFBFFC7F8
7FF1FFEFFC
7FE0FFFFFE
7FC07FFFFF
FFC07FFFFC
FFC03FFFF8
FFC01FFFE0
FFE03FFFC0
7FF1FFFF80
7FFFFFFFC0
7FFFFFFFF0
3FFFFFFFF8
1FFFFFFFFC
0FFFFF3FFE
07FFFC1FFF
01FFE00FFC
001F0007F8
00000003E0
00000001C0
0000000080
ENDCHAR
STARTCHAR quotesingle
ENCODING 39
SWIDTH 181 0
DWIDTH 13 0
BBX 8 20 2 31
BITMAP
60
7F
7F
7F
7F
FF
FF
FF
FF
FF
FF
FF
FE
FE
FE
FE
FE
FE
FE
FE
ENDCHAR
STARTCHAR parenleft
ENCODING 40
SWIDTH 354 0
DWIDTH 25 0
BBX 17 71 7 -18
BITMAP
004000
00E000
00F800
01FE00
01FF00
01FE00
03FE00
03FE00
07FC00
07FC00
07FC00
0FF800
0FF800
0FF800
0FF800
1FF000
1FF000
1FF000
1FF000
3FF000
3FE000
3FE000
3FE000
3FE000
7FE000
7FE000
7FE000
7FC000
7FC000
7FC000
7FC000
7FC000
FFC000
FFC000
FFC000
FFC000
FFC000
FFC000
FFC000
FFC000
FFC000
FFC000
FFC000
FFC000
FFC000
FFC000
FFC000
7FE000
7FE000
7FE000
7FE000
7FE000
7FE000
7FF000
3FF000
3FF000
3FF000
3FF800
3FF800
1FF800
1FFC00
1FFC00
0FFC00
0FFE00
0FFE00
07FF00
07FF00
03FF80
03F800
01E000
010000
ENDCHAR
STARTCHAR parenright
ENCODING 41
SWIDTH 354 0
DWIDTH 25 0
BBX 17 71 2 -18
BITMAP
00C000
03C000
1FE000
FFE000
7FF000
7FF000
3FF800
3FF800
1FF800
1FFC00
1FFC00
0FFC00
0FFE00
0FFE00
07FE00
07FE00
07FE00
07FF00
03FF00
03FF00
03FF00
03FF00
03FF00
03FF00
01FF00
01FF80
01FF80
01FF80
01FF80
01FF80
01FF80
01FF80
01FF80
01FF80
01FF80
01FF80
01FF80
01FF00
01FF00
01FF00
01FF00
01FF00
03FF00
03FF00
03FF00
03FF00
03FE00
03FE00
03FE00
03FE00
07FE00
07FC00
07FC00
07FC00
07FC00
0FFC00
0FF800
0FF800
0FF800
1FF000
1FF000
1FF000
3FE000
3FE000
3FE000
7FC000
7FC000
3F8000
0F8000
030000
010000
ENDCHAR
STARTCHAR asterisk
ENCODING 42
SWIDTH 475 0
DWIDTH 34 0
BBX 29 29 3 22
BITMAP
00010000
001F8000
007F8000
00FF8000
007F8000
007F8000
003F8100
003F0380
F03F07C0
FC1F0FE0
FF1F1FE0
FFDF7FF0
FFFFFFF8
FFFFFFF0
FFFFFFC0
FFFFF800
E03F8000
007FE000
00FFF000
01FBFC00
03F9FE00
07F9FFC0
0FF0FF80
0FF0FF80
1FF07F00
1FF07E00
07F03C00
01E01C00
00100800
ENDCHAR
STARTCHAR plus
ENCODING 43
SWIDTH 833 0
DWIDTH 60 0
BBX 43 43 9 0
BITMAP
0000FFE00000
0000FFC00000
0000FFC00000
0000FFC00000
0000FFC00000
0000FFC00000
0000FFC00000
0000FFC00000
0000FFC00000
0000FFC00000
0000FFC00000
0000FFC00000
0000FFC00000
0000FFC00000
0001FFC00000
0001FFC00000
0001FFC00000
0003FFFFFFE0
FFFFFFFFFFE0
FFFFFFFFFFC0
FFFFFFFFFFC0
FFFFFFFFFFC0
FFFFFFFFFFC0
FFFFFFFFFFC0
FFFFFFFFFFC0
FFFFFFC007C0
FF01FF800000
0001FF800000
0001FF800000
0001FF800000
0001FF800000
0001FF800000
0001FF800000
0001FF800000
0001FFC00000
0001FFC00000
0001FFC00000
0000FFC00000
0000FFC00000
0000FFC00000
0000FFC00000
0000FFC00000
00007FC00000
ENDCHAR
STARTCHAR comma
ENCODING 44
SWIDTH 260 0
DWIDTH 19 0
BBX 12 23 3 -9
BITMAP
3800
3F00
3FE0
3FF0
3FF0
3FF0
3FE0
3FE0
3FE0
7FE0
7FC0
7FC0
7FC0
7F80
7F80
7F80
7F80
FF00
FF00
FE00
FE00
FE00
0C00
ENDCHAR
STARTCHAR hyphen
ENCODING 45
SWIDTH 324 0
DWIDTH 23 0
BBX 19 8 2 12
BITMAP
FFFFC0
7FFFC0
7FFFC0
7FFFE0
7FFFE0
7FFFE0
7FFFE0
7FF8E0
ENDCHAR
STARTCHAR period
ENCODING 46
SWIDTH 260 0
DWIDTH 19 0
BBX 10 14 4 -2
BITMAP
FF80
FFC0
FFC0
FFC0
FFC0
FFC0
FFC0
FFC0
FFC0
FFC0
FFC0
FFC0
FFC0
0040
ENDCHAR
STARTCHAR slash
ENCODING 47
SWIDTH 410 0
DWIDTH 30 0
BBX 32 59 -2 -6
BITMAP
00000040
00000070
0000007C
000000FF
000000FF
000001FE
000003FC
000003FC
000007F8
000007F8
00000FF0
00000FF0
00001FE0
00001FE0
00001FC0
00003FC0
00003F80
00007F80
00007F00
0000FF00
0000FE00
0001FE00
0001FC00
0001FC00
0003F800
0003F800
0007F800
0007F000
000FF000
000FE000
000FE000
001FC000
001FC000
003FC000
003F8000
007F8000
007F0000
007F0000
00FF0000
00FE0000
01FE0000
01FC0000
01FC0000
03FC0000
03F80000
07F80000
07F00000
07F00000
0FF00000
0FE00000
1FE00000
1FC00000
1FC00000
3FC00000
3F800000
7F800000
7F800000
FF000000
1F000000
ENDCHAR
STARTCHAR zero
ENCODING 48
SWIDTH 484 0
DWIDTH 35 0
BBX 30 47 3 -1
BITMAP
000FF000
003FFC00
007FFE00
00FFFF00
01FFFF80
03FFFFC0
03FFFFE0
07FFFFE0
0FFC3FF0
0FF83FF0
0FF01FF0
1FF01FF8
1FF00FF8
3FF00FF8
3FE00FF8
3FE00FF8
3FE00FFC
7FE00FFC
7FC00FFC
7FC007FC
7FC007FC
7FC007FC
7FC007FC
7FC007FC
7FC007FC
FFC007FC
FFC00FFC
FFC00FFC
FFC00FFC
FFC00FF8
7FC00FF8
7FC00FF8
7FC01FF8
7FC01FF0
7FE01FF0
7FE03FF0
3FE03FE0
3FF03FE0
3FF87FC0
1FFFFFC0
1FFFFF80
0FFFFF00
07FFFF00
03FFFE00
01FFFC00
00FFF000
003FE000
ENDCHAR
STARTCHAR one
ENCODING 49
SWIDTH 484 0
DWIDTH 35 0
BBX 19 48 7 -1
BITMAP
006000
007F00
00FFE0
00FFE0
01FFE0
01FFE0
03FFE0
07FFE0
07FFE0
0FFFE0
0FFFE0
1FFFC0
3FFFC0
3FFFC0
7FFFC0
FFFFC0
FFFFC0
7F7FC0
3E7FC0
1E7FC0
047FC0
007FC0
007FC0
007FC0
007FC0
007FC0
007FC0
007FC0
007FC0
007FC0
007FC0
007FC0
007FC0
007FC0
007FC0
007FC0
007FC0
007FC0
007FC0
007FC0
007FC0
007FC0
007FC0
007FC0
007FE0
007FE0
007FE0
001FE0
ENDCHAR
STARTCHAR two
ENCODING 50
SWIDTH 484 0
DWIDTH 35 0
BBX 31 49 2 -2
BITMAP
00003000
0003FF00
000FFFC0
003FFFE0
007FFFF0
00FFFFF8
01FFFFF8
03FFFFFC
07FFFFFC
0FFF87FC
0FFE07FC
1FFC03FE
3FF803FE
7FF003FE
7FE003FC
FFE007FC
3FC007FC
1F8007FC
07800FF8
03000FF8
00001FF0
00001FF0
00003FE0
00007FE0
00007FC0
0000FFC0
0001FF80
0003FF00
0003FF00
0007FE00
000FFC00
001FF800
001FF800
003FF000
007FE000
00FFC000
01FF8000
03FFBFFC
07FFFFFC
0FFFFFFC
1FFFFFFC
3FFFFFFC
7FFFFFFC
7FFFFFFC
3FFFFFFC
3FFFF0FC
1FF00000
1F000000
18000000
ENDCHAR
STARTCHAR three
ENCODING 51
SWIDTH 484 0
DWIDTH 35 0
BBX 27 47 4 -1
BITMAP
003FF000
01FFFC00
07FFFF00
0FFFFF80
3FFFFF80
FFFFFFC0
7FFFFFC0
3FFFFFE0
3FF07FE0
1FC03FE0
0F003FE0
0C003FE0
00007FE0
00007FE0
0000FFC0
0003FFC0
0007FF80
001FFF00
007FFE00
01FFFC00
0FFFF800
3FFFE000
1FFFF000
1FFFF800
1FFFFC00
0FFFFE00
0FFFFF00
0FFFFF80
0801FF80
0000FFC0
00007FC0
00007FC0
00007FC0
00007FC0
00007FC0
0000FFC0
0003FF80
200FFF80
3FFFFF00
3FFFFF00
3FFFFE00
3FFFFC00
3FFFF800
1FFFF000
1FFFE000
0FFF8000
007C0000
ENDCHAR
STARTCHAR four
ENCODING 52
SWIDTH 484 0
DWIDTH 35 0
BBX 32 49 1 -2
BITMAP
00007C00
0000FFFC
0000FFF8
0001FFF8
0003FFF8
0003FFF8
0007FFF8
000FFFF8
000FFFF8
001FFFF8
003FFFF8
003FEFF0
007FEFF0
007FCFF0
00FFCFF0
00FF8FF0
01FF8FF0
03FF1FF0
03FE1FF0
07FE1FF0
07FC1FF0
0FFC1FF0
0FF81FF0
1FF81FF0
1FF01FF0
3FF01FF0
3FF01FE0
7FE3FFF8
7FFFFFFF
FFFFFFFF
FFFFFFFF
3FFFFFFF
1FFFFFFE
07FFFFFE
03FFFFFE
00FE1FE0
00001FE0
00001FE0
00001FE0
00001FE0
00001FE0
00001FE0
00001FE0
00001FE0
00001FE0
00001FE0
00001FE0
00001FF0
00000FF0
ENDCHAR
STARTCHAR five
ENCODING 53
SWIDTH 484 0
DWIDTH 35 0
BBX 26 49 6 -2
BITMAP
00000180
0007FF80
01FFFF80
0FFFFF80
0FFFFF80
0FFFFF80
0FFFFF80
1FFFFF80
1FFFFC00
1FF00000
1FF00000
1FF00000
3FE00000
3FE00000
3FE00000
3FE00000
3FE00000
3FE00000
7FE00000
7FF80000
7FFFC000
7FFFF000
7FFFFC00
FFFFFE00
FFFFFF00
7FFFFF80
3FFFFF80
1F0FFFC0
0001FFC0
0000FFC0
00007FC0
00007FC0
00007FC0
00007FC0
0000FFC0
0001FFC0
0003FF80
000FFF80
003FFF00
01FFFE00
0FFFFC00
7FFFF800
7FFFF000
7FFFC000
3FFF0000
3FFC0000
3FF00000
3F800000
18000000
ENDCHAR
STARTCHAR six
ENCODING 54
SWIDTH 484 0
DWIDTH 35 0
BBX 29 49 4 -2
BITMAP
00070000
000FFF00
001FFE00
001FFC00
003FF800
007FF000
007FE000
00FFC000
01FFC000
01FF8000
03FF0000
03FE0000
07FE0000
07FC0000
0FFC0000
0FF80000
1FF80000
1FF00000
3FF00000
3FE3F800
3FFFFE00
3FFFFF00
7FFFFFC0
7FFFFFC0
7FFFFFE0
7FFFFFF0
7FFFFFF0
7FF87FF0
FFE01FF0
FF801FF8
FF801FF8
FF800FF8
FF800FF8
FF800FF8
7FC00FF8
7FC00FF8
7FC01FF0
7FC01FF0
7FE03FF0
3FE03FE0
3FF07FE0
3FFFFFC0
1FFFFFC0
0FFFFF80
0FFFFF00
07FFFE00
03FFFC00
00FFF000
003FC000
ENDCHAR
STARTCHAR seven
ENCODING 55
SWIDTH 484 0
DWIDTH 35 0
BBX 25 48 6 -1
BITMAP
00001E00
03FFFE00
FFFFFF00
FFFFFF00
FFFFFF00
FFFFFF00
FFFFFF80
7FFFFF80
7FFF7F80
7800FF80
0000FF00
0001FF00
0001FE00
0003FE00
0003FC00
0007FC00
0007F800
000FF800
000FF000
001FF000
001FF000
003FE000
003FE000
003FC000
007FC000
007FC000
00FF8000
00FF8000
00FF0000
01FF0000
01FF0000
01FE0000
03FE0000
03FE0000
03FC0000
07FC0000
07FC0000
07F80000
0FF80000
0FF80000
0FF80000
0FF00000
1FF00000
1FF00000
1FF00000
1FE00000
1FE00000
27E00000
ENDCHAR
STARTCHAR eight
ENCODING 56
SWIDTH 484 0
DWIDTH 35 0
BBX 29 50 4 -2
BITMAP
00018000
003FF800
00FFFE00
01FFFF00
03FFFF80
07FFFFC0
0FFFFFC0
1FFFFFE0
1FFCFFF0
3FF03FF0
3FE01FF0
7FC00FF8
7FC00FF8
7FC00FF8
7FC00FF8
7FC00FF8
7FC01FF0
7FC03FF0
7FE07FF0
3FF0FFE0
3FFBFFE0
1FFFFFC0
1FFFFF80
0FFFFF00
07FFFE00
07FFFC00
0FFFFF00
1FFFFF80
1FFFFFC0
3FFBFFC0
7FF1FFE0
7FE07FF0
7FC03FF0
FF801FF0
FF801FF0
FF800FF8
FF800FF8
FF800FF8
FF800FF0
FF801FF0
FFC01FF0
7FE03FE0
7FFFFFE0
3FFFFFC0
3FFFFFC0
1FFFFF80
0FFFFF00
07FFFE00
01FFF800
007FE000
ENDCHAR
STARTCHAR nine
ENCODING 57
SWIDTH 484 0
DWIDTH 35 0
BBX 30 51 3 -4
BITMAP
0007F000
003FFC00
00FFFF00
01FFFF80
03FFFFC0
07FFFFE0
0FFFFFE0
0FFFFFF0
1FFC3FF0
3FF01FF8
3FF00FF8
7FE00FF8
7FC007F8
7FC007FC
7F8007FC
FF8007FC
FF8007FC
FF8007FC
FF8007FC
FF8007FC
FF8007FC
FFC00FFC
7FC03FFC
7FF0FFFC
3FFFFFF8
3FFFFFF8
1FFFFFF8
1FFFFFF0
0FFFFFF0
03FFFFE0
01FFFFE0
003F3FE0
00007FC0
0000FFC0
0000FF80
0001FF00
0003FF00
0003FE00
0007FE00
000FFC00
001FF800
001FF800
003FF000
007FE000
00FFC000
01FFC000
00FF8000
007F0000
001E0000
000E0000
00040000
ENDCHAR
STARTCHAR colon
ENCODING 58
SWIDTH 260 0
DWIDTH 19 0
BBX 11 36 4 -2
BITMAP
7FC0
7FC0
7FC0
7FE0
7FE0
7FE0
7FE0
7FE0
FFE0
FFE0
FFE0
FFC0
FFC0
0000
0000
0000
0000
0000
0000
0000
0000
0000
FF80
FFC0
FFC0
FFC0
FFC0
FFC0
FFC0
FFC0
FFC0
FFC0
FFC0
FFC0
FFC0
0040
ENDCHAR
STARTCHAR semicolon
ENCODING 59
SWIDTH 260 0
DWIDTH 19 0
BBX 12 43 3 -9
BITMAP
3FE0
3FE0
3FE0
3FF0
3FF0
3FF0
3FF0
3FF0
7FF0
7FF0
7FF0
7FE0
7FE0
0000
0000
0000
0000
0000
0000
0000
3800
3F00
3FE0
3FF0
3FF0
3FF0
3FE0
3FE0
3FE0
7FE0
7FC0
7FC0
7FC0
7F80
7F80
7F80
7F80
FF00
FF00
FE00
FE00
FE00
0C00
ENDCHAR
STARTCHAR less
ENCODING 60
SWIDTH 833 0
DWIDTH 60 0
BBX 42 42 9 1
BITMAP
000000000100
000000000700
000000001F00
000000007F00
00000001FF00
00000007FF80
0000001FFF80
0000007FFF80
000001FFFF80
00000FFFFF80
00003FFFFE00
0000FFFFF000
0007FFFFC000
001FFFFF0000
00FFFFFC0000
03FFFFF00000
1FFFFF800000
7FFFFC000000
7FFFF0000000
7FFF80000000
7FFE00000000
7FF000000000
FFF800000000
FFFE00000000
FFFFC0000000
7FFFF0000000
1FFFFC000000
07FFFF000000
03FFFFC00000
00FFFFF80000
003FFFFE0000
000FFFFFC000
0003FFFFF800
00007FFFFF00
00001FFFFFC0
000007FFFF80
000000FFFF80
0000003FFF80
00000007FF80
00000000FF00
000000001F00
000000000300
ENDCHAR
STARTCHAR equal
ENCODING 61
SWIDTH 833 0
DWIDTH 60 0
BBX 43 25 9 9
BITMAP
0FFFFFFFFF00
FFFFFFFFFFE0
FFFFFFFFFFE0
FFFFFFFFFFC0
FFFFFFFFFFC0
FFFFFFFFFFC0
FFFFFFFFFFC0
FFFFFFFFFFC0
FFFFFFFFFFC0
000000000000
000000000000
000000000000
000000000000
000000000000
000000000000
000000000000
FFFFFFFFFFC0
FFFFFFFFFFE0
FFFFFFFFFFE0
FFFFFFFFFFC0
FFFFFFFFFFC0
FFFFFFFFFFC0
FFFFFFFFFFC0
FFFFFFFFFFC0
FFFFFE03FFC0
ENDCHAR
STARTCHAR greater
ENCODING 62
SWIDTH 833 0
DWIDTH 60 0
BBX 42 42 9 1
BITMAP
200000000000
3E0000000000
3FC000000000
7FF800000000
7FFE00000000
7FFFC0000000
7FFFF0000000
FFFFFE000000
7FFFFF800000
0FFFFFE00000
01FFFFF80000
003FFFFE0000
0007FFFF8000
0001FFFFE000
00007FFFF800
00000FFFFE00
000003FFFF80
000000FFFFC0
0000003FFFC0
0000000FFFC0
00000003FF80
0000000FFF80
0000007FFF80
000003FFFF80
00000FFFFF80
00007FFFFF00
0001FFFFF800
000FFFFFC000
003FFFFE0000
00FFFFF80000
03FFFFE00000
0FFFFF000000
3FFFFC000000
7FFFF0000000
7FFF80000000
7FFE00000000
7FF800000000
7FE000000000
3F8000000000
3E0000000000
380000000000
200000000000
ENDCHAR
STARTCHAR question
ENCODING 63
SWIDTH 419 0
DWIDTH 30 0
BBX 29 52 0 -2
BITMAP
000FFC00
003FFF00
00FFFF80
03FFFFC0
07FFFFE0
0FFFFFE0
1FFFFFF0
3FFFFFF0
7FFF3FF0
FFF81FF8
7FF00FF8
3FC00FF8
1F800FF8
0F000FF8
06001FF0
00003FF0
00003FF0
00007FE0
0000FFE0
0001FFC0
0003FF80
0007FF00
000FFE00
001FFC00
001FFC00
003FF800
007FF000
00FFE000
00FFC000
01FF8000
01FF0000
01FF0000
01FE0000
01FE0000
00FE0000
007E0000
00020000
00000000
00000000
01000000
01FF0000
00FF0000
00FF0000
00FF0000
00FF8000
00FF8000
01FF8000
01FF0000
01FF0000
01FF0000
007F0000
00010000
ENDCHAR
STARTCHAR at
ENCODING 64
SWIDTH 834 0
DWIDTH 60 0
BBX 56 63 2 -11
BITMAP
000003FFF00000
00001FFFFE0000
00007FFFFF8000
0001FFFFFFE000
0003FFFFFFF800
0007FFFFFFFC00
001FFF007FFE00
003FFC000FFF00
007FF00003FF80
00FFC00000FFC0
00FF8000007FE0
01FF0000003FE0
03FE0000001FF0
03FC0000000FF0
07FC0000000FF8
0FF80001E007F8
0FF003F9FE07FC
0FF00FFFFE03FC
1FE00FFFFE03FC
1FE01FFFFE03FC
3FC03FFFFE01FE
3FC03FFFFE01FE
3FC03FFFFE01FE
3F807FC3FE01FE
7F807FC1FE00FE
7F80FF81FE00FE
7F80FF81FE00FE
7F80FF01FE00FF
7F00FF01FE00FF
7F01FF01FE00FF
7F01FF01FE00FF
FF01FF03FE00FF
FF01FE03FE00FE
FF01FE03FE01FE
FF01FE07FE01FE
FF01FE07FE01FE
7F01FE0FFE03FE
7F01FF0FFE03FC
7F81FF1FFE07FC
7F81FFFFFF0FF8
7F81FFFFFFFFF8
7F80FFFEFFFFF0
7F80FFFE7FFFF0
3FC07FFC7FFFE0
3FC03FF83FFFC0
3FC01FF01FFF00
1FE007C00FFE00
1FE0000000E000
1FF00000000000
0FF80000000000
0FF80000000000
07FC0000000000
03FE0000000000
03FF8000000000
01FFC000000000
00FFF000000000
007FFF01C00000
003FFFFFE00000
000FFFFFE00000
0007FFFFF00000
0001FFFFF00000
00003FFFF00000
000007FF000000
ENDCHAR
STARTCHAR A
ENCODING 65
SWIDTH 516 0
DWIDTH 37 0
BBX 36 53 0 -3
BITMAP
0007800000
0007FFC000
0007FFE000
000FFFE000
000FFFE000
000FFFE000
000FFFE000
001FFFF000
001FFFF000
001FFFF000
001FFFF000
003FFFF000
003FEFF800
003FCFF800
003FCFF800
007FCFF800
007FCFF800
007F8FFC00
007F87FC00
00FF87FC00
00FF87FC00
00FF87FC00
00FF07FE00
01FF07FE00
01FF07FE00
01FF03FE00
01FF03FE00
03FE03FE00
03FE03FF00
03FE03FF00
03FE03FF00
07FE01FF00
07FFFFFF00
07FFFFFF80
07FFFFFF80
0FFFFFFF80
0FFFFFFF80
0FFFFFFF80
0FFFFFFFC0
1FFFC0FFC0
1FF800FFC0
1FF800FFC0
1FF000FFC0
3FF000FFE0
3FF0007FE0
3FF0007FE0
3FF0007FE0
7FE0007FE0
7FE0007FF0
7FE0000FF0
7FE0000000
FFE0000000
7FC0000000
ENDCHAR
STARTCHAR B
ENCODING 66
SWIDTH 523 0
DWIDTH 38 0
BBX 32 51 5 -1
BITMAP
01FFFC00
3FFFFF00
FFFFFFC0
FFFFFFE0
FFFFFFF8
FFFFFFF8
FFFFFFFC
7FFFFFFE
7FF03FFE
7FC00FFE
7FC007FF
7FC003FF
7FC003FF
7FC003FF
7FC003FF
7FC007FE
7FC007FE
7FC00FFE
7FC01FFC
7FE07FF8
7FE1FFF8
7FE7FFF0
7FFFFFC0
7FFFFF80
7FFFFE00
7FFFFF00
7FFFFFC0
7FFFFFE0
7FFFFFF0
7FCFFFF8
7FC0FFFC
7FC03FFC
7FC00FFE
7FC007FE
7FC007FE
7FC003FE
7FC003FE
7FC007FE
7FC007FE
7FC00FFE
FFC01FFC
FFC07FFC
FFFFFFF8
FFFFFFF0
FFFFFFE0
FFFFFFC0
FFFFFF80
FFFFFF00
FFFFFC00
FFFFF000
07FF8000
ENDCHAR
STARTCHAR C
ENCODING 67
SWIDTH 482 0
DWIDTH 35 0
BBX 32 53 2 -2
BITMAP
0000E000
0007FE00
001FFF80
003FFFC0
007FFFE0
00FFFFE0
01FFFFF0
03FFFFF0
03FFFFF8
07FFFFF8
07FE1FF8
0FFC0FF8
0FFC0FFC
1FF80FFC
1FF807FC
1FF007FC
3FF007FC
3FF007FC
3FF007FC
7FE007FC
7FE007FC
7FE007FC
7FC007FC
7FC00000
FFC00000
FFC00000
FFC00000
FFC00000
FFC00000
FFC00000
FF800000
FF800000
FF800000
FF800000
FFC001E0
FFC003FF
FFC003FF
FFC003FE
FFC003FE
7FE007FE
7FE007FC
7FF00FFC
3FF01FFC
3FFC3FF8
3FFFFFF8
1FFFFFF0
0FFFFFF0
0FFFFFE0
07FFFFC0
03FFFF80
01FFFF00
007FFE00
001FF800
ENDCHAR
STARTCHAR D
ENCODING 68
SWIDTH 502 0
DWIDTH 36 0
BBX 31 51 4 -1
BITMAP
07FFE000
3FFFF800
FFFFFE00
FFFFFF00
FFFFFF80
FFFFFFC0
7FFFFFC0
7FFFFFE0
7FE1FFF0
7FC07FF0
7FC03FF0
7FC03FF8
7FC01FF8
7FC01FFC
7FC00FFC
7FC00FFC
7FC007FC
7FC007FC
7FC007FE
7FC007FE
7FC007FE
7FC007FE
7FE007FE
7FE007FE
7FE007FE
7FE007FE
7FE007FC
7FE007FC
7FE007FC
7FE007FC
7FE007FC
7FC00FFC
7FC00FF8
7FC00FF8
7FC01FF8
7FC01FF8
7FC03FF0
7FC03FF0
7FC07FE0
7FC0FFE0
FFC1FFC0
FFC3FFC0
FFFFFF80
FFFFFF00
FFFFFE00
FFFFFC00
FFFFF800
FFFFF000
FFFFE000
FFFF8000
1FFC0000
ENDCHAR
STARTCHAR E
ENCODING 69
SWIDTH 447 0
DWIDTH 32 0
BBX 26 51 5 -1
BITMAP
00000380
00FFFF80
7FFFFF80
7FFFFF80
7FFFFF80
7FFFFF80
7FFFFF80
7FFFFF80
7FFFFF80
7FFF8000
7FC00000
7FC00000
7FC00000
7FC00000
FFC00000
FFC00000
FFC00000
FFC00000
FFC00000
FFC00000
FFC00000
FFC03E00
FFFFFE00
FFFFFE00
FFFFFE00
FFFFFF00
FFFFFF00
FFFFFF00
FFFFFF00
FFFFC000
FFC00000
FFC00000
FFC00000
FFC00000
FFC00000
FFC00000
FFC00000
FFC00000
FFC00000
FFC00000
FFC00000
FFC01F80
FFCFFF80
FFFFFF80
FFFFFF80
FFFFFF80
FFFFFFC0
FFFFFFC0
FFFFFFC0
FFFFFE00
1FFFF000
ENDCHAR
STARTCHAR F
ENCODING 70
SWIDTH 422 0
DWIDTH 30 0
BBX 25 51 5 -1
BITMAP
00000380
00FFFF80
7FFFFF80
7FFFFF80
7FFFFF80
7FFFFF80
7FFFFF80
7FFFFF80
7FFFFF80
7FFF8000
7FC00000
7FC00000
7FC00000
7FC00000
FFC00000
FFC00000
FFC00000
FFC00000
FFC00000
FFC00000
FFC00000
FFC00000
FFC00000
FFCFFE00
FFFFFE00
FFFFFE00
FFFFFE00
FFFFFF00
FFFFFF00
FFFFFF00
FFFFFF00
FFC00000
FFC00000
FFC00000
FFC00000
FFC00000
FFC00000
FFC00000
FFC00000
FFC00000
FFC00000
FFC00000
FFC00000
FFC00000
FFC00000
FFC00000
FFC00000
FFC00000
FFC00000
FFC00000
3FC00000
ENDCHAR
STARTCHAR G
ENCODING 71
SWIDTH 498 0
DWIDTH 36 0
BBX 32 53 3 -2
BITMAP
0001C000
000FF800
003FFE00
007FFF80
00FFFFC0
01FFFFE0
03FFFFE0
03FFFFF0
07FFFFF8
0FFE1FF8
0FFE0FF8
1FFC0FF8
1FF80FFC
1FF807FC
3FF007FC
3FF007FC
3FF007FC
7FE007FC
7FE007FC
7FE007FC
7FE007FC
7FC007FC
FFC003FC
FFC00000
FFC00000
FFC00000
FFC00000
FFC0007E
FFC1FFFE
FFC1FFFE
FFC1FFFF
FFC1FFFF
FFC0FFFF
FFC0FFFF
FFC0FFFF
FFC083FE
FFC003FE
FFC007FE
7FC007FE
7FE007FC
7FE007FC
7FE00FFC
3FF00FF8
3FF01FF8
1FF83FF0
1FFFFFF0
0FFFFFE0
07FFFFC0
07FFFF80
01FFFF00
00FFFE00
007FFC00
000FF000
ENDCHAR
STARTCHAR H
ENCODING 72
SWIDTH 539 0
DWIDTH 39 0
BBX 30 53 5 -1
BITMAP
000007F8
000007FC
F00007FC
FFC007FC
FFC007FC
FFC007FC
FFC007FC
FFC00FFC
FFC00FFC
FFC00FFC
FFC00FFC
FFC00FFC
FF800FFC
FF800FFC
FF800FFC
FF800FFC
FF800FFC
FF800FFC
FF800FFC
FF800FFC
FFC00FFC
FFC00FFC
FFC00FFC
FFC00FFC
FFFFFFFC
FFFFFFFC
FFFFFFFC
FFFFFFFC
FFFFFFFC
FFFFFFFC
FFFFFFFC
FFFFFFFC
FFC00FFC
FFC00FFC
FFC00FFC
FFC00FFC
FFC00FFC
FFC00FFC
FFC00FFC
FFC00FFC
FFC00FFC
FFC007FC
FFC007FC
FFC007FC
FFC007FC
FFC007FC
FFC007FC
FFC007FC
FFC007FC
FFC007FC
7FC007FC
7FC003FC
0FC00000
ENDCHAR
STARTCHAR I
ENCODING 73
SWIDTH 289 0
DWIDTH 21 0
BBX 11 53 6 -2
BITMAP
6000
7FE0
7FE0
7FE0
7FE0
7FE0
7FE0
7FC0
7FC0
7FC0
7FC0
7FC0
7FC0
7FC0
7FC0
FFC0
FFC0
FFC0
FFC0
FFC0
FFC0
FFC0
FFC0
FFC0
FFC0
FFC0
FFC0
FFC0
FFC0
FFC0
FFC0
FFC0
FFC0
FFC0
7FC0
7FC0
7FC0
7FC0
7FC0
7FC0
7FC0
7FC0
7FC0
7FC0
7FE0
7FE0
7FE0
7FE0
7FE0
7FE0
7FE0
7FE0
01E0
ENDCHAR
STARTCHAR J
ENCODING 74
SWIDTH 410 0
DWIDTH 30 0
BBX 26 52 0 -2
BITMAP
0001FF80
0001FF80
0001FFC0
0000FFC0
0000FFC0
0000FFC0
0000FFC0
0000FFC0
0000FFC0
0000FFC0
0000FFC0
0000FFC0
0000FFC0
0000FFC0
0000FFC0
0000FFC0
0000FFC0
0000FFC0
0000FFC0
0000FFC0
0000FFC0
0000FFC0
0000FFC0
0000FFC0
0000FFC0
0000FFC0
0000FFC0
00007FC0
00007FC0
00007FC0
00007FC0
00007FC0
00007FC0
7F807FC0
FF80FFC0
FF80FFC0
FF80FFC0
FF80FFC0
FF80FFC0
FF80FFC0
FF81FF80
7FC1FF80
7FE3FF80
7FFFFF00
3FFFFF00
3FFFFE00
1FFFFE00
1FFFFC00
0FFFF800
07FFF000
01FFE000
007F8000
ENDCHAR
STARTCHAR K
ENCODING 75
SWIDTH 515 0
DWIDTH 37 0
BBX 33 53 4 -2
BITMAP
0000008000
000001E000
780001FC00
7FE003FF00
7FE003FF80
7FE007FF00
7FE007FF00
7FE00FFE00
7FE00FFE00
7FE01FFC00
7FC01FF800
7FC03FF800
FFC03FF000
FFC07FF000
FFC0FFE000
FFC0FFE000
FFC1FFC000
FFC1FF8000
FFC3FF8000
FFC3FF0000
FFC7FE0000
FFCFFE0000
FFCFFC0000
FFDFFC0000
FFDFF80000
FFFFF00000
FFFFF00000
FFFFE00000
FFFFE00000
FFFFF00000
FFFFF80000
FFDFF80000
FFDFFC0000
FFCFFE0000
FFC7FE0000
FFC7FF0000
FFC3FF8000
FFC3FFC000
FFC1FFC000
FFC0FFE000
FFC0FFF000
FFC07FF800
7FC03FFC00
7FC03FFE00
7FC01FFF00
7FC00FFF80
7FC007FF00
7FC007FE00
7FE003FC00
7FE001F800
7FE000F000
0060006000
0000002000
ENDCHAR
STARTCHAR L
ENCODING 76
SWIDTH 388 0
DWIDTH 28 0
BBX 24 50 5 0
BITMAP
7E0000
7FE000
7FC000
7FC000
7FC000
7FC000
7FC000
FFC000
FFC000
FFC000
FFC000
FFC000
FFC000
FFC000
FFC000
FFC000
FFC000
FFC000
FFC000
FFC000
FFC000
FF8000
FF8000
FF8000
FF8000
FF8000
FF8000
FF8000
FF8000
FF8000
FF8000
FF8000
FFC000
FFC000
FFC000
FFC000
FFC000
FFC000
7FC000
7FC000
7FC1FE
7FFFFE
7FFFFE
7FFFFE
7FFFFE
7FFFFF
7FFFFF
7FFFFF
7FFFF0
7FF800
ENDCHAR
STARTCHAR M
ENCODING 77
SWIDTH 650 0
DWIDTH 47 0
BBX 42 52 3 -2
BITMAP
0000000FE000
0000001FFF80
3F80001FFF80
7FFE001FFF80
7FFF001FFF80
7FFF003FFF80
7FFF003FFF80
7FFF003FFF80
7FFF803FFF80
7FFF803FFF80
7FFF807FFF80
7FFF807FFFC0
7FBF807F7FC0
7FBFC07F7FC0
7FBFC0FF7FC0
7FBFC0FF7FC0
7F9FC0FE7FC0
FF9FE0FE7FC0
FF9FE1FE7FC0
FF9FE1FE7FC0
FF8FE1FC7FC0
FF8FE1FC7FC0
FF8FE3FC7FC0
FF8FF3FC7FC0
FF8FF3F87FC0
FF87F7F87FC0
FF87F7F87FC0
FF87F7F87FC0
FFC7FFF0FFC0
FFC7FFF0FFC0
7FC3FFF0FFC0
7FC3FFF0FFC0
7FC3FFE0FFC0
7FC3FFE0FFC0
7FC3FFE0FFC0
7FC1FFE0FFC0
7FC1FFC0FFC0
7FC1FFC0FFC0
7FC1FFC0FFC0
7FC0FFC0FFC0
7FC0FF80FFC0
7FC0FF80FFC0
7FC0FF80FFC0
7FC07F00FFC0
7FC07F00FFC0
7FC07F00FFC0
7FC00000FFC0
7FC00000FF80
7FC00000FF80
7FC00001FF80
3FE00001FF80
000000000780
ENDCHAR
STARTCHAR N
ENCODING 78
SWIDTH 544 0
DWIDTH 39 0
BBX 32 53 4 -2
BITMAP
000001FF
000001FF
000001FF
3E0001FF
7FE001FF
7FF001FF
7FF001FF
7FF801FF
7FF801FF
7FF801FF
7FFC01FF
7FFC01FF
7FFC01FF
7FFE01FF
7FFE00FF
7FFF00FF
7FFF00FF
7FFF00FF
FFFF80FF
FFFF80FF
FF7FC0FF
FF7FC0FF
FF3FE0FF
FF1FE0FF
FF1FE0FF
FF0FF0FF
FF0FF0FF
FF07F8FF
FF07F8FF
FF03FCFF
FF03FCFF
FF01FEFF
FF01FEFF
FF00FFFF
FF00FFFF
FF00FFFF
FF007FFF
FF007FFF
FF003FFF
FF003FFF
FF001FFF
FF001FFF
FF000FFF
FF000FFF
FF0007FF
FF0007FF
FF0003FF
FF0003FF
FF0003FF
FF0001FF
FF0001FF
FF000001
3F000000
ENDCHAR
STARTCHAR O
ENCODING 79
SWIDTH 521 0
DWIDTH 38 0
BBX 34 53 2 -2
BITMAP
0001F80000
000FFF0000
001FFF8000
007FFFE000
00FFFFF000
01FFFFF800
01FFFFF800
03FFFFFC00
07FFFFFE00
07FF0FFE00
0FFE07FF00
0FFC03FF00
1FF803FF00
1FF801FF80
1FF001FF80
3FF001FF80
3FF000FF80
3FE000FF80
7FE000FFC0
7FE000FFC0
7FE000FFC0
7FC000FFC0
7FC000FFC0
7FC000FFC0
7FC000FFC0
7FC000FFC0
FFC000FFC0
FFC000FFC0
FFC000FFC0
FFC000FFC0
FFC000FFC0
7FC000FFC0
7FC000FF80
7FC000FF80
7FC000FF80
7FC001FF80
7FE001FF80
7FE001FF00
7FE003FF00
3FE003FF00
3FF003FE00
3FF007FE00
1FF807FC00
1FFC0FFC00
1FFE1FF800
0FFFFFF800
07FFFFF000
07FFFFE000
03FFFFE000
01FFFFC000
00FFFF0000
003FFE0000
000FF80000
ENDCHAR
STARTCHAR P
ENCODING 80
SWIDTH 465 0
DWIDTH 33 0
BBX 29 53 5 -2
BITMAP
01FF8000
3FFFF000
FFFFF800
FFFFFE00
FFFFFF00
FFFFFF80
FFFFFFC0
FFFFFFE0
FFF3FFE0
FFC0FFF0
FFC07FF0
FFC03FF0
FFC03FF8
FFC01FF8
FFC01FF8
FFC01FF8
FFC01FF8
FFC01FF8
FFC01FF8
FFC01FF8
FFC01FF8
FFC03FF0
FFC03FF0
FFC07FF0
FFC0FFE0
FFC1FFE0
FFC3FFC0
FFCFFF80
FFFFFF00
FFFFFE00
FFFFFC00
FFFFF800
FFFFE000
FFFF8000
FFFE0000
FFF80000
FFC00000
FFC00000
FFC00000
FFC00000
FFC00000
FFC00000
FFC00000
FFC00000
FFC00000
FFC00000
FFC00000
FFC00000
FFC00000
FFC00000
FFC00000
FFC00000
1FC00000
ENDCHAR
STARTCHAR Q
ENCODING 81
SWIDTH 521 0
DWIDTH 38 0
BBX 35 57 2 -6
BITMAP
0001F80000
000FFF0000
001FFF8000
007FFFE000
00FFFFF000
01FFFFF800
01FFFFF800
03FFFFFC00
07FFFFFE00
07FF0FFE00
0FFE07FF00
0FFC03FF00
1FF803FF00
1FF801FF80
1FF001FF80
3FF001FF80
3FF000FF80
3FE000FF80
7FE000FFC0
7FE000FFC0
7FE000FFC0
7FC000FFC0
7FC000FFC0
7FC000FFC0
7FC000FFC0
7FC000FFC0
FFC000FFC0
FFC000FFC0
FFC000FFC0
FFC000FFC0
FFC000FFC0
7FC000FFC0
7FC000FF80
7FC000FF80
7FC001FF80
7FC001FF80
7FE001FF80
7FE001FF00
7FE0C3FF00
3FE0FFFF00
3FF0FFFE00
3FF07FFE00
1FF87FFC00
1FFC7FFC00
1FFE3FF800
0FFFFFF800
07FFFFF000
07FFFFF800
03FFFFFC00
01FFFFFE00
00FFFFFF00
003FFFFF80
000FFBFFC0
000001FFE0
000000FF80
0000007E00
0000007000
ENDCHAR
STARTCHAR R
ENCODING 82
SWIDTH 525 0
DWIDTH 38 0
BBX 34 55 4 -3
BITMAP
0003F00000
00FFFF0000
07FFFFC000
1FFFFFE000
7FFFFFF800
7FFFFFFC00
7FFFFFFC00
7FFFFFFE00
7FFFFFFE00
7FF807FF00
7FE003FF00
7FE001FF00
7FE000FF00
7FE000FF80
7FE000FF80
7FE000FF80
7FE000FF80
7FE001FF80
7FE001FF00
7FE003FF00
7FE007FF00
7FE00FFE00
7FE01FFE00
7FE03FFC00
7FE07FF800
7FE0FFF800
7FE3FFF000
7FEFFFE000
7FFFFF8000
7FFFFF0000
7FFFFE0000
7FFFFC0000
7FFFF80000
7FFFFC0000
7FEFFE0000
7FE7FE0000
7FE3FF0000
7FE3FF8000
7FE1FFC000
7FE0FFC000
7FE07FE000
7FE07FF000
7FE03FF800
7FE01FF800
7FE00FFC00
7FE00FFE00
7FE007FF00
7FC003FF00
7FC003FF80
7FC001FFC0
7FC000FFC0
7FC0007F00
FFC0007E00
00C0003C00
0000001000
ENDCHAR
STARTCHAR S
ENCODING 83
SWIDTH 475 0
DWIDTH 34 0
BBX 32 53 1 -2
BITMAP
000FFC00
003FFF00
007FFF80
01FFFFE0
03FFFFE0
07FFFFF0
07FFFFF8
0FFFFFFC
0FFF1FFC
1FFC0FFE
1FF807FE
1FF807FE
3FF803FE
3FF003FF
3FF003FF
3FF003FE
3FF007FE
1FF807FE
1FF807FE
1FFC07FE
1FFC00FE
0FFE001C
0FFF8000
07FFC000
03FFF000
01FFF800
00FFFE00
007FFF00
003FFF80
001FFFE0
0007FFF0
0003FFF8
0000FFF8
00007FFC
00003FFC
06001FFC
1F000FFE
7F000FFE
FF8007FE
7F8007FE
7FC007FE
3FE007FE
3FF007FE
1FF80FFC
0FFE3FFC
0FFFFFFC
07FFFFF8
03FFFFF0
03FFFFF0
01FFFFE0
007FFF80
003FFF00
000FF800
ENDCHAR
STARTCHAR T
ENCODING 84
SWIDTH 387 0
DWIDTH 28 0
BBX 29 52 0 -1
BITMAP
001FFFE0
1FFFFFF0
FFFFFFF0
FFFFFFF0
FFFFFFF0
FFFFFFF0
7FFFFFF0
7FFFFFF8
7FFFF000
7F3FF000
003FF000
003FF000
003FE000
003FE000
003FE000
003FE000
003FE000
003FE000
003FE000
003FE000
003FE000
003FE000
003FE000
003FE000
003FE000
003FE000
003FE000
003FE000
003FE000
003FE000
003FE000
003FE000
003FE000
003FE000
003FE000
003FE000
003FE000
003FE000
003FE000
003FE000
003FE000
003FE000
003FE000
003FE000
003FE000
003FE000
003FE000
003FE000
003FE000
003FE000
003FE000
0003F000
ENDCHAR
STARTCHAR U
ENCODING 85
SWIDTH 539 0
DWIDTH 39 0
BBX 32 52 4 -1
BITMAP
00000400
000007FE
7FC007FE
7FE007FE
7FE007FE
7FE007FE
7FE007FE
7FE007FE
7FE007FE
7FE007FE
7FE003FE
7FE003FE
7FC003FE
7FC003FE
FFC003FF
FFC003FF
FFC003FF
FFC003FF
FFC003FF
FFC003FF
FFC003FF
FFC003FF
FFC003FF
FFC003FF
FFC003FF
FFC003FF
FFC003FF
FFC003FF
FFC003FF
FFC003FF
FFC003FF
FFC003FE
FFC007FE
FFC007FE
FFC007FE
FFC007FE
FFC007FE
FFC007FC
FFC00FFC
7FE00FFC
7FE00FF8
7FF01FF8
3FF83FF8
3FFC7FF0
1FFFFFF0
1FFFFFE0
0FFFFFE0
07FFFFC0
03FFFF80
01FFFF00
007FFC00
001FF000
ENDCHAR
STARTCHAR V
ENCODING 86
SWIDTH 475 0
DWIDTH 34 0
BBX 34 52 2 0
BITMAP
0000008000
000000FFC0
000000FF80
F80000FF80
FF8001FF80
FF8001FF80
FF8001FF00
FF8001FF00
7FC001FF00
7FC003FF00
7FC003FF00
7FC003FE00
7FC003FE00
3FC003FE00
3FE007FE00
3FE007FC00
3FE007FC00
3FE007FC00
1FE007FC00
1FE00FF800
1FF00FF800
1FF00FF800
1FF00FF800
0FF01FF000
0FF01FF000
0FF81FF000
0FF81FF000
07F81FE000
07F83FE000
07FC3FE000
07FC3FC000
03FC3FC000
03FC7FC000
03FC7F8000
03FE7F8000
01FE7F8000
01FEFF8000
01FEFF0000
01FFFF0000
00FFFF0000
00FFFE0000
00FFFE0000
00FFFE0000
007FFC0000
007FFC0000
007FFC0000
007FF80000
003FF80000
003FF80000
003FF00000
001FF00000
001FF00000
ENDCHAR
STARTCHAR W
ENCODING 87
SWIDTH 663 0
DWIDTH 48 0
BBX 45 50 3 0
BITMAP
F00000000FF8
FF8000001FF8
FF8000001FF8
FF8000001FF8
FF8000001FF0
7FC03F801FF0
7FC03FC01FF0
7FC03FC01FF0
7FC03FC03FF0
7FC03FC03FF0
7FC03FC03FE0
7FC03FC03FE0
7FC07FC03FE0
3FC07FC07FE0
3FE07FE07FC0
3FE07FE07FC0
3FE07FE07FC0
3FE0FFE07FC0
3FE0FFE07FC0
1FE0FFE0FF80
1FE0FFE0FF80
1FE0FFE0FF80
1FE0FFE0FF80
1FF1FFF1FF00
1FF1FFF1FF00
0FF1FFF1FF00
0FF1FFF1FF00
0FF3FFF1FE00
0FF3FFF3FE00
0FF3F3F3FE00
0FF3F3F3FE00
07F3F3F3FC00
07FFF3FFFC00
07FFE1FFFC00
07FFE1FFFC00
07FFE1FFF800
03FFE1FFF800
03FFE1FFF800
03FFC0FFF800
03FFC0FFF000
03FFC0FFF000
01FFC0FFF000
01FF807FE000
01FF807FE000
01FF807FE000
01FF007FE000
01FF003FC000
00FF003FC000
00FF003FC000
00FE00000000
ENDCHAR
STARTCHAR X
ENCODING 88
SWIDTH 463 0
DWIDTH 33 0
BBX 32 52 2 -2
BITMAP
00000060
000000F0
3F0000F8
3FF001FC
3FF001FE
3FF003FF
1FF007FF
1FF007FE
1FF80FFC
0FF80FFC
0FF81FF8
0FF81FF8
07FC3FF0
07FC3FE0
07FC7FE0
03FC7FC0
03FEFFC0
03FEFF80
01FFFF80
01FFFF00
01FFFE00
00FFFE00
00FFFC00
007FFC00
007FF800
003FF800
007FF000
007FF000
00FFF800
00FFF800
01FFFC00
01FFFC00
03FFFC00
03FFFE00
07FFFE00
07FDFF00
0FFCFF00
0FF8FF80
1FF8FF80
1FF07FC0
1FF07FC0
3FE07FC0
3FE03FE0
7FE03FE0
7FC01FF0
FFC01FF0
FF800FF8
FF800FF8
7F800FFC
1F0007FC
07000002
02000000
ENDCHAR
STARTCHAR Y
ENCODING 89
SWIDTH 444 0
DWIDTH 32 0
BBX 33 53 1 -2
BITMAP
0000007F80
000000FF80
000000FF80
FC0000FF00
FF8001FF00
7F8001FF00
7FC001FE00
7FC003FE00
7FC003FC00
3FE003FC00
3FE007FC00
3FE007F800
1FF00FF800
1FF00FF000
1FF00FF000
0FF81FF000
0FF81FE000
0FF83FE000
07FC3FC000
07FC7FC000
03FE7F8000
03FEFF8000
03FEFF8000
01FFFF0000
01FFFF0000
00FFFE0000
00FFFE0000
007FFC0000
007FFC0000
003FF80000
003FF80000
003FF80000
001FF80000
001FF80000
001FF80000
001FF80000
001FF00000
001FF00000
001FF00000
001FF00000
001FF00000
001FF00000
001FF00000
001FF00000
001FF00000
001FF00000
001FF00000
001FF80000
001FF80000
001FF80000
001FF80000
001FF80000
0000080000
ENDCHAR
STARTCHAR Z
ENCODING 90
SWIDTH 458 0
DWIDTH 33 0
BBX 30 50 3 -1
BITMAP
003FFFF8
3FFFFFFC
7FFFFFFC
7FFFFFFC
7FFFFFFC
3FFFFFFC
3FFFFFFC
3FFFFFFC
3FFFFFF8
3F001FF8
00001FF0
00003FF0
00003FE0
00007FC0
0000FFC0
0000FF80
0001FF80
0001FF00
0003FF00
0003FE00
0007FE00
0007FC00
000FF800
001FF800
001FF000
003FF000
003FE000
007FE000
00FFC000
00FF8000
01FF8000
01FF0000
03FF0000
07FE0000
07FC0000
0FFC0000
0FF80000
1FF80000
3FF00000
3FE00000
7FFFFF80
FFFFFFF8
FFFFFFF0
FFFFFFF0
FFFFFFF0
FFFFFFF0
FFFFFFF0
7FFFFFF0
7FFFFFF0
78000010
ENDCHAR
STARTCHAR bracketleft
ENCODING 91
SWIDTH 373 0
DWIDTH 27 0
BBX 22 69 5 -17
BITMAP
1FFFF0
FFFFF0
FFFFF8
FFFFF8
FFFFF8
FFFFFC
FFFFFC
FFF8FC
FFC000
FFC000
FFC000
FFC000
FFC000
FFC000
FFC000
FFC000
FFC000
FFC000
FFC000
FFC000
FFC000
FFC000
FFC000
FFC000
FF8000
7F8000
7F8000
7F8000
7F8000
7F8000
7F8000
7F8000
7F8000
7F8000
7F8000
FF8000
FF8000
FF8000
FF8000
FF8000
FF8000
FF8000
FF8000
FF8000
FF8000
FF8000
FF8000
FF8000
FF8000
FF8000
FF8000
FF8000
FFC000
FFC000
FFC000
FFC000
FFC000
FFC000
FFC000
FFC000
FFC3F8
FFFFF8
FFFFFC
FFFFFC
FFFFFC
FFFFFC
FFFFFC
FFFFF0
7FFE00
ENDCHAR
STARTCHAR backslash
ENCODING 92
SWIDTH 410 0
DWIDTH 30 0
BBX 32 59 0 -6
BITMAP
02000000
0E000000
3E000000
FF000000
FF000000
7F800000
3F800000
3FC00000
1FC00000
1FE00000
0FE00000
0FF00000
07F00000
07F80000
03F80000
03FC0000
01FC0000
01FE0000
00FE0000
00FF0000
007F0000
007F8000
003F8000
003F8000
003FC000
001FC000
001FE000
000FE000
000FF000
0007F000
0007F000
0007F800
0003F800
0003FC00
0001FC00
0001FC00
0001FE00
0000FE00
0000FF00
00007F00
00007F00
00007F80
00003F80
00003FC0
00001FC0
00001FE0
00001FE0
00000FE0
00000FF0
000007F0
000007F8
000007F8
000003F8
000003FC
000001FC
000001FE
000001FE
000000FE
000000F9
ENDCHAR
STARTCHAR bracketright
ENCODING 93
SWIDTH 373 0
DWIDTH 27 0
BBX 23 69 1 -17
BITMAP
01FFF8
3FFFFE
7FFFFE
7FFFFE
7FFFFE
7FFFFE
7FFFFC
7FFFFC
7F8FFC
000FFC
000FFC
0007FC
0007FC
0007FC
0007FC
0007FC
0007FC
0007FC
0007FC
0007FC
0007FC
0007FC
0007FC
0007FC
0007FC
0007FC
0007FC
0007FC
0007FC
0007FC
0007FC
0007FC
0007FC
0007FC
0007FC
0007FC
0007FC
0007FC
0007FC
0007FC
0007FC
0007FC
0007FC
0007FC
0007FC
0007FC
0007FC
0007FC
0007FC
0007FC
0007FC
0007FC
0007FC
000FFC
000FFC
000FFC
000FFC
000FFC
000FFC
000FFC
000FFC
FC3FFC
FFFFFC
7FFFFC
7FFFFC
7FFFFE
3FFFFE
3FFFFE
3FFFF0
ENDCHAR
STARTCHAR asciicircum
ENCODING 94
SWIDTH 1000 0
DWIDTH 72 0
BBX 47 27 13 26
BITMAP
00001FE00000
00003FF00000
00007FF80000
0000FFF80000
0001FFFC0000
0003FFFE0000
0007FFFE0000
000FFFFF0000
001FFFFF8000
003FFDFFC000
003FF8FFC000
007FF87FE000
00FFF07FF000
01FFE03FF800
01FFC01FFC00
03FF801FFC00
07FF000FFE00
0FFF0007FF00
0FFE0003FF80
1FFC0003FFC0
1FF80001FFE0
3FF80000FFF0
3FF000007FF8
7FE000003FFC
FFE000001FFE
1FC000001FE0
03C000000E00
ENDCHAR
STARTCHAR underscore
ENCODING 95
SWIDTH 500 0
DWIDTH 36 0
BBX 36 9 0 -17
BITMAP
07FFFFFF80
FFFFFFFFF0
FFFFFFFFF0
FFFFFFFFF0
FFFFFFFFE0
FFFFFFFFE0
FFFFFFFFE0
FFFFFFFFE0
C0000000E0
ENDCHAR
STARTCHAR grave
ENCODING 96
SWIDTH 500 0
DWIDTH 36 0
BBX 17 12 6 37
BITMAP
080000
1E0000
1F8000
3FC000
7FF000
7FFC00
FFFE00
1FFF80
03FF80
007F00
001E00
000400
ENDCHAR
STARTCHAR a
ENCODING 97
SWIDTH 390 0
DWIDTH 28 0
BBX 23 37 2 -2
BITMAP
001E00
00FFC0
01FFE0
03FFF0
07FFF8
0FFFF8
0FFFFC
1FFFFC
1FE7FC
3FC3FC
3F83FE
3F81FE
3F01FE
7F01FE
0001FE
0001FE
003FFE
01FFFE
03FFFE
0FFFFE
1FFFFE
3FFFFE
7FFDFE
7FE1FE
7F83FE
FF03FE
FF03FE
FF03FE
FF03FE
7FFFFC
7FFFFC
7FFFFC
3FFFFC
1FFFFC
0FFCFC
01C0FC
000004
ENDCHAR
STARTCHAR b
ENCODING 98
SWIDTH 431 0
DWIDTH 31 0
BBX 24 55 5 -2
BITMAP
F00000
FF8000
FF0000
FF0000
FF0000
FF0000
FF0000
FF0000
FF0000
FF0000
FF0000
FF0000
FF0000
FF0000
FF0000
FF0000
FF0000
FF0000
FF0000
FF01E0
FF07F0
FF0FF8
FF1FFC
FF3FFC
FF7FFE
FFFFFE
FFFFFE
FFFFFE
FFFBFF
FFF1FF
FFE1FF
FFE0FF
FFC0FF
FFC0FF
FF80FF
FF80FF
FF00FF
FF00FE
FF01FE
FF01FE
FF01FE
FF01FE
FF03FE
FF03FC
FF03FC
FF07FC
FFCFF8
FFFFF8
FFFFF8
FFFFF0
FFFFE0
FDFFE0
FCFFC0
007F80
000400
ENDCHAR
STARTCHAR c
ENCODING 99
SWIDTH 354 0
DWIDTH 25 0
BBX 23 36 2 -2
BITMAP
007F00
01FFC0
03FFE0
07FFE0
0FFFF0
0FFFF8
1FFFF8
1FFFF8
1FE7FC
3FE3FC
3FC3FC
3FC1FC
7FC1FC
7F81FC
7F81FC
7F81FC
7F8000
7F8000
FF8000
FF8000
FF8040
FF8060
FF80F8
FF80FC
FF81FE
FF83FC
7FC7FC
7FEFF8
7FFFF8
3FFFF0
3FFFF0
1FFFE0
0FFFC0
07FF80
01FE00
003000
ENDCHAR
STARTCHAR d
ENCODING 100
SWIDTH 410 0
DWIDTH 30 0
BBX 24 54 2 -1
BITMAP
0000F0
0000FF
0000FF
0000FF
0000FF
0000FF
0000FF
0000FF
0000FF
0000FF
0000FF
0000FF
0000FF
0000FF
0000FF
0000FF
0000FF
0000FF
0000FF
01FCFF
03FFFF
07FFFF
0FFFFF
0FFFFF
1FFFFF
1FFFFF
3FE1FF
3FE0FF
3FC0FF
7FC0FF
7FC0FF
7F80FF
7F80FF
FF80FF
FF80FF
FF80FF
FF01FF
FF01FF
FF01FF
FF03FF
FF03FF
FF07FF
FF07FF
FF8FFF
FF8FFF
FFFFFF
7FFFFF
7FFFFF
3FFE7F
3FFE7E
1FFC7E
0FF87E
03E07E
00003E
ENDCHAR
STARTCHAR e
ENCODING 101
SWIDTH 367 0
DWIDTH 26 0
BBX 23 36 2 -2
BITMAP
007F80
01FFC0
03FFE0
07FFF0
0FFFF8
1FFFF8
1FFFFC
3FE3FC
3FE3FC
3FC1FC
7FC1FE
7F81FE
7F81FE
7F81FE
FF81FE
FF81FE
FF8FFE
FFFFFE
FFFFFE
FFFFFE
FFFFF0
FFFC00
FF0000
FF0000
FF80E0
FF80F0
FF81FE
7FC3FC
7FE7FC
7FFFF8
3FFFF0
1FFFE0
0FFFC0
07FF80
03FE00
002000
ENDCHAR
STARTCHAR f
ENCODING 102
SWIDTH 287 0
DWIDTH 21 0
BBX 24 54 1 -1
BITMAP
000F80
003FE0
007FF0
00FFF8
00FFF8
01FFFC
01FFFC
03FFFE
03FFFE
07FCFE
07F8FE
07F87E
07F87F
07F87F
0FF87F
0FF87F
0FF87F
0FF801
0FF800
0FF800
0FF800
0FF800
0FF800
0FFFF0
3FFFF0
FFFFF0
FFFFF0
7FFFF0
7FFFF0
7FFFC0
7FF800
0FF800
0FF800
0FF800
0FF800
0FF800
0FF800
0FF800
0FF800
0FF800
0FF800
0FF800
0FF800
07F800
07F800
07F800
07F800
07F800
07F800
07F800
07F800
07F800
07F800
03F800
ENDCHAR
STARTCHAR g
ENCODING 103
SWIDTH 404 0
DWIDTH 29 0
BBX 27 51 1 -17
BITMAP
001F8000
007FE000
00FFF000
01FFF800
01FFFFE0
03FFFFC0
07FFFFC0
07FCFFC0
0FF87FC0
0FF03FC0
1FF03FC0
1FF03FC0
1FE03FC0
3FE03FC0
3FE03FC0
3FC03FC0
3FC03FC0
7FC03FC0
7FC07FC0
7FC07FC0
7FC07FC0
7F80FFC0
7F80FFC0
7F81FFC0
7F81FF80
7FC3FF80
7FC7FF80
7FEFFF80
3FFFBF80
3FFFBF80
3FFF3F80
1FFE3F80
0FFC3F80
07F83F80
00C07F80
00007F80
00007F00
00007F00
02007F00
1E00FF00
FF00FF00
7F80FE00
7FC1FE00
3FF7FE00
1FFFFC00
1FFFFC00
0FFFF800
07FFF800
03FFF000
00FFE000
007FC000
ENDCHAR
STARTCHAR h
ENCODING 104
SWIDTH 425 0
DWIDTH 31 0
BBX 24 53 4 -1
BITMAP
F80000
FF0000
FF8000
FF8000
FF8000
FF8000
FF8000
FF8000
FF8000
FF8000
FF8000
FF8000
FF8000
FF8000
FF8000
FF8000
FF8000
FF8000
FF8000
FF87E0
7F9FF8
7FBFF8
7FFFFC
7FFFFE
7FFFFE
7FFFFF
7FFFFF
7FF1FF
FFF1FF
FFE0FF
FFE0FF
FFC0FF
FFC0FF
FFC0FF
FF80FF
FF80FF
FF80FF
FF80FF
FF80FF
FF80FF
FF80FF
FF81FF
FF81FF
FF81FF
FF01FF
FF01FF
FF01FF
FF01FF
FF01FF
FF01FF
FF01FF
FF007F
3F0000
ENDCHAR
STARTCHAR i
ENCODING 105
SWIDTH 236 0
DWIDTH 17 0
BBX 9 48 5 -1
BITMAP
F800
FF80
FF00
FF00
FF00
FF00
FF00
FF00
0F00
0000
0000
0000
0000
FF00
FF00
FF00
FF00
FF00
FF00
FF00
FF00
FF00
FF00
FF00
FF00
FF00
FF00
FF00
FF00
FF00
FF00
FF00
FF00
FF00
FF00
FF00
FF00
FF00
FF00
FF00
FF00
FF00
FF00
FF00
FF00
FF00
FF00
1F00
ENDCHAR
STARTCHAR j
ENCODING 106
SWIDTH 252 0
DWIDTH 18 0
BBX 19 65 -4 -18
BITMAP
001E00
003FE0
003FE0
003FC0
003FC0
003FC0
003FC0
003FC0
0003C0
000000
000000
000000
000000
003000
003FC0
003FC0
003FC0
003FC0
003FC0
003FC0
003FC0
003FC0
003FC0
003FC0
003FC0
003FC0
003FC0
003FC0
003FC0
003FC0
003FC0
003FC0
003FE0
003FE0
003FE0
003FE0
001FE0
001FE0
001FE0
001FE0
001FE0
001FE0
001FE0
001FE0
001FE0
001FE0
001FE0
001FE0
001FE0
003FE0
003FC0
003FC0
003FC0
003FC0
107FC0
387FC0
3FFF80
7FFF80
7FFF80
FFFF00
7FFF00
3FFE00
1FFC00
07F800
00C000
ENDCHAR
STARTCHAR k
ENCODING 107
SWIDTH 410 0
DWIDTH 30 0
BBX 26 55 4 -2
BITMAP
60000000
7FC00000
7FC00000
7FC00000
7FC00000
7F800000
7F800000
7F800000
7F800000
7F800000
7F800000
7F800000
7F800000
7F800000
7F800000
7F800000
FF800000
FF800800
FF801800
FF801E00
FF803F00
FF803F80
FF807FC0
FF807F80
FF80FF80
FF80FF00
FF81FF00
FF83FE00
FF83FE00
FF87FC00
FF8FF800
FF9FF800
FF9FF000
FFBFF000
FFFFE000
FFFFC000
FFFFC000
FFFF8000
FFFFC000
FFFFE000
FFFFF000
FFBFF800
FF9FF800
FF8FFC00
FF87FE00
FF87FE00
FF83FF00
FF81FF80
FF80FF80
FF807FC0
FF807F80
FF803F00
FF801E00
7F800C00
00000800
ENDCHAR
STARTCHAR l
ENCODING 108
SWIDTH 236 0
DWIDTH 17 0
BBX 9 54 5 -1
BITMAP
6000
7F80
7F80
FF80
FF80
FF80
FF80
FF80
FF80
FF80
FF80
FF80
FF80
FF00
FF00
FF00
FF00
FF00
FF00
FF00
FF00
FF00
FF00
FF00
FF00
FF00
FF00
FF00
FF00
FF00
FF00
FF00
FF00
FF00
FF00
FF00
FF00
FF00
FF00
FF00
FF00
FF00
FF00
FF00
FF00
FF00
FF00
FF00
FF00
FF00
FF00
FF00
FF00
FF00
ENDCHAR
STARTCHAR m
ENCODING 109
SWIDTH 647 0
DWIDTH 47 0
BBX 40 36 4 -1
BITMAP
0000000400
6000003FC0
7E00007FF0
7E07E0FFF8
7E0FF9FFF8
7E1FFFFFFC
FF3FFFFFFC
FF7FFFFFFE
FFFFFFF3FE
FFFFFFE1FE
FFFDFFE1FE
FFF8FFC1FE
FFF0FFC1FF
FFF0FFC1FF
FFE0FF81FF
FFE0FF81FF
FFE0FF81FF
FFC0FF81FF
FFC0FF81FF
FFC0FF81FF
FF80FF81FF
FF80FF81FE
FF80FF81FE
FF80FF81FE
FF80FF81FE
FF80FF81FE
7F80FF81FE
7F80FF01FE
7F80FF03FE
7F80FF03FE
7F80FF03FE
7F80FF03FE
7F80FF03FE
7F80FF03FC
7F800003FC
7FC00001FC
ENDCHAR
STARTCHAR n
ENCODING 110
SWIDTH 424 0
DWIDTH 31 0
BBX 25 35 3 -1
BITMAP
0007E000
000FF800
001FFC00
7C3FFE00
7C7FFE00
FCFFFE00
FEFFFF00
FFFFFF00
FFF9FF00
FFF0FF80
FFF0FF80
FFF0FF80
FFE0FF80
FFE0FF80
FFE0FF80
FFC0FF80
FFC0FF80
FFC0FF80
FFC0FF80
FFC0FF80
FF80FF80
FF80FF80
FF80FF80
FF80FF80
FF80FF80
FF80FF80
FF80FF80
7F80FF80
7F80FF80
7F80FF00
7F80FF00
7F80FF00
7F80FF00
7F800000
7F800000
ENDCHAR
STARTCHAR o
ENCODING 111
SWIDTH 368 0
DWIDTH 27 0
BBX 24 36 2 -2
BITMAP
007F00
01FFC0
03FFE0
07FFF0
0FFFF8
1FFFFC
1FFFFC
3FE3FC
3FC1FE
3FC1FE
7FC1FE
7F81FF
7F81FF
FF81FF
FF81FF
FF81FF
FF01FF
FF01FF
FF01FF
FF01FF
FF01FF
FF01FE
FF01FE
FF01FE
FF03FE
FF83FC
FF83FC
7F87FC
7FC7F8
7FFFF8
3FFFF0
3FFFF0
1FFFE0
0FFFC0
03FF80
00FC00
ENDCHAR
STARTCHAR p
ENCODING 112
SWIDTH 410 0
DWIDTH 30 0
BBX 25 54 4 -18
BITMAP
78000000
7F800000
7F818000
7F8FF000
7F3FF800
7F7FFC00
7F7FFE00
7FFFFE00
FFFFFE00
FFFFFF00
FFF1FF00
FFE1FF00
FFC0FF00
FFC0FF00
FF80FF80
FF80FF80
FF80FF00
FF00FF00
FF00FF00
FF00FF00
FF00FF00
FF00FF00
FF01FF00
FF01FE00
FF01FE00
FF03FE00
FF03FE00
FF07FC00
FF87FC00
FFCFF800
FFFFF800
FFFFF000
FFFFF000
FFFFE000
FFFFC000
FFFF8000
FF7F0000
FF000000
FF000000
FF000000
FF000000
FF000000
FF000000
FF800000
FF800000
FF800000
FF800000
FF800000
FF800000
FF800000
FF800000
FF800000
FF800000
01800000
ENDCHAR
STARTCHAR q
ENCODING 113
SWIDTH 402 0
DWIDTH 29 0
BBX 25 51 2 -17
BITMAP
00FC0000
03FF0000
07FF8F80
07FFCF80
0FFFFF80
1FFFFF00
1FFFFF00
3FF3FF00
3FE1FF00
3FC1FF00
7FC0FF00
7FC0FF00
7F80FF00
7F80FF00
7F80FF00
FF80FF00
FF81FF00
FF81FF00
FF01FF00
FF01FF00
FF01FF00
FF01FF00
FF81FF00
FF81FF00
FF83FF00
FF83FF00
7F87FF00
7FC7FF00
7FFFFF00
3FFFFF00
3FFFFF00
1FFFFF00
0FFFFF00
07FDFF00
01F1FF00
0001FF00
0001FF00
0001FF00
0001FF00
0001FF00
0001FF00
0001FF00
0001FF00
0001FF00
0001FF00
0001FF00
0001FF00
0001FF00
0001FF00
0001FF00
0000FF00
ENDCHAR
STARTCHAR r
ENCODING 114
SWIDTH 301 0
DWIDTH 22 0
BBX 19 36 3 -2
BITMAP
001F80
003FC0
007FE0
FC7FE0
FCFFC0
FDFFC0
7DFFC0
7FFF80
7FF880
7FF000
7FE000
7FE000
7FC000
7FC000
7FC000
7FC000
7FC000
7FC000
7FC000
7FC000
7FC000
7FC000
7FC000
7FC000
7FC000
7FC000
7FC000
7FC000
7FC000
7FC000
7FC000
7FC000
7FC000
7FC000
7FC000
00C000
ENDCHAR
STARTCHAR s
ENCODING 115
SWIDTH 347 0
DWIDTH 25 0
BBX 22 36 2 -2
BITMAP
003F00
00FFC0
03FFE0
07FFF0
0FFFF8
1FFFF8
1FFFF8
3FF3FC
3FE1FC
3FC1FC
3FC1FC
3FC1FC
3FC1FC
3FE1FC
3FE008
3FF000
1FFC00
1FFF00
0FFF80
07FFC0
03FFE0
00FFF0
007FF8
001FF8
100FF8
380FFC
780FFC
7C0FF8
FF1FF8
7FFFF8
7FFFF8
3FFFF0
1FFFE0
07FFC0
01FF00
001000
ENDCHAR
STARTCHAR t
ENCODING 116
SWIDTH 287 0
DWIDTH 21 0
BBX 19 46 2 -1
BITMAP
060000
07FC00
07FC00
07FC00
07FC00
07FC00
07FC00
07FC00
07FC00
07FC00
07FC00
07FC00
07F800
07F800
07F800
07FFE0
7FFFE0
FFFFE0
FFFFE0
FFFFE0
FFFFE0
FFFFE0
67F800
07F800
07F800
07F800
07F800
07F800
07F800
07F800
07F800
07F800
07F800
07F800
07F800
0FF800
0FF800
0FF800
0FF800
0FF800
0FF800
0FF800
0FF800
0FF800
0FF800
01F800
ENDCHAR
STARTCHAR u
ENCODING 117
SWIDTH 420 0
DWIDTH 30 0
BBX 25 35 3 -1
BITMAP
0000FF00
0000FF00
7FC0FF00
7F80FF00
7F80FF00
7F80FF00
7F80FF00
7F80FF00
7F80FF00
FF80FF00
FF80FF00
FF80FF00
FF80FF00
FF80FF00
FF80FF00
FF80FF00
FF00FF00
FF01FF00
FF01FF00
FF01FF00
FF01FF00
FF03FF00
FF03FF00
FF07FF00
FF07FF00
FF8FFF00
FFFFFF00
FFFFFF00
7FFFFF00
7FFF7F00
7FFE7F00
3FFC7F00
1FF87F00
07E07F80
00003F80
ENDCHAR
STARTCHAR v
ENCODING 118
SWIDTH 366 0
DWIDTH 26 0
BBX 26 37 1 -1
BITMAP
00003F80
00003FC0
80003FC0
7F803F80
7F807F80
7F807F80
7F807F80
7F807F80
7F80FF00
7F80FF00
7F80FF00
3FC0FF00
3FC0FE00
3FC1FE00
3FC1FE00
3FC1FE00
3FC1FC00
1FC3FC00
1FC3FC00
1FE3F800
1FE3F800
1FE7F800
0FE7F800
0FE7F000
0FF7F000
0FFFF000
07FFE000
07FFE000
07FFE000
07FFE000
07FFC000
03FFC000
03FFC000
03FF8000
03FF8000
01FF8000
007F0000
ENDCHAR
STARTCHAR w
ENCODING 119
SWIDTH 516 0
DWIDTH 37 0
BBX 37 37 1 -1
BITMAP
00000007C0
00000007F8
00000007F8
FF000007F8
FF00F807F8
FF01F80FF0
FF01F80FF0
7F81FC0FF0
7F81FC0FF0
7F81FC0FE0
7F83FC1FE0
7F83FC1FE0
7F83FC1FE0
7F83FC1FC0
7F83FC1FC0
3F87FC3FC0
3F87FE3FC0
3F87FE3F80
3FC7FE3F80
3FCFFE7F80
3FCFFE7F00
1FCFFE7F00
1FCFBE7F00
1FCFBF7F00
1FDFBFFE00
1FDF9FFE00
0FDF1FFE00
0FFF1FFE00
0FFF1FFC00
0FFE1FFC00
0FFE0FFC00
07FE0FF800
07FC0FF800
07FC0FF800
07FC07F000
07F807F000
01F800F000
ENDCHAR
STARTCHAR x
ENCODING 120
SWIDTH 368 0
DWIDTH 27 0
BBX 26 38 0 -2
BITMAP
00000800
00000E00
1FC01F80
1FE01FC0
1FE03FC0
0FE03F80
0FF07F80
0FF07F80
0FF0FF00
07F8FF00
07F9FE00
07F9FE00
03FFFC00
03FFF800
03FFF800
01FFF000
01FFE000
00FFE000
00FFC000
007F8000
00FFC000
00FFC000
01FFE000
01FFE000
03FFF000
03FFF000
07FFF800
0FF3FC00
0FF3FC00
1FE1FE00
1FE1FF00
3FE0FF80
3FC0FF80
3FC07F00
7F803E00
FF803C00
1F801800
03000800
ENDCHAR
STARTCHAR y
ENCODING 121
SWIDTH 376 0
DWIDTH 27 0
BBX 25 53 3 -17
BITMAP
00006000
00007000
00007C00
C0007F00
FF00FF80
FF00FF00
FF00FF00
FF00FE00
FF01FE00
FF01FE00
FF01FE00
FF01FC00
7F03FC00
7F83FC00
7F83F800
7F83F800
7F87F800
3F87F800
3F87F000
3F87F000
3FCFF000
1FCFF000
1FCFE000
1FCFE000
1FFFE000
0FFFE000
0FFFC000
0FFFC000
07FFC000
07FFC000
07FF8000
03FF8000
03FF8000
01FF8000
01FF0000
00FF0000
00FF0000
00FF0000
00FE0000
01FE0000
01FE0000
01FE0000
01FE0000
03FC0000
03FC0000
03FC0000
03FC0000
07F80000
07F80000
07F80000
07F80000
07F80000
0BF00000
ENDCHAR
STARTCHAR z
ENCODING 122
SWIDTH 344 0
DWIDTH 25 0
BBX 21 34 3 0
BITMAP
1FFFE0
7FFFF0
7FFFF0
7FFFF0
3FFFF0
3FFFF0
3FFFF0
300FF0
001FE0
003FC0
003FC0
007F80
00FF00
00FF00
01FE00
01FC00
03FC00
07F800
07F800
0FF000
0FE000
1FE000
1FC000
3FC000
7F8000
7F0000
FF0000
FFFFF8
FFFFF0
7FFFF0
7FFFF0
7FFFF0
7FFFF0
7E0070
ENDCHAR
STARTCHAR braceleft
ENCODING 123
SWIDTH 500 0
DWIDTH 36 0
BBX 24 71 4 -18
BITMAP
000007
0000FF
0003FF
000FFF
001FFF
007FFF
007FFF
00FFFE
01FFF0
03FFC0
03FF80
03FF00
07FE00
07FE00
07FE00
07FE00
07FC00
07FC00
07FE00
07FE00
03FE00
03FE00
03FE00
03FE00
03FE00
03FF00
03FF00
03FF00
03FE00
03FE00
07FE00
0FFC00
FFF800
FFF000
FFE000
FFC000
FFE000
FFF800
7FF800
7FFC00
1FFE00
07FE00
03FE00
03FF00
03FF00
03FF00
03FE00
03FE00
03FE00
03FE00
03FE00
07FE00
07FC00
07FC00
07FC00
07FC00
07FC00
07FC00
07FE00
07FF00
07FF80
03FFE0
03FFFC
01FFFC
01FFFC
00FFF8
007FF8
003FF8
000FF8
0003F8
000038
ENDCHAR
STARTCHAR bar
ENCODING 124
SWIDTH 500 0
DWIDTH 36 0
BBX 7 73 14 -18
BITMAP
7C
7C
7C
7C
7E
7E
7E
7E
7E
7E
7E
7E
7E
7E
7E
7E
7E
7E
7E
7E
7E
7E
7E
7E
7E
7E
7E
7E
7E
7E
7E
7E
7E
7E
7E
7E
7E
7E
7E
7E
7E
7E
7E
7E
7E
7E
7E
7E
7E
7E
7E
7E
7E
7E
7E
7E
7E
7E
7E
7E
7E
7E
7E
7E
7E
7E
7E
7E
7C
7C
7C
FC
0C
ENDCHAR
STARTCHAR braceright
ENCODING 125
SWIDTH 500 0
DWIDTH 36 0
BBX 24 71 2 -18
BITMAP
1E0000
1FC000
1FF000
1FFC00
1FFE00
1FFF00
3FFF80
3FFF80
3FFFC0
03FFC0
00FFE0
007FE0
007FE0
003FE0
003FE0
003FE0
003FE0
003FE0
003FE0
007FE0
007FC0
007FC0
007FC0
007FC0
007FC0
00FFC0
00FFC0
00FFC0
007FC0
007FE0
007FFC
003FFE
001FFE
000FFF
0007FF
0003FF
0007FF
000FFF
001FFF
003FF0
007FE0
007FC0
007FC0
00FFC0
00FFC0
00FFC0
007FC0
007FC0
007FC0
007FC0
007FC0
007FE0
003FE0
003FE0
003FE0
007FE0
007FE0
007FE0
007FE0
00FFC0
01FFC0
03FF80
0FFF80
FFFF00
FFFE00
FFFC00
FFF800
FFF000
FFC000
FE0000
C00000
ENDCHAR
STARTCHAR asciitilde
ENCODING 126
SWIDTH 833 0
DWIDTH 60 0
BBX 48 14 6 15
BITMAP
00000000007F
003FF00001FF
00FFFF0003FE
03FFFFF81FFE
07FFFFFFFFFE
0FFFFFFFFFFC
1FFFFFFFFFFC
1FFFFFFFFFF8
3FFFFFFFFFF0
3FF8FFFFFFE0
7FE007FFFFC0
7FC000FFFF00
FF800007F000
FF0000000000
ENDCHAR
STARTCHAR nbspace
ENCODING 160
SWIDTH 484 0
DWIDTH 35 0
BBX 1 1 0 0
BITMAP
00
ENDCHAR
STARTCHAR exclamdown
ENCODING 161
SWIDTH 278 0
DWIDTH 20 0
BBX 12 55 3 -2
BITMAP
0800
1FC0
1FF0
1FF0
1FF0
1FF0
1FF0
1FF0
1FF0
1FF0
1FF0
1FF0
0010
0000
0000
0800
0FC0
0FC0
0FE0
0FE0
0FE0
0FE0
0FE0
0FE0
0FE0
0FE0
0FE0
0FE0
0FE0
1FE0
1FE0
1FF0
1FF0
1FF0
1FF0
1FF0
1FF0
1FF0
3FF0
3FF0
3FF0
3FE0
3FE0
3FE0
7FE0
7FE0
7FE0
7FE0
7FE0
FFE0
FFE0
FFE0
FFE0
0FC0
0040
ENDCHAR
STARTCHAR cent
ENCODING 162
SWIDTH 484 0
DWIDTH 35 0
BBX 23 51 7 -2
BITMAP
00FF00
00FF00
00FF00
00FF00
00FF00
00FF00
007F00
007F00
00FF00
01FFC0
03FFE0
07FFE0
0FFFF0
0FFFF8
1FFFF8
1FFFF8
3FE7FC
3FC3FC
3FC1FC
7FC1FC
7F81FC
7F81FC
7F81FC
7F81FC
FF8000
FF8000
FF8000
FF8000
FF0040
FF0060
FF80F8
FF81FC
FF81FE
FF83FC
FF87FC
7FCFF8
7FFFF8
7FFFF0
3FFFE0
1FFFE0
0FFFC0
07FF80
01FE00
01FE00
01FE00
01FE00
01FE00
01FC00
01FC00
01FC00
003C00
ENDCHAR
STARTCHAR sterling
ENCODING 163
SWIDTH 484 0
DWIDTH 35 0
BBX 34 49 1 -2
BITMAP
00001FC000
00007FF000
0000FFF800
0001FFFC00
0003FFFC00
0007FFFE00
0007FFFE00
000FFFFF00
000FF8FF00
000FF87F00
001FF07F00
001FF07F00
001FF07F00
003FE07F00
003FE07F00
003FE07F00
003FE07F00
003FE00700
003FC00000
007FC00000
007FC00000
007FC00000
007FC00000
007FFFF000
01FFFFF000
7FFFFFF000
7FFFFFF000
7FFFFFF000
3FFFFFF800
3FFFFFF800
3EFF800000
00FF000000
00FF000000
01FF000000
01FE000000
03FE000000
03FC000000
07FC000000
0FF800FF80
1FF3FFFF80
7FFFFFFFC0
FFFFFFFFC0
7FFFFFFFC0
7FFFFFFFC0
3FFFFFFFC0
3FFFFFFFC0
1FFFF80000
1FC0000000
1000000000
ENDCHAR
STARTCHAR currency
ENCODING 164
SWIDTH 606 0
DWIDTH 44 0
BBX 43 42 0 10
BITMAP
010000000400
078000000E00
0F8000001F00
3FC000007F00
FFE01F80FF80
7FF0FFF1FFC0
3FFBFFFFFFE0
1FFFFFFFFFC0
0FFFFFFFFF80
07FFFFFFFF00
03FFFFFFFC00
01FFF07FF800
01FFC03FF000
00FFC01FE000
00FF801FF000
00FF801FF000
01FF000FF000
01FF000FF000
01FF000FF000
01FE000FF000
01FE000FF800
01FE000FF000
01FE000FF000
01FE000FF000
01FE001FF000
01FE001FF000
01FE003FF000
01FF003FE000
01FF807FF000
01FFC0FFF800
03FFF3FFFC00
07FFFFFFFE00
0FFFFFFFFF00
1FFFFFFFFF80
3FFFFFFFFFC0
7FFFFFF9FFE0
3FF1FFC0FFC0
1FE000007F80
0FC000007F00
078000003E00
030000001C00
000000000800
ENDCHAR
STARTCHAR yen
ENCODING 165
SWIDTH 481 0
DWIDTH 35 0
BBX 32 51 1 -2
BITMAP
00000080
000000FF
000001FF
000001FE
FE0001FE
FF8003FE
7F8003FC
7FC003FC
7FC007F8
7FC007F8
3FC007F8
3FE00FF0
1FE00FF0
1FF01FE0
1FF01FE0
0FF01FE0
0FF83FC0
07F83FC0
07FC7F80
07FC7FF8
03FE7FF8
7FFEFFF8
3FFFFFF8
3FFFFFF8
3FFFFF84
3FFFFC00
007FFC00
007FF818
00FFFFF8
7FFFFFF8
3FFFFFF8
3FFFFFF8
3FFFFFFC
3F1FF000
001FF000
001FF000
001FF000
001FF000
001FF000
001FF000
001FF000
001FF000
001FF000
001FF000
001FF000
000FF000
000FF000
000FF000
000FF000
000FF000
00001000
ENDCHAR
STARTCHAR brokenbar
ENCODING 166
SWIDTH 500 0
DWIDTH 36 0
BBX 7 73 14 -18
BITMAP
7C
7C
7C
7C
7C
7C
7C
7E
7E
7E
7E
7E
7E
7E
7E
7E
7E
7E
7E
7E
7E
7E
7E
7E
1E
00
00
00
00
00
00
00
00
00
00
00
00
00
00
00
00
00
00
00
00
7E
7E
7E
7E
7E
7E
7E
7E
7E
7E
7E
7E
7E
7E
7E
7E
7E
7E
7E
7E
7E
7E
7C
7C
7C
7C
FC
0C
ENDCHAR
STARTCHAR section
ENCODING 167
SWIDTH 520 0
DWIDTH 37 0
BBX 32 67 1 -14
BITMAP
000FFC00
003FFF00
00FFFF80
01FFFFE0
03FFFFE0
07FFFFF0
0FFFFFF8
0FFFFFFC
1FFF1FFC
1FFC0FFE
1FF807FE
1FF807FE
3FF003FE
3FF003FF
3FF003FF
3FF807FE
1FF807FE
1FFC07FE
1FFF03FE
0FFF807C
0FFFE00C
07FFF800
07FFFE00
0FFFFF80
1FFFFFC0
1FFFFFE0
3FFFFFF0
3FE7FFF8
3FE1FFFC
3FE03FFC
3FE01FFE
3FE007FE
3FE007FE
3FE003FF
3FF003FF
3FF801FF
1FFC01FF
1FFF03FF
0FFFC3FE
07FFF7FE
03FFFFFE
01FFFFFC
00FFFFFC
007FFFF8
001FFFF8
000FFFF0
0003FFF8
0000FFFC
00007FFC
00001FFE
07000FFE
1F000FFE
7F8007FE
FFC007FE
7FC007FE
7FE007FE
3FF00FFC
1FFC1FFC
1FFFFFFC
0FFFFFF8
07FFFFF8
03FFFFF0
01FFFFE0
00FFFFC0
007FFF80
001FFE00
0007F000
ENDCHAR
STARTCHAR dieresis
ENCODING 168
SWIDTH 500 0
DWIDTH 36 0
BBX 19 9 8 38
BITMAP
7E0FE0
7F0FE0
7F0FE0
7F0FE0
7F0FE0
7F0FE0
7F0FE0
FF0FE0
3E13E0
ENDCHAR
STARTCHAR copyright
ENCODING 169
SWIDTH 746 0
DWIDTH 54 0
BBX 46 53 4 -1
BITMAP
00003FFC0000
0001FFFF8000
0007FFFFE000
001FFFFFF800
003FFFFFFC00
007FFFFFFE00
00FFF01FFF00
01FF8003FF80
03FF0000FFC0
07FE00007FE0
0FFC01003FE0
0FF81FF01FF0
1FF03FF80FF0
1FE07FFC0FF0
3FE0FFFE07F8
3FC1FFFE07F8
7FC1FFFF07F8
7F83FCFF03F8
7F83F8FF03FC
7F87F87F03FC
FF07F87F03FC
FF07F07F03FC
FF0FF07F03FC
FF0FF03F03FC
FF0FF00083FC
FE0FF00003FC
FE0FE00003FC
FE0FE00003FC
FE1FE00003FC
FE1FE00003FC
FE1FE02003FC
FF0FE03F83F8
FF0FF07F87F8
FF0FF07F87F8
FF0FF8FF07F8
FF07FFFF07F0
FF87FFFE0FF0
7F83FFFE0FF0
7F81FFFC1FE0
7FC0FFF81FE0
3FC07FF03FC0
3FE00F807FC0
1FF00000FF80
1FF80001FF00
0FFC0003FF00
07FF000FFE00
03FFE03FFC00
01FFFFFFF800
00FFFFFFF000
003FFFFFC000
001FFFFF8000
0003FFFC0000
00007FE00000
ENDCHAR
STARTCHAR ordfeminine
ENCODING 170
SWIDTH 293 0
DWIDTH 21 0
BBX 18 25 1 26
BITMAP
01FC00
07FE00
0FFF00
1FFF00
1FFF80
3FFF80
3F3F80
7F1F80
7E1FC0
061FC0
001FC0
03FFC0
0FFFC0
1FFFC0
3FFF80
7FFF80
7F9F80
FE1F80
FE1F80
FFFF80
7FFF80
7FFF80
3FFF80
1FFF80
030F80
ENDCHAR
STARTCHAR guillemotleft
ENCODING 171
SWIDTH 478 0
DWIDTH 34 0
BBX 31 31 2 0
BITMAP
00800100
00F803F0
01FF03FC
01FE07FC
01FE07F8
03FE0FF8
07FC0FF0
07FC1FF0
0FF81FF0
0FF83FE0
1FF07FC0
3FE07FC0
3FE0FF80
7FC1FF80
FFC1FF00
FF83FF00
7FC1FF00
7FC0FF80
3FE0FF80
3FE07FC0
1FF07FC0
1FF03FE0
0FF83FE0
0FF81FF0
07FC1FF0
03FE0FF8
03FE07FC
01FF07FE
00FE03F8
00F001E0
00400080
ENDCHAR
STARTCHAR logicalnot
ENCODING 172
SWIDTH 833 0
DWIDTH 60 0
BBX 42 19 9 12
BITMAP
3FFFFFFFFE00
FFFFFFFFFFC0
FFFFFFFFFFC0
FFFFFFFFFFC0
FFFFFFFFFFC0
FFFFFFFFFFC0
FFFFFFFFFFC0
FFFFFFFFFFC0
000000007FC0
000000007FC0
000000007FC0
000000007FC0
000000007FC0
000000007FC0
000000007FC0
000000007FC0
000000007FC0
000000007FC0
000000000040
ENDCHAR
STARTCHAR sfthyphen
ENCODING 173
SWIDTH 324 0
DWIDTH 23 0
BBX 19 8 2 12
BITMAP
FFFFC0
7FFFC0
7FFFC0
7FFFE0
7FFFE0
7FFFE0
7FFFE0
7FF8E0
ENDCHAR
STARTCHAR registered
ENCODING 174
SWIDTH 746 0
DWIDTH 54 0
BBX 46 53 4 -1
BITMAP
00003FFC0000
0001FFFF8000
0007FFFFE000
001FFFFFF800
003FFFFFFC00
007FFFFFFE00
00FFF01FFF00
01FF8003FF80
03FF0000FFC0
07FE00007FE0
0FFC01003FE0
0FF8FFF81FF0
1FF7FFFE0FF0
1FE7FFFF0FF0
3FE7FFFF87F8
3FC7FFFF87F8
7FC7FFFFC7F8
7F87F83FC3F8
7F87F81FC3FC
7F87F81FC3FC
FF07F81FC3FC
FF07F83FC3FC
FF07F87F83FC
FF07F87F83FC
FF07F9FF03FC
FE07FBFE03FC
FE07FFFC03FC
FE07FFF803FC
FE07FFE003FC
FE07FFF003FC
FE07FFF803FC
FF07FBFC03F8
FF07FBFC07F8
FF07F9FE07F8
FF07F8FF07F8
FF07F87F07F0
FF87F87F8FF0
7F87F83FCFF0
7F87F81F9FE0
7FC7F81F1FE0
3FC0F80E3FC0
3FE000087FC0
1FF00000FF80
1FF80001FF00
0FFC0003FF00
07FF000FFE00
03FFE03FFC00
01FFFFFFF800
00FFFFFFF000
003FFFFFC000
001FFFFF8000
0003FFFC0000
00007FE00000
ENDCHAR
STARTCHAR macron
ENCODING 175
SWIDTH 403 0
DWIDTH 29 0
BBX 23 7 3 39
BITMAP
FFFFFE
FFFFFE
7FFFFE
7FFFFE
7FFFFE
7FFFFE
7FFFFE
ENDCHAR
STARTCHAR degree
ENCODING 176
SWIDTH 329 0
DWIDTH 24 0
BBX 22 22 1 30
BITMAP
003800
01FF80
07FFC0
0FFFE0
1FFFF0
3FFFF8
7F83F8
7F01F8
7E00FC
FC00FC
FC00FC
FC00FC
FC01FC
FC01F8
FC03F8
FE03F8
7F0FF0
7FFFE0
3FFFE0
3FFFC0
0FFF00
07FE00
ENDCHAR
STARTCHAR plusminus
ENCODING 177
SWIDTH 833 0
DWIDTH 60 0
BBX 43 46 9 -1
BITMAP
0000F8000000
0000FFE00000
0000FFC00000
0000FFC00000
0000FFC00000
0000FFC00000
0000FFC00000
0000FFC00000
0000FFC00000
0000FFC00000
0001FFC00000
0001FFC00000
000FFFFFFFE0
FFFFFFFFFFE0
FFFFFFFFFFC0
FFFFFFFFFFC0
FFFFFFFFFFC0
FFFFFFFFFFC0
FFFFFFFFFFC0
FFFFFFFFFFC0
FFFFFF800040
F801FF800000
0001FF800000
0001FF800000
0001FF800000
0001FF800000
0001FFC00000
0001FFC00000
0000FFC00000
0000FFC00000
0000FFC00000
0000FFC00000
000000000000
000000000000
000000000000
000000000000
000000000000
FFFFFFFFFF80
FFFFFFFFFFE0
FFFFFFFFFFE0
FFFFFFFFFFC0
FFFFFFFFFFC0
FFFFFFFFFFC0
FFFFFFFFFFC0
FFFFFFFFFFC0
FFFFFFFFFFC0
ENDCHAR
STARTCHAR twosuperior
ENCODING 178
SWIDTH 364 0
DWIDTH 26 0
BBX 20 29 3 17
BITMAP
007F00
01FF80
03FFC0
07FFE0
0FFFE0
1FFFF0
3FE7F0
7FC7F0
7F87F0
1F07F0
0E0FE0
040FE0
001FC0
003FC0
007F80
007F00
00FF00
01FE00
03FC00
07F800
0FF000
1FE000
3FFFE0
FFFFE0
7FFFE0
7FFFE0
3FFFE0
3FFFE0
180000
ENDCHAR
STARTCHAR threesuperior
ENCODING 179
SWIDTH 324 0
DWIDTH 23 0
BBX 17 29 3 17
BITMAP
03F000
0FFC00
3FFE00
FFFF00
7FFF80
7FFF80
3C3F80
183F80
007F80
00FF80
01FF00
07FE00
3FFC00
7FF800
3FFC00
3FFE00
3FFF00
00FF00
007F00
007F80
007F80
00FF00
FFFF00
FFFF00
7FFE00
7FFC00
7FF800
7FE000
0C0000
ENDCHAR
STARTCHAR acute
ENCODING 180
SWIDTH 500 0
DWIDTH 36 0
BBX 17 12 13 37
BITMAP
000400
001C00
007E00
01FF00
03FF00
0FFF80
3FFF80
FFFC00
7FE000
3F8000
3C0000
100000
ENDCHAR
STARTCHAR mu
ENCODING 181
SWIDTH 420 0
DWIDTH 30 0
BBX 26 52 2 -18
BITMAP
00007F80
00007F80
3FE07F80
3FC07F80
3FC07F80
3FC07F80
3FC07F80
3FC07F80
3FC07F80
7FC07F80
7FC07F80
7FC07F80
7FC07F80
7FC07F80
7FC07F80
7FC07F80
7F807F80
7F80FF80
7F80FF80
7F80FF80
7F80FF80
7F81FF80
7F81FF80
7F83FF80
7F83FF80
7FC7FF80
7FFFFF80
7FFFFF80
3FFFFF80
3FFFBF80
3FFF3F80
7FFE3F80
7FFC3F80
7FF03FC0
7F001FC0
7F000000
7F000000
7F000000
7F000000
7F000000
7F000000
FF000000
FF000000
FF000000
FF000000
FF000000
FF000000
FF000000
FF000000
FF000000
FF000000
01000000
ENDCHAR
STARTCHAR paragraph
ENCODING 182
SWIDTH 500 0
DWIDTH 36 0
BBX 35 54 1 -1
BITMAP
0001FFFC00
003FFFFFE0
01FFFFFFC0
03FFFFFFC0
0FFFFFFFC0
1FFFFFFFC0
1FFFC0FC00
3FFFC0FC00
7FFFC0FC00
7FFFC0FC00
7FFFC0FC00
FFFFC0FC00
FFFFC0FC00
FFFFC0FC00
FFFFE0FC00
FFFFE0FC00
FFFFE0FC00
FFFFE0FC00
FFFFE0FC00
7FFFE0FC00
7FFFE0FC00
3FFFE0FC00
1FFFE0FC00
0FFFE0FC00
07FFE0FC00
0007E0FC00
0007E0FC00
0007E0FC00
0007E0FC00
0007E0FC00
0007E0FC00
0007E0FC00
0007E0FC00
0007E0FC00
0007E0FC00
0007E0FC00
0007E0FC00
0007E0FC00
0007E0FC00
0007E0FC00
0007E0FC00
0007E0FC00
0007E0FC00
0007E0FC00
0007E0FC00
0007E0FC00
0007E0FC00
0007E0FC00
0007C0FC00
0007C0FC00
0007C0FC00
000FC0F800
000FC0F800
0001C00000
ENDCHAR
STARTCHAR periodcentered
ENCODING 183
SWIDTH 260 0
DWIDTH 19 0
BBX 10 14 4 16
BITMAP
8000
FFC0
FFC0
FFC0
FFC0
FFC0
FFC0
FFC0
FFC0
FFC0
FFC0
FFC0
FFC0
FFC0
ENDCHAR
STARTCHAR cedilla
ENCODING 184
SWIDTH 500 0
DWIDTH 36 0
BBX 19 17 9 -17
BITMAP
00C000
01C000
01C000
01C000
03E800
03FF00
03FF80
03FFC0
03FFC0
010FE0
400FE0
600FC0
FC1FC0
FFFFC0
7FFF80
1FFE00
03E000
ENDCHAR
STARTCHAR onesuperior
ENCODING 185
SWIDTH 274 0
DWIDTH 20 0
BBX 13 28 3 18
BITMAP
03F8
03F8
07F8
0FF8
0FF8
1FF8
3FF8
3FF8
7FF8
FFF8
3BF8
0BF8
03F8
03F8
03F8
03F8
03F8
03F8
03F8
03F8
03F8
03F8
03F8
03F8
03F8
03F8
03F8
03F8
ENDCHAR
STARTCHAR ordmasculine
ENCODING 186
SWIDTH 276 0
DWIDTH 20 0
BBX 18 25 1 26
BITMAP
03F800
07FE00
0FFF00
1FFF00
3FFF80
3FFF80
7FBF80
7F1FC0
7F1FC0
7F1FC0
FF1FC0
FE1FC0
FE1FC0
FE1FC0
FE1FC0
FE3FC0
FE3F80
FE3F80
7F3F80
7FFF00
7FFF00
3FFE00
3FFE00
1FFC00
07F000
ENDCHAR
STARTCHAR guillemotright
ENCODING 187
SWIDTH 478 0
DWIDTH 34 0
BBX 31 31 1 0
BITMAP
01000400
07001C00
3F80FE00
FFC3FF00
7FC1FF80
3FE0FF80
3FF07FC0
1FF07FC0
0FF83FE0
0FF83FF0
07FC1FF0
07FC0FF8
03FE0FF8
03FE07FC
01FF07FC
01FF07FE
01FF87FE
03FF07FC
03FE0FF8
07FC1FF8
07FC1FF0
0FF83FE0
0FF03FE0
1FF07FC0
1FE07F80
3FE0FF80
3FC0FF00
7FC1FF00
7F81FE00
1F807E00
01000600
ENDCHAR
STARTCHAR onequarter
ENCODING 188
SWIDTH 771 0
DWIDTH 56 0
BBX 49 50 3 -2
BITMAP
00000000020000
00000000078000
03F800000FC000
03F800001FC000
07F800001FC000
0FF800003F8000
0FF800007F0000
1FF80000FE0000
3FF80001FC0000
3FF80001F80000
7FF80003F80000
FFF80007F00000
3BF8000FE00000
0BF8001FC00000
03F8001FC00000
03F8003F800000
03F8007F000000
03F8007E000000
03F800FE000000
03F801FC000000
03F801F8000000
03F803F803E000
03F807F007FE00
03F80FE00FFE00
03F80FE00FFE00
03F81FC01FFE00
03F81F803FFE00
03F83F803FFC00
03F87F007FFC00
03F87E00FEFC00
0000FE00FEFC00
0001FC01FCFC00
0001F801FCFC00
0003F803F9FC00
0007F003F1FC00
0007F007F1FC00
000FE007FFFF80
000FC00FFFFF80
001FC00FFFFF80
003F8007FFFF80
003F8001FFFF80
007F00007FFF80
007E000001FC00
00FE000001FC00
01FC000001FC00
01FC000001FC00
03F8000001FC00
03F0000001FC00
00F0000001FC00
00100000001C00
ENDCHAR
STARTCHAR onehalf
ENCODING 189
SWIDTH 793 0
DWIDTH 57 0
BBX 51 50 3 -2
BITMAP
00000000020000
00000000078000
03F800000FC000
03F800001FC000
07F800001FC000
0FF800003F8000
0FF800007F0000
1FF80000FE0000
3FF80001FC0000
3FF80001F80000
7FF80003F80000
FFF80007F00000
3BF8000FE00000
0BF8001FC00000
03F8001FC00000
03F8003F800000
03F8007F000000
03F8007E000000
03F800FE000000
03F801FC000000
03F801F8000000
03F803F8007C00
03F807F003FF00
03F80FE007FF80
03F80FE00FFFC0
03F81FC01FFFC0
03F81F803FFFE0
03F83F807FFFE0
03F87F00FF8FE0
03F87E00FF0FE0
0000FE007E0FE0
0001FC003C1FC0
0001F800181FC0
0003F800003F80
0007F000007F80
0007F000007F00
000FE00000FE00
000FC00001FE00
001FC00003FC00
003F800007F800
003F80000FF000
007F00001FE000
007E00003FC000
00FE00007FFFC0
01FC0000FFFFC0
01FC0001FFFFC0
03F80000FFFFC0
03F00000FFFFC0
00F000007FFF80
00100000380000
ENDCHAR
STARTCHAR threequarters
ENCODING 190
SWIDTH 782 0
DWIDTH 56 0
BBX 50 50 3 -2
BITMAP
00000000010000
0000000003C000
03F0000007F000
0FFC00000FE000
3FFE00001FC000
FFFF00003FC000
7FFF80003F8000
7FFF80007F0000
3C3F8000FE0000
183F8001FC0000
007F8001F80000
00FF8003F80000
01FF0007F00000
07FE000FE00000
3FFC000FC00000
7FF8001FC00000
3FFC003F800000
3FFE007F000000
3FFF007E000000
00FF00FE000000
007F01FC000000
007F81F803F000
007F83F803FF00
00FF07F007FF00
FFFF07E00FFF00
FFFF0FE00FFE00
7FFE1FC01FFE00
7FFC1F803FFE00
7FF83F803FFE00
7FE07F007F7E00
0C007E007E7E00
0000FE00FEFE00
0001FC00FCFE00
0001FC01FCFE00
0003F801F8FE00
0003F003F8FE00
0007F003FFFFC0
000FE007FFFFC0
000FC007FFFFC0
001FC003FFFFC0
001F8000FFFFC0
003F80003FFFC0
007F000000FE00
007F000000FE00
00FE000000FE00
00FC000000FE00
01FC000000FE00
03F8000000FE00
0078000000FE00
00100000001E00
ENDCHAR
STARTCHAR questiondown
ENCODING 191
SWIDTH 419 0
DWIDTH 30 0
BBX 29 52 2 -2
BITMAP
0007C000
000FFC00
000FF800
000FF800
000FF800
000FF800
000FF800
000FF800
000FF800
000FF800
000FF800
00003800
00000000
00000000
00000000
0007E000
0003F800
0007F800
0007FC00
0007FC00
000FF800
000FF800
001FF800
003FF000
007FF000
00FFE000
01FFC000
03FF8000
07FF0000
0FFF0000
1FFE0000
1FFC0000
3FF80000
7FF00000
7FE00000
FFC00000
FFC00200
FF800700
FF801F80
FF003FC0
FF007FF0
FF80FFF8
FFC3FFF0
FFFFFFE0
7FFFFFC0
7FFFFF80
3FFFFF00
3FFFFC00
1FFFF800
0FFFE000
03FF8000
00380000
ENDCHAR
STARTCHAR Agrave
ENCODING 192
SWIDTH 516 0
DWIDTH 37 0
BBX 36 70 0 -3
BITMAP
0010000000
003C000000
003F000000
007F800000
00FFE00000
00FFF80000
01FFFC0000
003FFF0000
0007FF0000
0000FE0000
00003C0000
0000080000
0000000000
0000000000
0000000000
0000000000
0000000000
0007800000
0007FFC000
0007FFE000
000FFFE000
000FFFE000
000FFFE000
000FFFE000
001FFFF000
001FFFF000
001FFFF000
001FFFF000
003FFFF000
003FEFF800
003FCFF800
003FCFF800
007FCFF800
007FCFF800
007F8FFC00
007F87FC00
00FF87FC00
00FF87FC00
00FF87FC00
00FF07FE00
01FF07FE00
01FF07FE00
01FF03FE00
01FF03FE00
03FE03FE00
03FE03FF00
03FE03FF00
03FE03FF00
07FE01FF00
07FFFFFF00
07FFFFFF80
07FFFFFF80
0FFFFFFF80
0FFFFFFF80
0FFFFFFF80
0FFFFFFFC0
1FFFC0FFC0
1FF800FFC0
1FF800FFC0
1FF000FFC0
3FF000FFE0
3FF0007FE0
3FF0007FE0
3FF0007FE0
7FE0007FE0
7FE0007FF0
7FE0000FF0
7FE0000000
FFE0000000
7FC0000000
ENDCHAR
STARTCHAR Aacute
ENCODING 193
SWIDTH 516 0
DWIDTH 37 0
BBX 36 70 0 -3
BITMAP
0000001000
0000007000
000001F800
000007FC00
00000FFC00
00003FFE00
0000FFFE00
0003FFF000
0001FF8000
0000FE0000
0000F00000
0000400000
0000000000
0000000000
0000000000
0000000000
0000000000
0007800000
0007FFC000
0007FFE000
000FFFE000
000FFFE000
000FFFE000
000FFFE000
001FFFF000
001FFFF000
001FFFF000
001FFFF000
003FFFF000
003FEFF800
003FCFF800
003FCFF800
007FCFF800
007FCFF800
007F8FFC00
007F87FC00
00FF87FC00
00FF87FC00
00FF87FC00
00FF07FE00
01FF07FE00
01FF07FE00
01FF03FE00
01FF03FE00
03FE03FE00
03FE03FF00
03FE03FF00
03FE03FF00
07FE01FF00
07FFFFFF00
07FFFFFF80
07FFFFFF80
0FFFFFFF80
0FFFFFFF80
0FFFFFFF80
0FFFFFFFC0
1FFFC0FFC0
1FF800FFC0
1FF800FFC0
1FF000FFC0
3FF000FFE0
3FF0007FE0
3FF0007FE0
3FF0007FE0
7FE0007FE0
7FE0007FF0
7FE0000FF0
7FE0000000
FFE0000000
7FC0000000
ENDCHAR
STARTCHAR Acircumflex
ENCODING 194
SWIDTH 516 0
DWIDTH 37 0
BBX 36 69 0 -3
BITMAP
0000FE0000
0001FE0000
0003FF0000
0007FF8000
000FFFC000
001FFFE000
003FFFF000
007FC7F800
00FF03F800
007E01F000
003C00C000
0018000000
0000000000
0000000000
0000000000
0000000000
0007800000
0007FFC000
0007FFE000
000FFFE000
000FFFE000
000FFFE000
000FFFE000
001FFFF000
001FFFF000
001FFFF000
001FFFF000
003FFFF000
003FEFF800
003FCFF800
003FCFF800
007FCFF800
007FCFF800
007F8FFC00
007F87FC00
00FF87FC00
00FF87FC00
00FF87FC00
00FF07FE00
01FF07FE00
01FF07FE00
01FF03FE00
01FF03FE00
03FE03FE00
03FE03FF00
03FE03FF00
03FE03FF00
07FE01FF00
07FFFFFF00
07FFFFFF80
07FFFFFF80
0FFFFFFF80
0FFFFFFF80
0FFFFFFF80
0FFFFFFFC0
1FFFC0FFC0
1FF800FFC0
1FF800FFC0
1FF000FFC0
3FF000FFE0
3FF0007FE0
3FF0007FE0
3FF0007FE0
7FE0007FE0
7FE0007FF0
7FE0000FF0
7FE0000000
FFE0000000
7FC0000000
ENDCHAR
STARTCHAR Atilde
ENCODING 195
SWIDTH 516 0
DWIDTH 37 0
BBX 36 68 0 -3
BITMAP
0001007C00
000FE0FC00
001FFFFC00
003FFFF800
003FFFF800
007FFFF000
007FFFE000
001E3FC000
0008000000
0000000000
0000000000
0000000000
0000000000
0000000000
0000000000
0007800000
0007FFC000
0007FFE000
000FFFE000
000FFFE000
000FFFE000
000FFFE000
001FFFF000
001FFFF000
001FFFF000
001FFFF000
003FFFF000
003FEFF800
003FCFF800
003FCFF800
007FCFF800
007FCFF800
007F8FFC00
007F87FC00
00FF87FC00
00FF87FC00
00FF87FC00
00FF07FE00
01FF07FE00
01FF07FE00
01FF03FE00
01FF03FE00
03FE03FE00
03FE03FF00
03FE03FF00
03FE03FF00
07FE01FF00
07FFFFFF00
07FFFFFF80
07FFFFFF80
0FFFFFFF80
0FFFFFFF80
0FFFFFFF80
0FFFFFFFC0
1FFFC0FFC0
1FF800FFC0
1FF800FFC0
1FF000FFC0
3FF000FFE0
3FF0007FE0
3FF0007FE0
3FF0007FE0
7FE0007FE0
7FE0007FF0
7FE0000FF0
7FE0000000
FFE0000000
7FC0000000
ENDCHAR
STARTCHAR Adieresis
ENCODING 196
SWIDTH 516 0
DWIDTH 37 0
BBX 36 69 0 -3
BITMAP
0000040000
003F87F000
003F87F000
003F87F000
003F87F000
003F87F000
003F87F000
003F87F000
007F8FF000
000F00E000
0000000000
0000000000
0000000000
0000000000
0000000000
0000000000
0007800000
0007FFC000
0007FFE000
000FFFE000
000FFFE000
000FFFE000
000FFFE000
001FFFF000
001FFFF000
001FFFF000
001FFFF000
003FFFF000
003FEFF800
003FCFF800
003FCFF800
007FCFF800
007FCFF800
007F8FFC00
007F87FC00
00FF87FC00
00FF87FC00
00FF87FC00
00FF07FE00
01FF07FE00
01FF07FE00
01FF03FE00
01FF03FE00
03FE03FE00
03FE03FF00
03FE03FF00
03FE03FF00
07FE01FF00
07FFFFFF00
07FFFFFF80
07FFFFFF80
0FFFFFFF80
0FFFFFFF80
0FFFFFFF80
0FFFFFFFC0
1FFFC0FFC0
1FF800FFC0
1FF800FFC0
1FF000FFC0
3FF000FFE0
3FF0007FE0
3FF0007FE0
3FF0007FE0
7FE0007FE0
7FE0007FF0
7FE0000FF0
7FE0000000
FFE0000000
7FC0000000
ENDCHAR
STARTCHAR Aring
ENCODING 197
SWIDTH 516 0
DWIDTH 37 0
BBX 36 71 0 -3
BITMAP
00003E0000
0000FFC000
0001FFE000
0003FFE000
0007E3F000
000FC1F000
000F81F000
000F81F000
000F81F000
000F81F000
000F83F000
000FEFE000
0007FFC000
0003FF8000
0001FF0000
0000180000
0000000000
0000000000
0007800000
0007FFC000
0007FFE000
000FFFE000
000FFFE000
000FFFE000
000FFFE000
001FFFF000
001FFFF000
001FFFF000
001FFFF000
003FFFF000
003FEFF800
003FCFF800
003FCFF800
007FCFF800
007FCFF800
007F8FFC00
007F87FC00
00FF87FC00
00FF87FC00
00FF87FC00
00FF07FE00
01FF07FE00
01FF07FE00
01FF03FE00
01FF03FE00
03FE03FE00
03FE03FF00
03FE03FF00
03FE03FF00
07FE01FF00
07FFFFFF00
07FFFFFF80
07FFFFFF80
0FFFFFFF80
0FFFFFFF80
0FFFFFFF80
0FFFFFFFC0
1FFFC0FFC0
1FF800FFC0
1FF800FFC0
1FF000FFC0
3FF000FFE0
3FF0007FE0
3FF0007FE0
3FF0007FE0
7FE0007FE0
7FE0007FF0
7FE0000FF0
7FE0000000
FFE0000000
7FC0000000
ENDCHAR
STARTCHAR AE
ENCODING 198
SWIDTH 667 0
DWIDTH 48 0
BBX 49 53 0 -3
BITMAP
00007000000500
0000FFFFFFFF00
0000FFFFFFFF00
0000FFFFFFFF00
0001FFFFFFFF00
0001FFFFFFFF00
0001FFFFFFFF00
0003FFFFFFFF00
0003FFFFFFFF00
0003FFFFFE0000
0007FFFF800000
0007FEFF800000
0007FFFF800000
0007FDFF800000
000FFDFF800000
000FFDFF800000
000FF9FF800000
001FF9FF800000
001FF9FF800000
001FF1FF800000
003FF1FF800000
003FF1FF80FC00
003FE1FFFFFC00
007FE1FFFFFC00
007FE1FFFFFC00
007FE1FFFFFC00
00FFC1FFFFFE00
00FFC1FFFFFE00
00FFC1FFFFFE00
01FF81FFFF8000
01FF81FF800000
01FF81FF800000
03FFFFFF800000
03FFFFFF800000
03FFFFFF800000
03FFFFFF800000
07FFFFFF800000
07FFFFFF800000
07FFFFFF800000
0FFFE1FF800000
0FFC01FF800000
0FFC01FF803F00
1FFC01FF9FFF00
1FF801FFFFFF00
1FF801FFFFFF00
3FF801FFFFFF00
3FF001FFFFFF80
3FF001FFFFFF80
7FF001FFFFFF80
7FE001FFFFFC00
7FE0007FFFE000
FFE00000000000
7FE00000000000
ENDCHAR
STARTCHAR Ccedilla
ENCODING 199
SWIDTH 482 0
DWIDTH 35 0
BBX 32 68 2 -17
BITMAP
0000E000
0007FE00
001FFF80
003FFFC0
007FFFE0
00FFFFE0
01FFFFF0
03FFFFF0
03FFFFF8
07FFFFF8
07FE1FF8
0FFC0FF8
0FFC0FFC
1FF80FFC
1FF807FC
1FF007FC
3FF007FC
3FF007FC
3FF007FC
7FE007FC
7FE007FC
7FE007FC
7FC007FC
7FC00000
FFC00000
FFC00000
FFC00000
FFC00000
FFC00000
FFC00000
FF800000
FF800000
FF800000
FF800000
FFC001E0
FFC003FF
FFC003FF
FFC003FE
FFC003FE
7FE007FE
7FE007FC
7FF00FFC
7FF01FFC
3FFC3FF8
3FFFFFF8
1FFFFFF0
1FFFFFF0
0FFFFFE0
07FFFFC0
03FFFF80
01FFFF00
007FFE00
001FF000
00078000
00078000
0007A000
000FFC00
000FFF00
000FFF00
000FFF80
00023F80
01001F80
01C01F80
03F03F00
03FFFF00
01FFFE00
007FFC00
00078000
ENDCHAR
STARTCHAR Egrave
ENCODING 200
SWIDTH 447 0
DWIDTH 32 0
BBX 26 68 5 -1
BITMAP
08000000
1E000000
1F800000
3FC00000
7FF00000
7FFC0000
FFFE0000
1FFF8000
03FF8000
007F0000
001E0000
00040000
00000000
00000000
00000000
00000000
00000000
00000380
00FFFF80
7FFFFF80
7FFFFF80
7FFFFF80
7FFFFF80
7FFFFF80
7FFFFF80
7FFFFF80
7FFF8000
7FC00000
7FC00000
7FC00000
7FC00000
FFC00000
FFC00000
FFC00000
FFC00000
FFC00000
FFC00000
FFC00000
FFC03E00
FFFFFE00
FFFFFE00
FFFFFE00
FFFFFF00
FFFFFF00
FFFFFF00
FFFFFF00
FFFFC000
FFC00000
FFC00000
FFC00000
FFC00000
FFC00000
FFC00000
FFC00000
FFC00000
FFC00000
FFC00000
FFC00000
FFC01F80
FFCFFF80
FFFFFF80
FFFFFF80
FFFFFF80
FFFFFFC0
FFFFFFC0
FFFFFFC0
FFFFFE00
1FFFF000
ENDCHAR
STARTCHAR Eacute
ENCODING 201
SWIDTH 447 0
DWIDTH 32 0
BBX 26 68 5 -1
BITMAP
00000800
00003800
0000FC00
0003FE00
000FFE00
001FFF00
007FFF00
01FFF800
00FFC000
007F0000
00780000
00200000
00000000
00000000
00000000
00000000
00000000
00000380
00FFFF80
7FFFFF80
7FFFFF80
7FFFFF80
7FFFFF80
7FFFFF80
7FFFFF80
7FFFFF80
7FFF8000
7FC00000
7FC00000
7FC00000
7FC00000
FFC00000
FFC00000
FFC00000
FFC00000
FFC00000
FFC00000
FFC00000
FFC03E00
FFFFFE00
FFFFFE00
FFFFFE00
FFFFFF00
FFFFFF00
FFFFFF00
FFFFFF00
FFFFC000
FFC00000
FFC00000
FFC00000
FFC00000
FFC00000
FFC00000
FFC00000
FFC00000
FFC00000
FFC00000
FFC00000
FFC01F80
FFCFFF80
FFFFFF80
FFFFFF80
FFFFFF80
FFFFFFC0
FFFFFFC0
FFFFFFC0
FFFFFE00
1FFFF000
ENDCHAR
STARTCHAR Ecircumflex
ENCODING 202
SWIDTH 447 0
DWIDTH 32 0
BBX 26 67 5 -1
BITMAP
001FC000
003FE000
007FF000
00FFF000
01FFF800
03FFFC00
07FDFE00
0FF8FF00
1FE07F00
0FC03E00
07801800
03000000
00000000
00000000
00000000
00000000
00000380
00FFFF80
7FFFFF80
7FFFFF80
7FFFFF80
7FFFFF80
7FFFFF80
7FFFFF80
7FFFFF80
7FFF8000
7FC00000
7FC00000
7FC00000
7FC00000
FFC00000
FFC00000
FFC00000
FFC00000
FFC00000
FFC00000
FFC00000
FFC03E00
FFFFFE00
FFFFFE00
FFFFFE00
FFFFFF00
FFFFFF00
FFFFFF00
FFFFFF00
FFFFC000
FFC00000
FFC00000
FFC00000
FFC00000
FFC00000
FFC00000
FFC00000
FFC00000
FFC00000
FFC00000
FFC00000
FFC01F80
FFCFFF80
FFFFFF80
FFFFFF80
FFFFFF80
FFFFFFC0
FFFFFFC0
FFFFFFC0
FFFFFE00
1FFFF000
ENDCHAR
STARTCHAR Edieresis
ENCODING 203
SWIDTH 447 0
DWIDTH 32 0
BBX 26 67 5 -1
BITMAP
00008000
07F0FE00
07F0FE00
07F0FE00
07F0FE00
07F0FE00
07F0FE00
07F0FE00
07F0FE00
0BF01E00
00000000
00000000
00000000
00000000
00000000
00000000
00000380
00FFFF80
7FFFFF80
7FFFFF80
7FFFFF80
7FFFFF80
7FFFFF80
7FFFFF80
7FFFFF80
7FFF8000
7FC00000
7FC00000
7FC00000
7FC00000
FFC00000
FFC00000
FFC00000
FFC00000
FFC00000
FFC00000
FFC00000
FFC03E00
FFFFFE00
FFFFFE00
FFFFFE00
FFFFFF00
FFFFFF00
FFFFFF00
FFFFFF00
FFFFC000
FFC00000
FFC00000
FFC00000
FFC00000
FFC00000
FFC00000
FFC00000
FFC00000
FFC00000
FFC00000
FFC00000
FFC01F80
FFCFFF80
FFFFFF80
FFFFFF80
FFFFFF80
FFFFFFC0
FFFFFFC0
FFFFFFC0
FFFFFE00
1FFFF000
ENDCHAR
STARTCHAR Igrave
ENCODING 204
SWIDTH 289 0
DWIDTH 21 0
BBX 18 69 -1 -2
BITMAP
080000
1E0000
1F8000
3FC000
7FF000
7FFC00
FFFE00
1FFF80
03FF80
007F00
001E00
000400
000000
000000
000000
000000
00C000
00FFC0
00FFC0
00FFC0
00FFC0
00FFC0
00FFC0
00FF80
00FF80
00FF80
00FF80
00FF80
00FF80
00FF80
00FF80
01FF80
01FF80
01FF80
01FF80
01FF80
01FF80
01FF80
01FF80
01FF80
01FF80
01FF80
01FF80
01FF80
01FF80
01FF80
01FF80
01FF80
01FF80
01FF80
00FF80
00FF80
00FF80
00FF80
00FF80
00FF80
00FF80
00FF80
00FF80
00FF80
00FFC0
00FFC0
00FFC0
00FFC0
00FFC0
00FFC0
00FFC0
00FFC0
0003C0
ENDCHAR
STARTCHAR Iacute
ENCODING 205
SWIDTH 289 0
DWIDTH 21 0
BBX 17 69 6 -2
BITMAP
000400
001C00
007E00
01FF00
03FF00
0FFF80
3FFF80
FFFC00
7FE000
3F8000
1C0000
100000
000000
000000
000000
000000
600000
7FE000
7FE000
7FE000
7FE000
7FE000
7FE000
7FC000
7FC000
7FC000
7FC000
7FC000
7FC000
7FC000
7FC000
FFC000
FFC000
FFC000
FFC000
FFC000
FFC000
FFC000
FFC000
FFC000
FFC000
FFC000
FFC000
FFC000
FFC000
FFC000
FFC000
FFC000
FFC000
FFC000
7FC000
7FC000
7FC000
7FC000
7FC000
7FC000
7FC000
7FC000
7FC000
7FC000
7FE000
7FE000
7FE000
7FE000
7FE000
7FE000
7FE000
7FE000
01E000
ENDCHAR
STARTCHAR Icircumflex
ENCODING 206
SWIDTH 289 0
DWIDTH 21 0
BBX 22 68 1 -2
BITMAP
00FE00
01FF00
03FF80
07FFC0
0FFFE0
1FFFE0
3FEFF0
3FC7F8
FF83FC
7E01F0
3C0060
080000
000000
000000
000000
030000
03FF00
03FF00
03FF00
03FF00
03FF00
03FF00
03FE00
03FE00
03FE00
03FE00
03FE00
03FE00
03FE00
03FE00
07FE00
07FE00
07FE00
07FE00
07FE00
07FE00
07FE00
07FE00
07FE00
07FE00
07FE00
07FE00
07FE00
07FE00
07FE00
07FE00
07FE00
07FE00
07FE00
03FE00
03FE00
03FE00
03FE00
03FE00
03FE00
03FE00
03FE00
03FE00
03FE00
03FF00
03FF00
03FF00
03FF00
03FF00
03FF00
03FF00
03FF00
000F00
ENDCHAR
STARTCHAR Idieresis
ENCODING 207
SWIDTH 289 0
DWIDTH 21 0
BBX 19 68 3 -2
BITMAP
001000
FE1FC0
FE0FE0
FE0FE0
FF1FE0
FF1FE0
FF1FE0
FE1FE0
FE1FC0
3E03C0
000000
000000
000000
000000
000000
0C0000
0FFC00
0FFC00
0FFC00
0FFC00
0FFC00
0FFC00
0FF800
0FF800
0FF800
0FF800
0FF800
0FF800
0FF800
0FF800
1FF800
1FF800
1FF800
1FF800
1FF800
1FF800
1FF800
1FF800
1FF800
1FF800
1FF800
1FF800
1FF800
1FF800
1FF800
1FF800
1FF800
1FF800
1FF800
0FF800
0FF800
0FF800
0FF800
0FF800
0FF800
0FF800
0FF800
0FF800
0FF800
0FFC00
0FFC00
0FFC00
0FFC00
0FFC00
0FFC00
0FFC00
0FFC00
003C00
ENDCHAR
STARTCHAR Eth
ENCODING 208
SWIDTH 512 0
DWIDTH 37 0
BBX 34 51 1 -1
BITMAP
00FFFC0000
07FFFF0000
1FFFFFC000
1FFFFFE000
1FFFFFF000
1FFFFFF800
0FFFFFF800
0FFFFFFC00
0FFC3FFE00
0FF80FFE00
0FF807FE00
0FF807FF00
0FF803FF00
0FF803FF80
0FF801FF80
0FF801FF80
0FF800FF80
0FF800FF80
0FF800FFC0
0FFC00FFC0
0FFC00FFC0
FFFFE0FFC0
FFFFE0FFC0
FFFFE0FFC0
FFFFE0FFC0
FFFFE0FFC0
FFFFE0FF80
7FFFE0FF80
7FFFF0FF80
0FFC00FF80
0FFC00FF80
0FF801FF80
0FF801FF00
0FF801FF00
0FF803FF00
0FF803FF00
0FF807FE00
0FF807FE00
0FF80FFC00
1FF81FFC00
1FF83FF800
1FF87FF800
1FFFFFF000
1FFFFFE000
1FFFFFC000
1FFFFF8000
1FFFFF0000
1FFFFE0000
1FFFFC0000
1FFFF00000
03FF800000
ENDCHAR
STARTCHAR Ntilde
ENCODING 209
SWIDTH 544 0
DWIDTH 39 0
BBX 32 67 4 -2
BITMAP
000C03E0
007F07E0
00FFFFE0
01FFFFC0
01FFFFC0
03FFFF80
03FFFF00
01F1FE00
00400000
00000000
00000000
00000000
00000000
00000000
000001FF
000001FF
000001FF
3E0001FF
7FE001FF
7FF001FF
7FF001FF
7FF801FF
7FF801FF
7FF801FF
7FFC01FF
7FFC01FF
7FFC01FF
7FFE01FF
7FFE00FF
7FFF00FF
7FFF00FF
7FFF00FF
FFFF80FF
FFFF80FF
FF7FC0FF
FF7FC0FF
FF3FE0FF
FF1FE0FF
FF1FE0FF
FF0FF0FF
FF0FF0FF
FF07F8FF
FF07F8FF
FF03FCFF
FF03FCFF
FF01FEFF
FF01FEFF
FF00FFFF
FF00FFFF
FF00FFFF
FF007FFF
FF007FFF
FF003FFF
FF003FFF
FF001FFF
FF001FFF
FF000FFF
FF000FFF
FF0007FF
FF0007FF
FF0003FF
FF0003FF
FF0003FF
FF0001FF
FF0001FF
FF000001
3F000000
ENDCHAR
STARTCHAR Ograve
ENCODING 210
SWIDTH 521 0
DWIDTH 38 0
BBX 34 69 2 -2
BITMAP
0040000000
00F0000000
00FC000000
01FF000000
01FF800000
03FFE00000
07FFF80000
007FFE0000
000FFC0000
0003F80000
0000F00000
0000100000
0000000000
0000000000
0000000000
0000000000
0001F80000
000FFF0000
001FFF8000
007FFFE000
00FFFFF000
01FFFFF800
01FFFFF800
03FFFFFC00
07FFFFFE00
07FF0FFE00
0FFE07FF00
0FFC03FF00
1FF803FF00
1FF801FF80
1FF001FF80
3FF001FF80
3FF000FF80
3FE000FF80
7FE000FFC0
7FE000FFC0
7FE000FFC0
7FC000FFC0
7FC000FFC0
7FC000FFC0
7FC000FFC0
7FC000FFC0
FFC000FFC0
FFC000FFC0
FFC000FFC0
FFC000FFC0
FFC000FFC0
7FC000FFC0
7FC000FF80
7FC000FF80
7FC000FF80
7FC001FF80
7FE001FF80
7FE001FF00
7FE003FF00
3FE003FF00
3FF003FE00
3FF007FE00
1FF807FC00
1FFC0FFC00
1FFE1FF800
0FFFFFF800
07FFFFF000
07FFFFE000
03FFFFE000
01FFFFC000
00FFFF0000
003FFE0000
000FF80000
ENDCHAR
STARTCHAR Oacute
ENCODING 211
SWIDTH 521 0
DWIDTH 38 0
BBX 34 69 2 -2
BITMAP
0000004000
000001E000
000007E000
00001FF000
00003FF000
0000FFF800
0001FFFC00
0007FFC000
0007FF0000
0003F80000
0001E00000
0000800000
0000000000
0000000000
0000000000
0000000000
0001F80000
000FFF0000
001FFF8000
007FFFE000
00FFFFF000
01FFFFF800
01FFFFF800
03FFFFFC00
07FFFFFE00
07FF0FFE00
0FFE07FF00
0FFC03FF00
1FF803FF00
1FF801FF80
1FF001FF80
3FF001FF80
3FF000FF80
3FE000FF80
7FE000FFC0
7FE000FFC0
7FE000FFC0
7FC000FFC0
7FC000FFC0
7FC000FFC0
7FC000FFC0
7FC000FFC0
FFC000FFC0
FFC000FFC0
FFC000FFC0
FFC000FFC0
FFC000FFC0
7FC000FFC0
7FC000FF80
7FC000FF80
7FC000FF80
7FC001FF80
7FE001FF80
7FE001FF00
7FE003FF00
3FE003FF00
3FF003FE00
3FF007FE00
1FF807FC00
1FFC0FFC00
1FFE1FF800
0FFFFFF800
07FFFFF000
07FFFFE000
03FFFFE000
01FFFFC000
00FFFF0000
003FFE0000
000FF80000
ENDCHAR
STARTCHAR Ocircumflex
ENCODING 212
SWIDTH 521 0
DWIDTH 38 0
BBX 34 68 2 -2
BITMAP
0001FC0000
0003FC0000
0007FE0000
000FFF0000
001FFF8000
003FFFC000
007FFFE000
00FF8FF000
01FE07F000
00FC03E000
0078018000
0030000000
0000000000
0000000000
0000000000
0001F80000
000FFF0000
001FFF8000
007FFFE000
00FFFFF000
01FFFFF800
01FFFFF800
03FFFFFC00
07FFFFFE00
07FF0FFE00
0FFE07FF00
0FFC03FF00
1FF803FF00
1FF801FF80
1FF001FF80
3FF001FF80
3FF000FF80
3FE000FF80
7FE000FFC0
7FE000FFC0
7FE000FFC0
7FC000FFC0
7FC000FFC0
7FC000FFC0
7FC000FFC0
7FC000FFC0
FFC000FFC0
FFC000FFC0
FFC000FFC0
FFC000FFC0
FFC000FFC0
7FC000FFC0
7FC000FF80
7FC000FF80
7FC000FF80
7FC001FF80
7FE001FF80
7FE001FF00
7FE003FF00
3FE003FF00
3FF003FE00
3FF007FE00
1FF807FC00
1FFC0FFC00
1FFE1FF800
0FFFFFF800
07FFFFF000
07FFFFE000
03FFFFE000
01FFFFC000
00FFFF0000
003FFE0000
000FF80000
ENDCHAR
STARTCHAR Otilde
ENCODING 213
SWIDTH 521 0
DWIDTH 38 0
BBX 34 67 2 -2
BITMAP
000600F000
003F81F000
007FFFF000
007FFFF000
00FFFFE000
01FFFFC000
01FFFFC000
00787F8000
0010000000
0000000000
0000000000
0000000000
0000000000
0000000000
0001F80000
000FFF0000
001FFF8000
007FFFE000
00FFFFF000
01FFFFF800
01FFFFF800
03FFFFFC00
07FFFFFE00
07FF0FFE00
0FFE07FF00
0FFC03FF00
1FF803FF00
1FF801FF80
1FF001FF80
3FF001FF80
3FF000FF80
3FE000FF80
7FE000FFC0
7FE000FFC0
7FE000FFC0
7FC000FFC0
7FC000FFC0
7FC000FFC0
7FC000FFC0
7FC000FFC0
FFC000FFC0
FFC000FFC0
FFC000FFC0
FFC000FFC0
FFC000FFC0
7FC000FFC0
7FC000FF80
7FC000FF80
7FC000FF80
7FC001FF80
7FE001FF80
7FE001FF00
7FE003FF00
3FE003FF00
3FF003FE00
3FF007FE00
1FF807FC00
1FFC0FFC00
1FFE1FF800
0FFFFFF800
07FFFFF000
07FFFFE000
03FFFFE000
01FFFFC000
00FFFF0000
003FFE0000
000FF80000
ENDCHAR
STARTCHAR Odieresis
ENCODING 214
SWIDTH 521 0
DWIDTH 38 0
BBX 34 68 2 -2
BITMAP
0000100000
00FE1FC000
00FE1FC000
00FE1FC000
00FE1FE000
00FE1FE000
00FE1FE000
00FE1FC000
00FE1FC000
003E03C000
0000000000
0000000000
0000000000
0000000000
0000000000
0001F80000
000FFF0000
001FFF8000
007FFFE000
00FFFFF000
01FFFFF800
01FFFFF800
03FFFFFC00
07FFFFFE00
07FF0FFE00
0FFE07FF00
0FFC03FF00
1FF803FF00
1FF801FF80
1FF001FF80
3FF001FF80
3FF000FF80
3FE000FF80
7FE000FFC0
7FE000FFC0
7FE000FFC0
7FC000FFC0
7FC000FFC0
7FC000FFC0
7FC000FFC0
7FC000FFC0
FFC000FFC0
FFC000FFC0
FFC000FFC0
FFC000FFC0
FFC000FFC0
7FC000FFC0
7FC000FF80
7FC000FF80
7FC000FF80
7FC001FF80
7FE001FF80
7FE001FF00
7FE003FF00
3FE003FF00
3FF003FE00
3FF007FE00
1FF807FC00
1FFC0FFC00
1FFE1FF800
0FFFFFF800
07FFFFF000
07FFFFE000
03FFFFE000
01FFFFC000
00FFFF0000
003FFE0000
000FF80000
ENDCHAR
STARTCHAR multiply
ENCODING 215
SWIDTH 833 0
DWIDTH 60 0
BBX 43 41 9 1
BITMAP
030000000400
078000001E00
1F8000003F00
3FC000007F00
FFE00000FF80
7FF00001FFC0
3FF80007FFE0
1FFC000FFFC0
0FFE001FFF00
07FF003FFE00
03FF807FFC00
01FFC0FFF800
00FFE1FFF000
00FFF3FFE000
007FFFFF8000
003FFFFF0000
001FFFFE0000
000FFFFC0000
0007FFF80000
0003FFF00000
0001FFE00000
0003FFF00000
0007FFF80000
000FFFFC0000
001FFFFE0000
003FFFFF0000
007FFBFF8000
00FFF1FFC000
01FFE0FFF000
03FFC07FF800
03FF803FFC00
07FF001FFE00
0FFE000FFF00
1FFC0007FF80
3FFC0003FFC0
7FF00001FFC0
3FE00001FF80
1FC00000FF00
0F8000007E00
070000003C00
020000001800
ENDCHAR
STARTCHAR Oslash
ENCODING 216
SWIDTH 521 0
DWIDTH 38 0
BBX 47 59 -5 -7
BITMAP
000000000030
000003F0007C
00001FFE00FE
00003FFF01FE
0000FFFFC1FC
0001FFFFE3F8
0003FFFFF7F0
0003FFFFFFE0
0007FFFFFFC0
000FFFFFFF80
000FFC0FFF80
001FF807FF00
001FF807FE00
003FF003FE00
003FE003FF00
003FE003FF00
007FE007FF00
007FC00FFF00
007FC00FFF00
00FFC01FFF80
00FFC03FFF80
00FF807EFF80
00FF807CFF80
00FF80FCFF80
00FF81F8FF80
00FF83F0FF80
00FF83E0FF80
01FF87C0FF80
01FF8FC0FF80
01FF9F80FF80
01FF9F00FF80
01FFBF01FF80
00FFFE01FF80
00FFFC01FF00
00FFF801FF00
00FFF801FF00
00FFF001FF00
00FFE003FF00
00FFE003FE00
00FFC003FE00
007FC007FE00
007FE007FC00
007FE00FFC00
007FF00FFC00
00FFF01FF800
00FFFC3FF000
01FFFFFFF000
03FFFFFFE000
03FFFFFFC000
07E7FFFFC000
0FE3FFFF8000
0FC1FFFF0000
1F807FFC0000
3F803FF00000
7F0000000000
7F0000000000
FE0000000000
3C0000000000
040000000000
ENDCHAR
STARTCHAR Ugrave
ENCODING 217
SWIDTH 539 0
DWIDTH 39 0
BBX 32 68 4 -1
BITMAP
00800000
01E00000
03F80000
03FC0000
07FF0000
07FFC000
0FFFE000
01FFF800
003FF800
0007F000
0001E000
00004000
00000000
00000000
00000000
00000000
00000400
000007FE
7FC007FE
7FE007FE
7FE007FE
7FE007FE
7FE007FE
7FE007FE
7FE007FE
7FE007FE
7FE003FE
7FE003FE
7FC003FE
7FC003FE
FFC003FF
FFC003FF
FFC003FF
FFC003FF
FFC003FF
FFC003FF
FFC003FF
FFC003FF
FFC003FF
FFC003FF
FFC003FF
FFC003FF
FFC003FF
FFC003FF
FFC003FF
FFC003FF
FFC003FF
FFC003FE
FFC007FE
FFC007FE
FFC007FE
FFC007FE
FFC007FE
FFC007FC
FFC00FFC
7FE00FFC
7FE00FF8
7FF01FF8
3FF83FF8
3FFC7FF0
1FFFFFF0
1FFFFFE0
0FFFFFE0
07FFFFC0
03FFFF80
01FFFF00
007FFC00
001FF000
ENDCHAR
STARTCHAR Uacute
ENCODING 218
SWIDTH 539 0
DWIDTH 39 0
BBX 32 68 4 -1
BITMAP
00000080
00000380
00000FC0
00003FC0
0000FFE0
0001FFF0
0007FFF0
001FFF80
000FFC00
0007F000
00078000
00020000
00000000
00000000
00000000
00000000
00000400
000007FE
7FC007FE
7FE007FE
7FE007FE
7FE007FE
7FE007FE
7FE007FE
7FE007FE
7FE007FE
7FE003FE
7FE003FE
7FC003FE
7FC003FE
FFC003FF
FFC003FF
FFC003FF
FFC003FF
FFC003FF
FFC003FF
FFC003FF
FFC003FF
FFC003FF
FFC003FF
FFC003FF
FFC003FF
FFC003FF
FFC003FF
FFC003FF
FFC003FF
FFC003FF
FFC003FE
FFC007FE
FFC007FE
FFC007FE
FFC007FE
FFC007FE
FFC007FC
FFC00FFC
7FE00FFC
7FE00FF8
7FF01FF8
3FF83FF8
3FFC7FF0
1FFFFFF0
1FFFFFE0
0FFFFFE0
07FFFFC0
03FFFF80
01FFFF00
007FFC00
001FF000
ENDCHAR
STARTCHAR Ucircumflex
ENCODING 219
SWIDTH 539 0
DWIDTH 39 0
BBX 32 67 4 -1
BITMAP
0007E000
000FF000
001FF800
003FFC00
007FFE00
00FFFF00
01FFFF80
03FC7FC0
07F81FC0
03F00F00
01E00600
00800000
00000000
00000000
00000000
00000400
000007FE
7FC007FE
7FE007FE
7FE007FE
7FE007FE
7FE007FE
7FE007FE
7FE007FE
7FE007FE
7FE003FE
7FE003FE
7FC003FE
7FC003FE
FFC003FF
FFC003FF
FFC003FF
FFC003FF
FFC003FF
FFC003FF
FFC003FF
FFC003FF
FFC003FF
FFC003FF
FFC003FF
FFC003FF
FFC003FF
FFC003FF
FFC003FF
FFC003FF
FFC003FF
FFC003FE
FFC007FE
FFC007FE
FFC007FE
FFC007FE
FFC007FE
FFC007FC
FFC00FFC
7FE00FFC
7FE00FF8
7FF01FF8
3FF83FF8
3FFC7FF0
1FFFFFF0
1FFFFFE0
0FFFFFE0
07FFFFC0
03FFFF80
01FFFF00
007FFC00
001FF000
ENDCHAR
STARTCHAR Udieresis
ENCODING 220
SWIDTH 539 0
DWIDTH 39 0
BBX 32 67 4 -1
BITMAP
00002000
01FC1F80
01FC1FC0
00FE1FC0
01FE1FC0
01FE1FC0
01FE3FC0
01FE3FC0
01FC3F80
007C0380
00000000
00000000
00000000
00000000
00000000
00000400
000007FE
7FC007FE
7FE007FE
7FE007FE
7FE007FE
7FE007FE
7FE007FE
7FE007FE
7FE007FE
7FE003FE
7FE003FE
7FC003FE
7FC003FE
FFC003FF
FFC003FF
FFC003FF
FFC003FF
FFC003FF
FFC003FF
FFC003FF
FFC003FF
FFC003FF
FFC003FF
FFC003FF
FFC003FF
FFC003FF
FFC003FF
FFC003FF
FFC003FF
FFC003FF
FFC003FE
FFC007FE
FFC007FE
FFC007FE
FFC007FE
FFC007FE
FFC007FC
FFC00FFC
7FE00FFC
7FE00FF8
7FF01FF8
3FF83FF8
3FFC7FF0
1FFFFFF0
1FFFFFE0
0FFFFFE0
07FFFFC0
03FFFF80
01FFFF00
007FFC00
001FF000
ENDCHAR
STARTCHAR Yacute
ENCODING 221
SWIDTH 444 0
DWIDTH 32 0
BBX 33 69 1 -2
BITMAP
0000010000
0000078000
00000FC000
00003FC000
0000FFE000
0003FFE000
0007FFF000
001FFF8000
001FFC0000
000FE00000
0007800000
0002000000
0000000000
0000000000
0000000000
0000000000
0000007F80
000000FF80
000000FF80
FC0000FF00
FF8001FF00
7F8001FF00
7FC001FE00
7FC003FE00
7FC003FC00
3FE003FC00
3FE007FC00
3FE007F800
1FF00FF800
1FF00FF000
1FF00FF000
0FF81FF000
0FF81FE000
0FF83FE000
07FC3FC000
07FC7FC000
03FE7F8000
03FEFF8000
03FEFF8000
01FFFF0000
01FFFF0000
00FFFE0000
00FFFE0000
007FFC0000
007FFC0000
003FF80000
003FF80000
003FF80000
001FF80000
001FF80000
001FF80000
001FF80000
001FF00000
001FF00000
001FF00000
001FF00000
001FF00000
001FF00000
001FF00000
001FF00000
001FF00000
001FF00000
001FF00000
001FF80000
001FF80000
001FF80000
001FF80000
001FF80000
0000080000
ENDCHAR
STARTCHAR Thorn
ENCODING 222
SWIDTH 465 0
DWIDTH 33 0
BBX 29 53 5 -2
BITMAP
60000000
7FC00000
FFC00000
FFC00000
FFC00000
FFC00000
FFC00000
FFC00000
FFFF0000
FFFFE000
FFFFF800
FFFFFC00
FFFFFF00
FFFFFF80
FFFFFFC0
FFFFFFC0
FFFFFFE0
FFC0FFF0
FFC07FF0
FFC03FF0
FFC03FF8
FFC01FF8
FFC01FF8
FFC01FF8
FFC01FF8
FFC01FF8
FFC01FF8
FFC01FF8
FFC01FF8
FFC03FF8
FFC03FF0
FFC07FF0
FFC0FFE0
FFC1FFE0
FFC3FFC0
FFCFFF80
FFFFFF80
FFFFFF00
FFFFFE00
FFFFF800
FFFFF000
FFFFC000
FFFF8000
FFFC0000
FFE00000
7FC00000
7FC00000
7FC00000
7FC00000
7FC00000
7FC00000
7FE00000
01E00000
ENDCHAR
STARTCHAR germandbls
ENCODING 223
SWIDTH 475 0
DWIDTH 34 0
BBX 31 55 1 -2
BITMAP
0007E000
001FFC00
003FFE00
007FFF00
00FFFF80
00FFFFC0
01FFFFC0
03FFFFE0
03FE3FE0
03FC1FE0
07FC1FF0
07F80FF0
07F80FF0
07F80FF0
07F80FF0
0FF00FF0
0FF00FF0
0FF00FF0
0FF00FF0
0FF01FF0
0FF01FE0
0FF03FE0
0FF03FC0
0FF07FC0
3FF0FF80
FFF0FF00
FFF0FF00
7FF1FE00
7FF1FE00
7FF1FE00
7FF1FF00
0FF1FF00
0FF1FF80
0FF0FFC0
0FF0FFE0
0FF07FF0
0FF07FF0
0FF03FF8
0FF01FFC
0FF00FFC
0FF007FE
0FF003FE
0FF001FE
07F001FE
07F001FE
07F801FE
07F803FE
07F83FFE
07F87FFC
07F87FFC
07F8FFF8
07F9FFF8
07F8FFF0
03F83FC0
00000600
ENDCHAR
STARTCHAR agrave
ENCODING 224
SWIDTH 390 0
DWIDTH 28 0
BBX 23 51 2 -2
BITMAP
040000
070000
0FC000
1FF000
1FF800
3FFE00
3FFF80
07FFE0
00FFC0
003F80
000F80
000100
000000
000000
001E00
00FFC0
01FFE0
03FFF0
07FFF8
0FFFF8
0FFFFC
1FFFFC
1FE7FC
3FC3FC
3F83FE
3F81FE
3F01FE
7F01FE
0001FE
0001FE
003FFE
01FFFE
03FFFE
0FFFFE
1FFFFE
3FFFFE
7FFDFE
7FE1FE
7F83FE
FF03FE
FF03FE
FF03FE
FF03FE
7FFFFC
7FFFFC
7FFFFC
3FFFFC
1FFFFC
0FFCFC
01C0FC
000004
ENDCHAR
STARTCHAR aacute
ENCODING 225
SWIDTH 390 0
DWIDTH 28 0
BBX 26 51 2 -2
BITMAP
00000400
00001E00
00007E00
0000FF00
0003FF80
000FFF80
001FFFC0
007FFE00
007FF000
003F8000
001E0000
00080000
00000000
00000000
001E0000
00FFC000
01FFE000
03FFF000
07FFF800
0FFFF800
0FFFFC00
1FFFFC00
1FE7FC00
3FC3FC00
3F83FE00
3F81FE00
3F01FE00
7F01FE00
0001FE00
0001FE00
003FFE00
01FFFE00
03FFFE00
0FFFFE00
1FFFFE00
3FFFFE00
7FFDFE00
7FE1FE00
7F83FE00
FF03FE00
FF03FE00
FF03FE00
FF03FE00
7FFFFC00
7FFFFC00
7FFFFC00
3FFFFC00
1FFFFC00
0FFCFC00
01C0FC00
00000400
ENDCHAR
STARTCHAR acircumflex
ENCODING 226
SWIDTH 390 0
DWIDTH 28 0
BBX 24 50 2 -2
BITMAP
003F80
007FC0
00FFE0
01FFF0
03FFF0
07FFF8
0FFBFC
0FF1FE
3FE0FF
1F807C
0F0038
020000
000000
001E00
00FFC0
01FFE0
03FFF0
07FFF8
0FFFF8
0FFFFC
1FFFFC
1FE7FC
3FC3FC
3F83FE
3F81FE
3F01FE
7F01FE
0001FE
0001FE
003FFE
01FFFE
03FFFE
0FFFFE
1FFFFE
3FFFFE
7FFDFE
7FE1FE
7F83FE
FF03FE
FF03FE
FF03FE
FF03FE
7FFFFC
7FFFFC
7FFFFC
3FFFFC
1FFFFC
0FFCFC
01C0FC
000004
ENDCHAR
STARTCHAR atilde
ENCODING 227
SWIDTH 390 0
DWIDTH 28 0
BBX 25 49 2 -2
BITMAP
00600F80
01F81F00
03FFFF00
07FFFF00
0FFFFE00
1FFFFE00
1FFFFC00
0787F800
01000000
00000000
00000000
00000000
001E0000
00FFC000
01FFE000
03FFF000
07FFF800
0FFFF800
0FFFFC00
1FFFFC00
1FE7FC00
3FC3FC00
3F83FE00
3F81FE00
3F01FE00
7F01FE00
0001FE00
0001FE00
003FFE00
01FFFE00
03FFFE00
0FFFFE00
1FFFFE00
3FFFFE00
7FFDFE00
7FE1FE00
7F83FE00
FF03FE00
FF03FE00
FF03FE00
FF03FE00
7FFFFC00
7FFFFC00
7FFFFC00
3FFFFC00
1FFFFC00
0FFCFC00
01C0FC00
00000400
ENDCHAR
STARTCHAR adieresis
ENCODING 228
SWIDTH 390 0
DWIDTH 28 0
BBX 23 49 2 -2
BITMAP
0FE1FC
0FE1FC
0FE1FE
0FE1FE
0FF1FE
0FF1FE
0FE1FE
0FE1FC
07E03C
000000
000000
000000
001E00
00FFC0
01FFE0
03FFF0
07FFF8
0FFFF8
0FFFFC
1FFFFC
1FE7FC
3FC3FC
3F83FE
3F81FE
3F01FE
7F01FE
0001FE
0001FE
003FFE
01FFFE
03FFFE
0FFFFE
1FFFFE
3FFFFE
7FFDFE
7FE1FE
7F83FE
FF03FE
FF03FE
FF03FE
FF03FE
7FFFFC
7FFFFC
7FFFFC
3FFFFC
1FFFFC
0FFCFC
01C0FC
000004
ENDCHAR
STARTCHAR aring
ENCODING 229
SWIDTH 391 0
DWIDTH 28 0
BBX 23 54 2 -2
BITMAP
003FC0
007FE0
00FFF0
01FFF8
03F0FC
03E07C
07C07C
07C07C
07C0FC
07C0F8
07E1F8
03FFF0
01FFE0
00FFC0
007F80
000000
000000
001E00
00FFC0
01FFE0
03FFF0
07FFF8
0FFFF8
0FFFFC
1FFFFC
1FE7FC
3FC3FC
3F83FE
3F81FE
3F01FE
7F01FE
0001FE
0001FE
003FFE
01FFFE
03FFFE
0FFFFE
1FFFFE
3FFFFE
7FFDFE
7FE1FE
7F83FE
FF03FE
FF03FE
FF03FE
FF03FE
7FFFFC
7FFFFC
7FFFFC
3FFFFC
1FFFFC
0FFCFC
01C0FC
000004
ENDCHAR
STARTCHAR ae
ENCODING 230
SWIDTH 544 0
DWIDTH 39 0
BBX 37 37 2 -2
BITMAP
001E000000
00FF81FE00
01FFE7FF00
03FFFFFF80
07FFFFFFC0
0FFFFFFFE0
0FFFFFFFE0
1FFFFFFFE0
1FE7FF8FF0
3FC3FF8FF0
3F83FF07F0
3F81FF07F8
3F01FE07F8
7F01FE07F8
0001FE07F8
0001FE07F8
003FFE07F8
01FFFC3FF8
03FFFFFFF8
0FFFFFFFF8
1FFFFFFFF8
3FFFFFFF80
7FFDFFF800
7FE1FC0000
7F83FC0000
FF03FE0380
FF03FE03C0
FF03FE07F0
FF03FE0FF0
7FFFFF3FE0
7FFFFFFFE0
7FFFFFFFC0
3FFFFFFF80
1FFFBFFF00
0FFF1FFE00
01F00FF800
0000018000
ENDCHAR
STARTCHAR ccedilla
ENCODING 231
SWIDTH 354 0
DWIDTH 25 0
BBX 23 51 2 -17
BITMAP
007F00
01FFC0
03FFE0
07FFE0
0FFFF0
0FFFF8
1FFFF8
1FFFF8
1FE7FC
3FE3FC
3FC3FC
3FC1FC
7FC1FC
7F81FC
7F81FC
7F81FC
7F8000
7F8000
FF8000
FF8000
FF8040
FF8060
FF80F8
FF80FC
FF81FE
FF83FC
7FC7FC
7FEFF8
7FFFF8
3FFFF0
3FFFF0
1FFFE0
0FFFC0
07FF80
01FE00
007000
007000
00F000
00FA00
00FFC0
00FFE0
00FFF0
00FFF0
0047F0
2003F0
3803F0
3F07F0
3FFFE0
1FFFE0
07FF80
00F800
ENDCHAR
STARTCHAR egrave
ENCODING 232
SWIDTH 367 0
DWIDTH 26 0
BBX 23 51 2 -2
BITMAP
080000
0E0000
1F8000
1FE000
3FF800
3FFC00
7FFF00
0FFFC0
01FF80
007F80
000F00
000200
000000
000000
000000
007F80
01FFC0
03FFE0
07FFF0
0FFFF8
1FFFF8
1FFFFC
3FE3FC
3FE3FC
3FC1FC
7FC1FE
7F81FE
7F81FE
7F81FE
FF81FE
FF81FE
FF8FFE
FFFFFE
FFFFFE
FFFFFE
FFFFF0
FFFC00
FF0000
FF0000
FF80E0
FF80F0
FF81FE
7FC3FC
7FE7FC
7FFFF8
3FFFF0
1FFFE0
0FFFC0
07FF80
03FE00
002000
ENDCHAR
STARTCHAR eacute
ENCODING 233
SWIDTH 367 0
DWIDTH 26 0
BBX 25 51 2 -2
BITMAP
00000400
00001C00
00007E00
0001FE00
0007FF00
000FFF80
003FFF80
00FFFC00
007FE000
007F8000
003C0000
00100000
00000000
00000000
00000000
007F8000
01FFC000
03FFE000
07FFF000
0FFFF800
1FFFF800
1FFFFC00
3FE3FC00
3FE3FC00
3FC1FC00
7FC1FE00
7F81FE00
7F81FE00
7F81FE00
FF81FE00
FF81FE00
FF8FFE00
FFFFFE00
FFFFFE00
FFFFFE00
FFFFF000
FFFC0000
FF000000
FF000000
FF80E000
FF80F000
FF81FE00
7FC3FC00
7FE7FC00
7FFFF800
3FFFF000
1FFFE000
0FFFC000
07FF8000
03FE0000
00200000
ENDCHAR
STARTCHAR ecircumflex
ENCODING 234
SWIDTH 367 0
DWIDTH 26 0
BBX 23 50 2 -2
BITMAP
003F00
007F80
00FFC0
01FFE0
03FFF0
07FFF8
0FFFFC
1FE3FC
3FC1FE
3F8078
0F0030
040000
000000
000000
007F80
01FFC0
03FFE0
07FFF0
0FFFF8
1FFFF8
1FFFFC
3FE3FC
3FE3FC
3FC1FC
7FC1FE
7F81FE
7F81FE
7F81FE
FF81FE
FF81FE
FF8FFE
FFFFFE
FFFFFE
FFFFFE
FFFFF0
FFFC00
FF0000
FF0000
FF80E0
FF80F0
FF81FE
7FC3FC
7FE7FC
7FFFF8
3FFFF0
1FFFE0
0FFFC0
07FF80
03FE00
002000
ENDCHAR
STARTCHAR edieresis
ENCODING 235
SWIDTH 367 0
DWIDTH 26 0
BBX 23 49 2 -2
BITMAP
0FC1F8
0FE1FC
0FE1FC
0FE1FC
0FE1FC
1FE1FC
1FE3FC
1FE3FC
0FC078
000000
000000
000000
000000
007F80
01FFC0
03FFE0
07FFF0
0FFFF8
1FFFF8
1FFFFC
3FE3FC
3FE3FC
3FC1FC
7FC1FE
7F81FE
7F81FE
7F81FE
FF81FE
FF81FE
FF8FFE
FFFFFE
FFFFFE
FFFFFE
FFFFF0
FFFC00
FF0000
FF0000
FF80E0
FF80F0
FF81FE
7FC3FC
7FE7FC
7FFFF8
3FFFF0
1FFFE0
0FFFC0
07FF80
03FE00
002000
ENDCHAR
STARTCHAR igrave
ENCODING 236
SWIDTH 236 0
DWIDTH 17 0
BBX 17 50 -3 -1
BITMAP
080000
1E0000
1F8000
3FC000
3FF000
7FFC00
FFFE00
1FFF80
03FF80
007F00
001E00
000600
000000
000000
000000
00FF00
00FF00
00FF00
00FF00
00FF00
00FF00
00FF00
00FF00
00FF00
00FF00
00FF00
00FF00
00FF00
00FF00
00FF00
00FF00
00FF00
00FF00
00FF00
00FF00
00FF00
00FF00
00FF00
00FF00
00FF00
00FF00
00FF00
00FF00
00FF00
00FF00
00FF00
00FF00
00FF00
00FF00
001F00
ENDCHAR
STARTCHAR iacute
ENCODING 237
SWIDTH 236 0
DWIDTH 17 0
BBX 18 50 4 -1
BITMAP
000400
001C00
007E00
01FF00
03FF00
0FFF80
1FFFC0
FFFC00
7FE000
3F8000
1E0000
180000
000000
000000
000000
7F8000
7F8000
7F8000
7F8000
7F8000
7F8000
7F8000
7F8000
7F8000
7F8000
7F8000
7F8000
7F8000
7F8000
7F8000
7F8000
7F8000
7F8000
7F8000
7F8000
7F8000
7F8000
7F8000
7F8000
7F8000
7F8000
7F8000
7F8000
7F8000
7F8000
7F8000
7F8000
7F8000
7F8000
0F8000
ENDCHAR
STARTCHAR icircumflex
ENCODING 238
SWIDTH 236 0
DWIDTH 17 0
BBX 21 49 -2 -1
BITMAP
00FE00
01FF00
03FF00
07FF80
0FFFC0
1FFFE0
3FFFF0
7FC7F8
FF03F8
7E01F0
3C00C0
180000
000000
000000
01FE00
01FE00
01FE00
01FE00
01FE00
01FE00
01FE00
01FE00
01FE00
01FE00
01FE00
01FE00
01FE00
01FE00
01FE00
01FE00
01FE00
01FE00
01FE00
01FE00
01FE00
01FE00
01FE00
01FE00
01FE00
01FE00
01FE00
01FE00
01FE00
01FE00
01FE00
01FE00
01FE00
01FE00
003E00
ENDCHAR
STARTCHAR idieresis
ENCODING 239
SWIDTH 236 0
DWIDTH 17 0
BBX 19 48 -1 -1
BITMAP
7F0FE0
7F0FE0
7F0FE0
7F0FE0
7F0FE0
7F0FE0
7F0FE0
7F0FE0
BF03E0
000000
000000
000000
000000
03FC00
03FC00
03FC00
03FC00
03FC00
03FC00
03FC00
03FC00
03FC00
03FC00
03FC00
03FC00
03FC00
03FC00
03FC00
03FC00
03FC00
03FC00
03FC00
03FC00
03FC00
03FC00
03FC00
03FC00
03FC00
03FC00
03FC00
03FC00
03FC00
03FC00
03FC00
03FC00
03FC00
03FC00
007C00
ENDCHAR
STARTCHAR eth
ENCODING 240
SWIDTH 368 0
DWIDTH 27 0
BBX 26 52 1 -2
BITMAP
00100000
00780000
00F80000
01FC0C00
07FE7E00
03FFFE00
01FFFF00
00FFFF00
01FFF000
07FFE000
0FFFE000
3FFFF000
7F8FF000
3E0FF800
3807FC00
1003FC00
0003FC00
00FDFE00
01FFFE00
03FFFF00
07FFFF00
0FFFFF00
0FFFFF80
1FFFFF80
1FF0FF80
3FE07F80
3FE07F80
3FC07FC0
7FC07FC0
7FC07FC0
7F807FC0
7F807FC0
7F807FC0
FF807FC0
FF807F80
FF807F80
FF807F80
FF807F80
FF80FF80
FF80FF00
FF80FF00
7F81FF00
7F83FE00
7FC3FE00
7FFFFC00
3FFFFC00
3FFFF800
1FFFF000
1FFFE000
0FFFC000
07FF8000
01FE0000
ENDCHAR
STARTCHAR ntilde
ENCODING 241
SWIDTH 424 0
DWIDTH 31 0
BBX 25 48 3 -1
BITMAP
00801F00
03F83F00
07FFFE00
0FFFFE00
1FFFFC00
1FFFFC00
3FFFF800
0F0FF000
02000000
00000000
00000000
00000000
00000000
0007E000
000FF800
001FFC00
7C3FFE00
7C7FFE00
FCFFFE00
FEFFFF00
FFFFFF00
FFF9FF00
FFF0FF80
FFF0FF80
FFF0FF80
FFE0FF80
FFE0FF80
FFE0FF80
FFC0FF80
FFC0FF80
FFC0FF80
FFC0FF80
FFC0FF80
FF80FF80
FF80FF80
FF80FF80
FF80FF80
FF80FF80
FF80FF80
FF80FF80
7F80FF80
7F80FF80
7F80FF00
7F80FF00
7F80FF00
7F80FF00
7F800000
7F800000
ENDCHAR
STARTCHAR ograve
ENCODING 242
SWIDTH 368 0
DWIDTH 27 0
BBX 24 51 2 -2
BITMAP
080000
1E0000
1F8000
3FC000
7FF000
7FFC00
FFFE00
1FFF80
03FF80
007F00
001E00
000400
000000
000000
000000
007F00
01FFC0
03FFE0
07FFF0
0FFFF8
1FFFFC
1FFFFC
3FE3FC
3FC1FE
3FC1FE
7FC1FE
7F81FF
7F81FF
FF81FF
FF81FF
FF81FF
FF01FF
FF01FF
FF01FF
FF01FF
FF01FF
FF01FE
FF01FE
FF01FE
FF03FE
FF83FC
FF83FC
7F87FC
7FC7F8
7FFFF8
3FFFF0
3FFFF0
1FFFE0
0FFFC0
03FF80
00FC00
ENDCHAR
STARTCHAR oacute
ENCODING 243
SWIDTH 368 0
DWIDTH 27 0
BBX 24 51 2 -2
BITMAP
000008
000038
0000FC
0003FE
0007FE
001FFF
007FFF
01FFF8
00FFC0
007F00
007C00
002000
000000
000000
000000
007F00
01FFC0
03FFE0
07FFF0
0FFFF8
1FFFFC
1FFFFC
3FE3FC
3FC1FE
3FC1FE
7FC1FE
7F81FF
7F81FF
FF81FF
FF81FF
FF81FF
FF01FF
FF01FF
FF01FF
FF01FF
FF01FF
FF01FE
FF01FE
FF01FE
FF03FE
FF83FC
FF83FC
7F87FC
7FC7F8
7FFFF8
3FFFF0
3FFFF0
1FFFE0
0FFFC0
03FF80
00FC00
ENDCHAR
STARTCHAR ocircumflex
ENCODING 244
SWIDTH 368 0
DWIDTH 27 0
BBX 24 50 2 -2
BITMAP
003F80
007FC0
00FFE0
01FFE0
03FFF0
07FFF8
0FFBFC
1FF1FE
3FE0FE
1F807C
0F0030
060000
000000
000000
007F00
01FFC0
03FFE0
07FFF0
0FFFF8
1FFFFC
1FFFFC
3FE3FC
3FC1FE
3FC1FE
7FC1FE
7F81FF
7F81FF
FF81FF
FF81FF
FF81FF
FF01FF
FF01FF
FF01FF
FF01FF
FF01FF
FF01FE
FF01FE
FF01FE
FF03FE
FF83FC
FF83FC
7F87FC
7FC7F8
7FFFF8
3FFFF0
3FFFF0
1FFFE0
0FFFC0
03FF80
00FC00
ENDCHAR
STARTCHAR otilde
ENCODING 245
SWIDTH 368 0
DWIDTH 27 0
BBX 24 49 2 -2
BITMAP
01803E
07F07E
0FFFFE
1FFFFC
1FFFFC
3FFFF8
3FFFF0
1F1FE0
040000
000000
000000
000000
000000
007F00
01FFC0
03FFE0
07FFF0
0FFFF8
1FFFFC
1FFFFC
3FE3FC
3FC1FE
3FC1FE
7FC1FE
7F81FF
7F81FF
FF81FF
FF81FF
FF81FF
FF01FF
FF01FF
FF01FF
FF01FF
FF01FF
FF01FE
FF01FE
FF01FE
FF03FE
FF83FC
FF83FC
7F87FC
7FC7F8
7FFFF8
3FFFF0
3FFFF0
1FFFE0
0FFFC0
03FF80
00FC00
ENDCHAR
STARTCHAR odieresis
ENCODING 246
SWIDTH 368 0
DWIDTH 27 0
BBX 24 49 2 -2
BITMAP
1F83F8
1FC3F8
1FC3F8
1FC3F8
1FC3F8
1FC3F8
1FC3F8
3FC7F8
0F80F0
000000
000000
000000
000000
007F00
01FFC0
03FFE0
07FFF0
0FFFF8
1FFFFC
1FFFFC
3FE3FC
3FC1FE
3FC1FE
7FC1FE
7F81FF
7F81FF
FF81FF
FF81FF
FF81FF
FF01FF
FF01FF
FF01FF
FF01FF
FF01FF
FF01FE
FF01FE
FF01FE
FF03FE
FF83FC
FF83FC
7F87FC
7FC7F8
7FFFF8
3FFFF0
3FFFF0
1FFFE0
0FFFC0
03FF80
00FC00
ENDCHAR
STARTCHAR divide
ENCODING 247
SWIDTH 833 0
DWIDTH 60 0
BBX 43 39 9 2
BITMAP
0000FF800000
0000FFC00000
0000FFC00000
0000FFC00000
0000FFC00000
0000FFC00000
0000FFC00000
0000FFC00000
0000FFC00000
0000FFC00000
000007800000
000000000000
000000000000
000000000000
000000000000
FFFFFFFFFF80
FFFFFFFFFFE0
FFFFFFFFFFE0
FFFFFFFFFFC0
FFFFFFFFFFC0
FFFFFFFFFFC0
FFFFFFFFFFC0
FFFFFFFFFFC0
FFFFFFFFFFC0
000000000000
000000000000
000000000000
000000000000
0000F8000000
0000FF800000
0000FFC00000
0000FFC00000
0000FFC00000
0000FFC00000
0000FFC00000
0000FFC00000
0000FFC00000
0000FFC00000
0000FF800000
ENDCHAR
STARTCHAR oslash
ENCODING 248
SWIDTH 368 0
DWIDTH 27 0
BBX 32 43 -2 -5
BITMAP
00000004
0000000C
0000001F
0000001F
0007F03E
001FFC7C
003FFEF8
007FFFF0
00FFFFE0
01FFFFE0
01FF7FC0
03FE3FE0
03FC1FE0
03FC1FE0
07F81FE0
07F83FF0
07F87FF0
0FF8FFF0
0FF0FFF0
0FF1EFF0
0FF3CFF0
0FF3CFF0
0FF78FF0
0FFF0FF0
0FFF1FF0
0FFE1FE0
0FFC1FE0
0FFC1FE0
0FF81FE0
0FF03FC0
0FF03FC0
07F83FC0
07FC7F80
07FFFF80
07FFFF00
0FFFFF00
1FFFFE00
1EFFFC00
3E3FF800
7C0FE000
78000000
F8000000
30000000
ENDCHAR
STARTCHAR ugrave
ENCODING 249
SWIDTH 420 0
DWIDTH 30 0
BBX 25 50 3 -1
BITMAP
08000000
0E000000
1F800000
3FE00000
3FF00000
7FFC0000
7FFF0000
0FFFC000
01FF8000
007F0000
001F0000
00020000
00000000
00000000
00000000
0000FF00
0000FF00
7FC0FF00
7F80FF00
7F80FF00
7F80FF00
7F80FF00
7F80FF00
7F80FF00
FF80FF00
FF80FF00
FF80FF00
FF80FF00
FF80FF00
FF80FF00
FF80FF00
FF00FF00
FF01FF00
FF01FF00
FF01FF00
FF01FF00
FF03FF00
FF03FF00
FF07FF00
FF07FF00
FF8FFF00
FFFFFF00
FFFFFF00
7FFFFF00
7FFF7F00
7FFE7F00
3FFC7F00
1FF87F00
07E07F80
00003F80
ENDCHAR
STARTCHAR uacute
ENCODING 250
SWIDTH 420 0
DWIDTH 30 0
BBX 25 50 3 -1
BITMAP
00000800
00003C00
0000FC00
0001FE00
0007FF00
001FFF00
003FFF80
00FFFC00
00FFE000
007F0000
003C0000
00100000
00000000
00000000
00000000
0000FF00
0000FF00
7FC0FF00
7F80FF00
7F80FF00
7F80FF00
7F80FF00
7F80FF00
7F80FF00
FF80FF00
FF80FF00
FF80FF00
FF80FF00
FF80FF00
FF80FF00
FF80FF00
FF00FF00
FF01FF00
FF01FF00
FF01FF00
FF01FF00
FF03FF00
FF03FF00
FF07FF00
FF07FF00
FF8FFF00
FFFFFF00
FFFFFF00
7FFFFF00
7FFF7F00
7FFE7F00
3FFC7F00
1FF87F00
07E07F80
00003F80
ENDCHAR
STARTCHAR ucircumflex
ENCODING 251
SWIDTH 420 0
DWIDTH 30 0
BBX 25 49 3 -1
BITMAP
007F0000
00FF8000
01FFC000
03FFE000
07FFE000
0FFFF000
1FF7F800
1FE3FC00
7FC1FE00
3F00F800
1E007000
04000000
00000000
00000000
0000FF00
0000FF00
7FC0FF00
7F80FF00
7F80FF00
7F80FF00
7F80FF00
7F80FF00
7F80FF00
FF80FF00
FF80FF00
FF80FF00
FF80FF00
FF80FF00
FF80FF00
FF80FF00
FF00FF00
FF01FF00
FF01FF00
FF01FF00
FF01FF00
FF03FF00
FF03FF00
FF07FF00
FF07FF00
FF8FFF00
FFFFFF00
FFFFFF00
7FFFFF00
7FFF7F00
7FFE7F00
3FFC7F00
1FF87F00
07E07F80
00003F80
ENDCHAR
STARTCHAR udieresis
ENCODING 252
SWIDTH 420 0
DWIDTH 30 0
BBX 25 48 3 -1
BITMAP
1FC3F800
1FC3F800
1FC3FC00
1FC3FC00
1FE3FC00
1FE3FC00
1FC3FC00
1FC3F800
0FC07800
00000000
00000000
00000000
00000000
0000FF00
0000FF00
7FC0FF00
7F80FF00
7F80FF00
7F80FF00
7F80FF00
7F80FF00
7F80FF00
FF80FF00
FF80FF00
FF80FF00
FF80FF00
FF80FF00
FF80FF00
FF80FF00
FF00FF00
FF01FF00
FF01FF00
FF01FF00
FF01FF00
FF03FF00
FF03FF00
FF07FF00
FF07FF00
FF8FFF00
FFFFFF00
FFFFFF00
7FFFFF00
7FFF7F00
7FFE7F00
3FFC7F00
1FF87F00
07E07F80
00003F80
ENDCHAR
STARTCHAR yacute
ENCODING 253
SWIDTH 376 0
DWIDTH 27 0
BBX 25 66 3 -17
BITMAP
00002000
00007000
0001F000
0007F800
001FFC00
007FFC00
00FFFE00
03FFF000
03FF8000
01FC0000
00F00000
00400000
00000000
00006000
00007000
00007C00
C0007F00
FF00FF80
FF00FF00
FF00FF00
FF00FE00
FF01FE00
FF01FE00
FF01FE00
FF01FC00
7F03FC00
7F83FC00
7F83F800
7F83F800
7F87F800
3F87F800
3F87F000
3F87F000
3FCFF000
1FCFF000
1FCFE000
1FCFE000
1FFFE000
0FFFE000
0FFFC000
0FFFC000
07FFC000
07FFC000
07FF8000
03FF8000
03FF8000
01FF8000
01FF0000
00FF0000
00FF0000
00FF0000
00FE0000
01FE0000
01FE0000
01FE0000
01FE0000
03FC0000
03FC0000
03FC0000
03FC0000
07F80000
07F80000
07F80000
07F80000
07F80000
0BF00000
ENDCHAR
STARTCHAR thorn
ENCODING 254
SWIDTH 410 0
DWIDTH 30 0
BBX 24 71 5 -18
BITMAP
F00000
FF8000
FF0000
FF0000
FF0000
FF0000
FF0000
FF0000
FF0000
FF0000
FF0000
FF0000
FF0000
FF0000
FF0000
FF0000
FF0000
FF0000
FF0000
FF01E0
FF07F0
FF0FF8
FF1FFC
FF3FFC
FF7FFE
FFFFFE
FFFFFE
FFFFFE
FFFBFF
FFF1FF
FFE1FF
FFE0FF
FFC0FF
FFC0FF
FF80FF
FF80FF
FF00FF
FF00FE
FF01FE
FF01FE
FF01FE
FF01FE
FF03FE
FF03FC
FF03FC
FF07FC
FFCFF8
FFFFF8
FFFFF8
FFFFF0
FFFFE0
FFFFE0
FFFFC0
FF7F80
FF0400
FF0000
FF0000
FF0000
FF0000
FF0000
FF0000
FF0000
FF0000
FF0000
FF0000
FF0000
FF0000
FF0000
FF8000
FF8000
018000
ENDCHAR
STARTCHAR ydieresis
ENCODING 255
SWIDTH 376 0
DWIDTH 27 0
BBX 25 64 3 -17
BITMAP
0FC1F800
0FE1FC00
0FE1FC00
0FE1FC00
0FE1FC00
1FE1FC00
1FE3FC00
1FC3FC00
0FC07800
00000000
00000000
00006000
00007000
00007C00
C0007F00
FF00FF80
FF00FF00
FF00FF00
FF00FE00
FF01FE00
FF01FE00
FF01FE00
FF01FC00
7F03FC00
7F83FC00
7F83F800
7F83F800
7F87F800
3F87F800
3F87F000
3F87F000
3FCFF000
1FCFF000
1FCFE000
1FCFE000
1FFFE000
0FFFE000
0FFFC000
0FFFC000
07FFC000
07FFC000
07FF8000
03FF8000
03FF8000
01FF8000
01FF0000
00FF0000
00FF0000
00FF0000
00FE0000
01FE0000
01FE0000
01FE0000
01FE0000
03FC0000
03FC0000
03FC0000
03FC0000
07F80000
07F80000
07F80000
07F80000
07F80000
0BF00000
ENDCHAR
STARTCHAR Cacute
ENCODING 262
SWIDTH 482 0
DWIDTH 35 0
BBX 32 69 2 -2
BITMAP
00000020
000000E0
000003F0
00000FF0
00003FF8
00007FFC
0001FFFC
0007FFE0
0003FF00
0001F800
0001E000
00008000
00000000
00000000
00000000
00000000
0000E000
0007FE00
001FFF80
003FFFC0
007FFFE0
00FFFFE0
01FFFFF0
03FFFFF0
03FFFFF8
07FFFFF8
07FE1FF8
0FFC0FF8
0FFC0FFC
1FF80FFC
1FF807FC
1FF007FC
3FF007FC
3FF007FC
3FF007FC
7FE007FC
7FE007FC
7FE007FC
7FC007FC
7FC00000
FFC00000
FFC00000
FFC00000
FFC00000
FFC00000
FFC00000
FF800000
FF800000
FF800000
FF800000
FFC001E0
FFC003FF
FFC003FF
FFC003FE
FFC003FE
7FE007FE
7FE007FC
7FF00FFC
3FF01FFC
3FFC3FF8
3FFFFFF8
1FFFFFF0
0FFFFFF0
0FFFFFE0
07FFFFC0
03FFFF80
01FFFF00
007FFE00
001FF800
ENDCHAR
STARTCHAR cacute
ENCODING 263
SWIDTH 354 0
DWIDTH 25 0
BBX 25 51 2 -2
BITMAP
00000800
00003800
0000FC00
0003FE00
0007FE00
001FFF00
007FFF80
01FFFC00
00FFC000
007F0000
003C0000
00300000
00000000
00000000
00000000
007F0000
01FFC000
03FFE000
07FFE000
0FFFF000
0FFFF800
1FFFF800
1FFFF800
1FE7FC00
3FE3FC00
3FC3FC00
3FC1FC00
7FC1FC00
7F81FC00
7F81FC00
7F81FC00
7F800000
7F800000
FF800000
FF800000
FF804000
FF806000
FF80F800
FF80FC00
FF81FE00
FF83FC00
7FC7FC00
7FEFF800
7FFFF800
3FFFF000
3FFFF000
1FFFE000
0FFFC000
07FF8000
01FE0000
00300000
ENDCHAR
STARTCHAR Ccaron
ENCODING 268
SWIDTH 482 0
DWIDTH 35 0
BBX 32 70 2 -2
BITMAP
00000080
001801E0
007C03F0
01FE07F8
00FF1FF0
007FBFE0
003FFFC0
003FFF80
001FFF00
000FFE00
0007FC00
0003F800
00001000
00000000
00000000
00000000
00000000
0000E000
0007FE00
001FFF80
003FFFC0
007FFFE0
00FFFFE0
01FFFFF0
03FFFFF0
03FFFFF8
07FFFFF8
07FE1FF8
0FFC0FF8
0FFC0FFC
1FF80FFC
1FF807FC
1FF007FC
3FF007FC
3FF007FC
3FF007FC
7FE007FC
7FE007FC
7FE007FC
7FC007FC
7FC00000
FFC00000
FFC00000
FFC00000
FFC00000
FFC00000
FFC00000
FF800000
FF800000
FF800000
FF800000
FFC001E0
FFC003FF
FFC003FF
FFC003FE
FFC003FE
7FE007FE
7FE007FC
7FF00FFC
3FF01FFC
3FFC3FF8
3FFFFFF8
1FFFFFF0
0FFFFFF0
0FFFFFE0
07FFFFC0
03FFFF80
01FFFF00
007FFE00
001FF800
ENDCHAR
STARTCHAR ccaron
ENCODING 269
SWIDTH 354 0
DWIDTH 25 0
BBX 23 52 2 -2
BITMAP
000010
060038
0F00FC
1F81FE
3FC3FC
1FFFF8
0FFFF0
07FFE0
03FFC0
01FFC0
00FF00
00FE00
000C00
000000
000000
000000
007F00
01FFC0
03FFE0
07FFE0
0FFFF0
0FFFF8
1FFFF8
1FFFF8
1FE7FC
3FE3FC
3FC3FC
3FC1FC
7FC1FC
7F81FC
7F81FC
7F81FC
7F8000
7F8000
FF8000
FF8000
FF8040
FF8060
FF80F8
FF80FC
FF81FE
FF83FC
7FC7FC
7FEFF8
7FFFF8
3FFFF0
3FFFF0
1FFFE0
0FFFC0
07FF80
01FE00
003000
ENDCHAR
STARTCHAR dslash
ENCODING 273
SWIDTH 431 0
DWIDTH 31 0
BBX 31 54 2 -1
BITMAP
0000F000
0000FF00
0000FF00
0000FF00
0000FF00
0000FF00
0000FF00
03FFFFFC
1FFFFFFE
1FFFFFFE
1FFFFFFE
1FFFFFFE
1FFFFFFE
0FF8FF06
0000FF00
0000FF00
0000FF00
0000FF00
0000FF00
01FCFF00
03FFFF00
07FFFF00
0FFFFF00
0FFFFF00
1FFFFF00
1FFFFF00
3FE1FF00
3FE0FF00
3FC0FF00
7FC0FF00
7FC0FF00
7F80FF00
7F80FF00
FF80FF00
FF80FF00
FF80FF00
FF01FF00
FF01FF00
FF01FF00
FF03FF00
FF03FF00
FF07FF00
FF07FF00
FF8FFF00
FF8FFF00
FFFFFF00
7FFFFF00
7FFFFF00
3FFE7F00
3FFE7E00
1FFC7E00
0FF87E00
03E07E00
00003E00
ENDCHAR
STARTCHAR Gbreve
ENCODING 286
SWIDTH 498 0
DWIDTH 36 0
BBX 32 68 3 -2
BITMAP
00000600
00F807C0
00F80FC0
00FC0FC0
00FC1FC0
00FFFF80
007FFF00
003FFE00
001FFC00
000FF800
00000000
00000000
00000000
00000000
00000000
0001C000
000FF800
003FFE00
007FFF80
00FFFFC0
01FFFFE0
03FFFFE0
03FFFFF0
07FFFFF8
0FFE1FF8
0FFE0FF8
1FFC0FF8
1FF80FFC
1FF807FC
3FF007FC
3FF007FC
3FF007FC
7FE007FC
7FE007FC
7FE007FC
7FE007FC
7FC007FC
FFC003FC
FFC00000
FFC00000
FFC00000
FFC00000
FFC0007E
FFC1FFFE
FFC1FFFE
FFC1FFFF
FFC1FFFF
FFC0FFFF
FFC0FFFF
FFC0FFFF
FFC083FE
FFC003FE
FFC007FE
7FC007FE
7FE007FC
7FE007FC
7FE00FFC
3FF00FF8
3FF01FF8
1FF83FF0
1FFFFFF0
0FFFFFE0
07FFFFC0
07FFFF80
01FFFF00
00FFFE00
007FFC00
000FF000
ENDCHAR
STARTCHAR gbreve
ENCODING 287
SWIDTH 404 0
DWIDTH 29 0
BBX 27 65 1 -17
BITMAP
00000C00
01F00FC0
01F80FC0
01F81F80
00FC3F80
00FFFF00
00FFFF00
007FFE00
003FFC00
001FF000
00000000
00000000
00000000
00000000
001F8000
007FE000
00FFF000
01FFF800
01FFFFE0
03FFFFC0
07FFFFC0
07FCFFC0
0FF87FC0
0FF03FC0
1FF03FC0
1FF03FC0
1FE03FC0
3FE03FC0
3FE03FC0
3FC03FC0
3FC03FC0
7FC03FC0
7FC07FC0
7FC07FC0
7FC07FC0
7F80FFC0
7F80FFC0
7F81FFC0
7F81FF80
7FC3FF80
7FC7FF80
7FEFFF80
3FFFBF80
3FFFBF80
3FFF3F80
1FFE3F80
0FFC3F80
07F83F80
00C07F80
00007F80
00007F00
00007F00
02007F00
1E00FF00
FF00FF00
7F80FE00
7FC1FE00
3FF7FE00
1FFFFC00
1FFFFC00
0FFFF800
07FFF800
03FFF000
00FFE000
007FC000
ENDCHAR
STARTCHAR hbar
ENCODING 295
SWIDTH 425 0
DWIDTH 31 0
BBX 28 53 0 -1
BITMAP
0F800000
0FF00000
0FF80000
0FF80000
0FF80000
0FF80000
0FFF0000
FFFFC000
FFFFC000
FFFFC000
FFFFC000
FFFFC000
FFFFC000
0FF80000
0FF80000
0FF80000
0FF80000
07F80000
07F80000
07F87E00
07F9FF80
07FBFF80
07FFFFC0
07FFFFE0
07FFFFE0
07FFFFF0
0FFFFFF0
0FFF1FF0
0FFF1FF0
0FFE0FF0
0FFE0FF0
0FFC0FF0
0FFC0FF0
0FFC0FF0
0FF80FF0
0FF80FF0
0FF80FF0
0FF80FF0
0FF80FF0
0FF80FF0
0FF80FF0
0FF81FF0
0FF81FF0
0FF81FF0
0FF01FF0
0FF01FF0
0FF01FF0
0FF01FF0
0FF01FF0
0FF01FF0
0FF01FF0
0FF007F0
03F00000
ENDCHAR
STARTCHAR Itilde
ENCODING 296
SWIDTH 289 0
DWIDTH 21 0
BBX 21 65 1 -2
BITMAP
020078
1FC0F8
3FFFF8
7FFFF0
7FFFF0
FFFFE0
FFFFC0
7C7F80
100200
000000
000000
000000
030000
03FF00
03FF00
03FF00
03FF00
03FF00
03FF00
03FE00
03FE00
03FE00
03FE00
03FE00
03FE00
03FE00
03FE00
07FE00
07FE00
07FE00
07FE00
07FE00
07FE00
07FE00
07FE00
07FE00
07FE00
07FE00
07FE00
07FE00
07FE00
07FE00
07FE00
07FE00
07FE00
07FE00
03FE00
03FE00
03FE00
03FE00
03FE00
03FE00
03FE00
03FE00
03FE00
03FE00
03FF00
03FF00
03FF00
03FF00
03FF00
03FF00
03FF00
03FF00
000F00
ENDCHAR
STARTCHAR itilde
ENCODING 297
SWIDTH 236 0
DWIDTH 17 0
BBX 21 48 -2 -1
BITMAP
020078
1FC0F8
3FFFF8
7FFFF8
7FFFF0
FFFFE0
FFFFE0
7C7F80
100000
000000
000000
000000
000000
01FE00
01FE00
01FE00
01FE00
01FE00
01FE00
01FE00
01FE00
01FE00
01FE00
01FE00
01FE00
01FE00
01FE00
01FE00
01FE00
01FE00
01FE00
01FE00
01FE00
01FE00
01FE00
01FE00
01FE00
01FE00
01FE00
01FE00
01FE00
01FE00
01FE00
01FE00
01FE00
01FE00
01FE00
003E00
ENDCHAR
STARTCHAR Idot
ENCODING 304
SWIDTH 289 0
DWIDTH 21 0
BBX 11 68 6 -2
BITMAP
2000
3FC0
3FE0
3FE0
3FE0
3FE0
3FE0
3FE0
3FC0
03C0
0000
0000
0000
0000
0000
6000
7FE0
7FE0
7FE0
7FE0
7FE0
7FE0
7FC0
7FC0
7FC0
7FC0
7FC0
7FC0
7FC0
7FC0
FFC0
FFC0
FFC0
FFC0
FFC0
FFC0
FFC0
FFC0
FFC0
FFC0
FFC0
FFC0
FFC0
FFC0
FFC0
FFC0
FFC0
FFC0
FFC0
7FC0
7FC0
7FC0
7FC0
7FC0
7FC0
7FC0
7FC0
7FC0
7FC0
7FE0
7FE0
7FE0
7FE0
7FE0
7FE0
7FE0
7FE0
01E0
ENDCHAR
STARTCHAR dotlessi
ENCODING 305
SWIDTH 236 0
DWIDTH 17 0
BBX 8 35 5 -1
BITMAP
FF
FF
FF
FF
FF
FF
FF
FF
FF
FF
FF
FF
FF
FF
FF
FF
FF
FF
FF
FF
FF
FF
FF
FF
FF
FF
FF
FF
FF
FF
FF
FF
FF
FF
1F
ENDCHAR
STARTCHAR IJ
ENCODING 306
SWIDTH 679 0
DWIDTH 49 0
BBX 40 53 6 -2
BITMAP
6000000000
7FE00007FE
7FE00007FE
7FE00007FE
7FE00007FE
7FE00007FE
7FE00007FE
7FC00007FE
7FC00007FE
7FC00007FE
7FC00007FE
7FC00007FE
7FC00007FE
7FC00007FE
7FC00007FE
FFC00003FF
FFC00003FF
FFC00003FF
FFC00003FF
FFC00003FF
FFC00003FF
FFC00003FF
FFC00003FF
FFC00003FF
FFC00003FF
FFC00003FF
FFC00003FF
FFC00003FF
FFC00003FF
FFC00003FF
FFC00003FF
FFC00003FF
FFC00003FF
FFC00003FF
7FC3FE03FF
7FC3FC03FF
7FC3FC03FF
7FC3FC03FF
7FC3FC03FE
7FC3FC07FE
7FC3FE07FE
7FC3FE07FE
7FC3FE0FFC
7FC3FF0FFC
7FE1FFFFFC
7FE1FFFFF8
7FE1FFFFF8
7FE0FFFFF0
7FE07FFFF0
7FE03FFFE0
7FE01FFFC0
7FE00FFF00
01E003FE00
ENDCHAR
STARTCHAR ij
ENCODING 307
SWIDTH 488 0
DWIDTH 35 0
BBX 27 65 5 -18
BITMAP
F8001E00
FF803FE0
FF003FE0
FF003FC0
FF003FC0
FF003FC0
FF003FC0
FF003FC0
0F0003C0
00000000
00000000
00000000
00000000
FF003000
FF003FC0
FF003FC0
FF003FC0
FF003FC0
FF003FC0
FF003FC0
FF003FC0
FF003FC0
FF003FC0
FF003FC0
FF003FC0
FF003FC0
FF003FC0
FF003FC0
FF003FC0
FF003FC0
FF003FC0
FF003FC0
FF003FE0
FF003FE0
FF003FE0
FF003FE0
FF001FE0
FF001FE0
FF001FE0
FF001FE0
FF001FE0
FF001FE0
FF001FE0
FF001FE0
FF001FE0
FF001FE0
FF001FE0
1F001FE0
00001FE0
00003FE0
00003FC0
00003FC0
00003FC0
00003FC0
00107FC0
00387FC0
003FFF80
007FFF80
007FFF80
00FFFF00
007FFF00
003FFE00
001FFC00
0007F800
0000C000
ENDCHAR
STARTCHAR Jcircumflex
ENCODING 308
SWIDTH 410 0
DWIDTH 30 0
BBX 30 66 0 -2
BITMAP
00007E00
0000FF00
0001FF80
0003FFC0
0007FFE0
000FFFE0
001FFFF0
003FC7F8
00FF83FC
007F01F0
003C0060
00080000
00000000
00000000
0001FF80
0001FF80
0001FFC0
0000FFC0
0000FFC0
0000FFC0
0000FFC0
0000FFC0
0000FFC0
0000FFC0
0000FFC0
0000FFC0
0000FFC0
0000FFC0
0000FFC0
0000FFC0
0000FFC0
0000FFC0
0000FFC0
0000FFC0
0000FFC0
0000FFC0
0000FFC0
0000FFC0
0000FFC0
0000FFC0
0000FFC0
00007FC0
00007FC0
00007FC0
00007FC0
00007FC0
00007FC0
7F807FC0
FF80FFC0
FF80FFC0
FF80FFC0
FF80FFC0
FF80FFC0
FF80FFC0
FF81FF80
7FC1FF80
7FE3FF80
7FFFFF00
3FFFFF00
3FFFFE00
1FFFFE00
1FFFFC00
0FFFF800
07FFF000
01FFE000
007F8000
ENDCHAR
STARTCHAR jcircumflex
ENCODING 309
SWIDTH 252 0
DWIDTH 18 0
BBX 23 66 -4 -18
BITMAP
003F80
007F80
00FFC0
01FFE0
03FFF0
07FFF8
0FFFFC
1FF1FE
3FC0FE
1F807C
0F0030
060000
000000
000000
003000
003FC0
003FC0
003FC0
003FC0
003FC0
003FC0
003FC0
003FC0
003FC0
003FC0
003FC0
003FC0
003FC0
003FC0
003FC0
003FC0
003FC0
003FC0
003FE0
003FE0
003FE0
003FE0
001FE0
001FE0
001FE0
001FE0
001FE0
001FE0
001FE0
001FE0
001FE0
001FE0
001FE0
001FE0
001FE0
003FE0
003FE0
003FC0
003FC0
203FC0
387FC0
3FFFC0
7FFFC0
7FFF80
FFFF80
7FFF80
3FFF00
1FFE00
0FFE00
03FC00
002000
ENDCHAR
STARTCHAR kcommaaccent
ENCODING 311
SWIDTH 410 0
DWIDTH 30 0
BBX 26 71 4 -18
BITMAP
60000000
7FC00000
7FC00000
7FC00000
7FC00000
7F800000
7F800000
7F800000
7F800000
7F800000
7F800000
7F800000
7F800000
7F800000
7F800000
7F800000
FF800000
FF800800
FF801800
FF801E00
FF803F00
FF803F80
FF807FC0
FF807F80
FF80FF80
FF80FF00
FF81FF00
FF83FE00
FF83FE00
FF87FC00
FF8FF800
FF9FF800
FF9FF000
FFBFF000
FFFFE000
FFFFC000
FFFFC000
FFFF8000
FFFFC000
FFFFE000
FFFFF000
FFBFF800
FF9FF800
FF8FFC00
FF87FE00
FF87FE00
FF83FF00
FF81FF80
FF80FF80
FF807FC0
FF807F80
FF803F00
FF801E00
7F800C00
00000800
00000000
00000000
00800000
00F80000
00FF0000
00FF8000
00FF0000
00FF0000
00FE0000
00FE0000
01FC0000
01FC0000
01F80000
01F00000
01E00000
00600000
ENDCHAR
STARTCHAR kgreenlandic
ENCODING 312
SWIDTH 410 0
DWIDTH 30 0
BBX 26 38 4 -2
BITMAP
00000800
60001800
7FC01E00
7FC03F00
7F803F80
7F807FC0
7F807F80
7F80FF80
7F80FF00
7F81FF00
FF83FE00
FF83FE00
FF87FC00
FF8FF800
FF9FF800
FF9FF000
FFBFF000
FFFFE000
FFFFC000
FFFFC000
FFFF8000
FFFFC000
FFFFE000
FFFFF000
FFBFF800
FF9FF800
FF8FFC00
FF87FE00
FF87FE00
FF83FF00
FF81FF80
FF80FF80
FF807FC0
FF807F80
FF803F00
FF801E00
7F800C00
00000800
ENDCHAR
STARTCHAR Ldotaccent
ENCODING 319
SWIDTH 439 0
DWIDTH 32 0
BBX 26 50 5 0
BITMAP
7E000000
7FE00000
7FC00000
7FC00000
7FC00000
7FC00000
7FC00000
FFC00000
FFC00000
FFC00000
FFC00000
FFC00000
FFC00000
FFC00000
FFC00000
FFC00000
FFC00000
FFC00000
FFC00000
FFC00000
FFC07F80
FF807F80
FF807FC0
FF807FC0
FF807FC0
FF807FC0
FF807FC0
FF807F80
FF803F80
FF800000
FF800000
FF800000
FFC00000
FFC00000
FFC00000
FFC00000
FFC00000
FFC00000
7FC00000
7FC00000
7FC1FE00
7FFFFE00
7FFFFE00
7FFFFE00
7FFFFE00
7FFFFF00
7FFFFF00
7FFFFF00
7FFFF000
7FF80000
ENDCHAR
STARTCHAR ldot
ENCODING 320
SWIDTH 496 0
DWIDTH 36 0
BBX 21 54 5 -1
BITMAP
600000
7F8000
7F8000
FF8000
FF8000
FF8000
FF8000
FF8000
FF8000
FF8000
FF8000
FF8000
FF8000
FF0000
FF0000
FF0000
FF0000
FF0000
FF0000
FF0000
FF0000
FF0000
FF0000
FF0000
FF0000
FF0000
FF0000
FF07F0
FF07F8
FF07F8
FF07F8
FF07F8
FF07F8
FF0FF8
FF0FF8
FF03F0
FF0000
FF0000
FF0000
FF0000
FF0000
FF0000
FF0000
FF0000
FF0000
FF0000
FF0000
FF0000
FF0000
FF0000
FF0000
FF0000
FF0000
FF0000
ENDCHAR
STARTCHAR Lslash
ENCODING 321
SWIDTH 397 0
DWIDTH 29 0
BBX 30 50 -1 0
BITMAP
01F80000
01FF8000
01FF0000
01FF0000
01FF0000
01FF0000
01FF0000
03FF0000
03FF0000
03FF0000
03FF0000
03FF0000
03FF0000
03FF0180
03FF07C0
03FF0FE0
03FF3FF0
03FF7FF8
03FFFFC0
03FFFF00
03FFFE00
03FFF800
03FFF000
03FFC000
03FF8000
03FF0000
07FE0000
0FFE0000
1FFE0000
7FFE0000
FFFE0000
FFFE0000
7FFE0000
3BFF0000
33FF0000
13FF0000
03FF0000
03FF0000
01FF0000
01FF0000
01FF07F8
01FFFFF8
01FFFFF8
01FFFFF8
01FFFFF8
01FFFFFC
01FFFFFC
01FFFFFC
01FFFFC0
01FFE000
ENDCHAR
STARTCHAR lslash
ENCODING 322
SWIDTH 271 0
DWIDTH 20 0
BBX 23 54 -1 -1
BITMAP
018000
01FE00
01FE00
03FE00
03FE00
03FE00
03FE00
03FE00
03FE00
03FE00
03FE00
03FE00
03FE00
03FC00
03FC00
03FC00
03FC00
03FC00
03FC00
03FC30
03FCF8
03FDFC
03FFFE
03FFFE
03FFF8
03FFE0
03FFC0
07FF00
1FFE00
3FFC00
7FFC00
FFFC00
FFFC00
7FFC00
3BFC00
33FC00
03FC00
03FC00
03FC00
03FC00
03FC00
03FC00
03FC00
03FC00
03FC00
03FC00
03FC00
03FC00
03FC00
03FC00
03FC00
03FC00
03FC00
03FC00
ENDCHAR
STARTCHAR Nacute
ENCODING 323
SWIDTH 544 0
DWIDTH 39 0
BBX 32 67 4 -2
BITMAP
00000400
00001C00
00007E00
0001FF00
0003FF00
000FFF80
001FFFC0
00FFFE00
007FF000
003F8000
001E0000
00180000
00000000
00000000
000001FF
000001FF
000001FF
3E0001FF
7FE001FF
7FF001FF
7FF001FF
7FF801FF
7FF801FF
7FF801FF
7FFC01FF
7FFC01FF
7FFC01FF
7FFE01FF
7FFE00FF
7FFF00FF
7FFF00FF
7FFF00FF
FFFF80FF
FFFF80FF
FF7FC0FF
FF7FC0FF
FF3FE0FF
FF1FE0FF
FF1FE0FF
FF0FF0FF
FF0FF0FF
FF07F8FF
FF07F8FF
FF03FCFF
FF03FCFF
FF01FEFF
FF01FEFF
FF00FFFF
FF00FFFF
FF00FFFF
FF007FFF
FF007FFF
FF003FFF
FF003FFF
FF001FFF
FF001FFF
FF000FFF
FF000FFF
FF0007FF
FF0007FF
FF0003FF
FF0003FF
FF0003FF
FF0001FF
FF0001FF
FF000001
3F000000
ENDCHAR
STARTCHAR nacute
ENCODING 324
SWIDTH 424 0
DWIDTH 31 0
BBX 25 50 3 -1
BITMAP
00004000
0001C000
0007E000
001FF000
003FF000
00FFF800
03FFFC00
0FFFE000
07FE0000
03F80000
01E00000
01000000
00000000
00000000
00000000
0007E000
000FF800
001FFC00
7C3FFE00
7C7FFE00
FCFFFE00
FEFFFF00
FFFFFF00
FFF9FF00
FFF0FF80
FFF0FF80
FFF0FF80
FFE0FF80
FFE0FF80
FFE0FF80
FFC0FF80
FFC0FF80
FFC0FF80
FFC0FF80
FFC0FF80
FF80FF80
FF80FF80
FF80FF80
FF80FF80
FF80FF80
FF80FF80
FF80FF80
7F80FF80
7F80FF80
7F80FF00
7F80FF00
7F80FF00
7F80FF00
7F800000
7F800000
ENDCHAR
STARTCHAR OE
ENCODING 338
SWIDTH 705 0
DWIDTH 51 0
BBX 50 53 2 -2
BITMAP
0001F800000000
000FFF00000140
001FFF80FFFFC0
007FFFFFFFFFC0
00FFFFFFFFFFC0
01FFFFFFFFFFC0
01FFFFFFFFFFC0
03FFFFFFFFFFC0
07FFFFFFFFFFC0
07FF0FFFFFFFC0
0FFE07FFFF8000
0FFC03FFC00000
1FF803FFC00000
1FF801FFC00000
1FF001FFC00000
3FF001FFC00000
3FF000FFC00000
3FE000FFC00000
7FE000FFC00000
7FE000FFC00000
7FE000FFC00000
7FC000FFC00000
7FC000FFC07E00
7FC000FFFFFE00
7FC000FFFFFF00
7FC000FFFFFF00
FFC000FFFFFF00
FFC000FFFFFF00
FFC000FFFFFF00
FFC000FFFFFF80
FFC000FFFFC000
7FC000FF800000
7FC000FF800000
7FC000FF800000
7FC000FF800000
7FC001FF800000
7FE001FF800000
7FE001FF800000
7FE003FF800000
3FE003FF800000
3FF003FF800000
3FF007FF800000
1FF807FF800F80
1FFC0FFF8FFF80
1FFE1FFFFFFFC0
0FFFFFFFFFFFC0
07FFFFFFFFFFC0
07FFFFFFFFFFC0
03FFFFFFFFFFC0
01FFFFFFFFFFC0
00FFFFFFFFFF00
003FFE1FFFF000
000FF800000000
ENDCHAR
STARTCHAR oe
ENCODING 339
SWIDTH 559 0
DWIDTH 40 0
BBX 38 36 2 -2
BITMAP
007F01FE00
01FFC7FF80
03FFEFFFC0
07FFFFFFE0
0FFFFFFFE0
1FFFFFFFF0
1FFFFFFFF0
3FE3FFCFF0
3FC1FF87F8
3FC1FF87F8
7FC1FF07F8
7F81FF07F8
7F81FF07F8
FF81FE07F8
FF81FE03FC
FF81FE03FC
FF01FE3FFC
FF01FFFFFC
FF01FFFFFC
FF01FFFFFC
FF01FFFFC0
FF01FFF800
FF01FE0000
FF01FE0000
FF03FE0180
FF83FE03E0
FF83FF07F0
7F87FF0FF8
7FC7FF9FF0
7FFFFFFFE0
3FFFFFFFE0
3FFFFFFFC0
1FFFFFFF80
0FFFDFFE00
03FF07FC00
00FC008000
ENDCHAR
STARTCHAR Racute
ENCODING 340
SWIDTH 525 0
DWIDTH 38 0
BBX 34 68 4 -3
BITMAP
0000010000
0000070000
00001F8000
00007F8000
0001FFC000
0003FFC000
000FFFE000
003FFF0000
003FF80000
001FE00000
000F000000
0004000000
0000000000
0003F00000
00FFFF0000
07FFFFC000
1FFFFFE000
7FFFFFF800
7FFFFFFC00
7FFFFFFC00
7FFFFFFE00
7FFFFFFE00
7FF807FF00
7FE003FF00
7FE001FF00
7FE000FF00
7FE000FF80
7FE000FF80
7FE000FF80
7FE000FF80
7FE001FF80
7FE001FF00
7FE003FF00
7FE007FF00
7FE00FFE00
7FE01FFE00
7FE03FFC00
7FE07FF800
7FE0FFF800
7FE3FFF000
7FEFFFE000
7FFFFF8000
7FFFFF0000
7FFFFE0000
7FFFFC0000
7FFFF80000
7FFFFC0000
7FEFFE0000
7FE7FE0000
7FE3FF0000
7FE3FF8000
7FE1FFC000
7FE0FFC000
7FE07FE000
7FE07FF000
7FE03FF800
7FE01FF800
7FE00FFC00
7FE00FFE00
7FE007FF00
7FC003FF00
7FC003FF80
7FC001FFC0
7FC000FFC0
7FC0007F00
FFC0007E00
00C0003C00
0000001000
ENDCHAR
STARTCHAR Rcommaaccent
ENCODING 342
SWIDTH 525 0
DWIDTH 38 0
BBX 34 70 4 -18
BITMAP
0003F00000
00FFFF0000
07FFFFC000
1FFFFFE000
7FFFFFF800
7FFFFFFC00
7FFFFFFC00
7FFFFFFE00
7FFFFFFE00
7FF807FF00
7FE003FF00
7FE001FF00
7FE000FF00
7FE000FF80
7FE000FF80
7FE000FF80
7FE000FF80
7FE001FF80
7FE001FF00
7FE003FF00
7FE007FF00
7FE00FFE00
7FE01FFE00
7FE03FFC00
7FE07FF800
7FE0FFF800
7FE3FFF000
7FEFFFE000
7FFFFF8000
7FFFFF0000
7FFFFE0000
7FFFFC0000
7FFFF80000
7FFFFC0000
7FEFFE0000
7FE7FE0000
7FE3FF0000
7FE3FF8000
7FE1FFC000
7FE0FFC000
7FE07FE000
7FE07FF000
7FE03FF800
7FE01FF800
7FE00FFC00
7FE00FFE00
7FE007FF00
7FC003FF00
7FC003FF80
7FC001FFC0
7FC000FFC0
7FC0007F00
FFC0007E00
00C0003C00
0000001000
0000000000
0008000000
000F800000
000FF80000
000FF00000
000FF00000
000FF00000
000FE00000
000FE00000
001FC00000
001F800000
001F800000
001F000000
001E000000
0004000000
ENDCHAR
STARTCHAR rcommaaccent
ENCODING 343
SWIDTH 301 0
DWIDTH 22 0
BBX 20 52 2 -18
BITMAP
000FC0
001FE0
003FF0
7E3FF0
7E7FE0
7EFFE0
3EFFE0
3FFFC0
3FFC40
3FF800
3FF000
3FF000
3FE000
3FE000
3FE000
3FE000
3FE000
3FE000
3FE000
3FE000
3FE000
3FE000
3FE000
3FE000
3FE000
3FE000
3FE000
3FE000
3FE000
3FE000
3FE000
3FE000
3FE000
3FE000
3FE000
006000
000000
000000
200000
3C0000
3FC000
3FC000
3FC000
7F8000
7F8000
7F0000
7F0000
7E0000
7C0000
FC0000
F80000
300000
ENDCHAR
STARTCHAR Rcaron
ENCODING 344
SWIDTH 525 0
DWIDTH 38 0
BBX 34 69 4 -3
BITMAP
0000008000
003001C000
007803E000
00FC0FF000
01FE1FE000
00FFBFC000
007FFFC000
003FFF8000
001FFF0000
000FFE0000
0007FC0000
0003F00000
0000600000
0000000000
0003F00000
00FFFF0000
07FFFFC000
1FFFFFE000
7FFFFFF800
7FFFFFFC00
7FFFFFFC00
7FFFFFFE00
7FFFFFFE00
7FF807FF00
7FE003FF00
7FE001FF00
7FE000FF00
7FE000FF80
7FE000FF80
7FE000FF80
7FE000FF80
7FE001FF80
7FE001FF00
7FE003FF00
7FE007FF00
7FE00FFE00
7FE01FFE00
7FE03FFC00
7FE07FF800
7FE0FFF800
7FE3FFF000
7FEFFFE000
7FFFFF8000
7FFFFF0000
7FFFFE0000
7FFFFC0000
7FFFF80000
7FFFFC0000
7FEFFE0000
7FE7FE0000
7FE3FF0000
7FE3FF8000
7FE1FFC000
7FE0FFC000
7FE07FE000
7FE07FF000
7FE03FF800
7FE01FF800
7FE00FFC00
7FE00FFE00
7FE007FF00
7FC003FF00
7FC003FF80
7FC001FFC0
7FC000FFC0
7FC0007F00
FFC0007E00
00C0003C00
0000001000
ENDCHAR
STARTCHAR rcaron
ENCODING 345
SWIDTH 301 0
DWIDTH 22 0
BBX 21 52 2 -2
BITMAP
000080
1801E0
3C03F0
FE07F8
FF1FF0
7FBFE0
3FFFC0
3FFF80
1FFF00
0FFE00
07FC00
03F800
003000
000000
000000
000000
000FC0
001FE0
003FF0
7E3FF0
7E7FE0
7EFFE0
3EFFE0
3FFFC0
3FFC40
3FF800
3FF000
3FF000
3FE000
3FE000
3FE000
3FE000
3FE000
3FE000
3FE000
3FE000
3FE000
3FE000
3FE000
3FE000
3FE000
3FE000
3FE000
3FE000
3FE000
3FE000
3FE000
3FE000
3FE000
3FE000
3FE000
006000
ENDCHAR
STARTCHAR Scedilla
ENCODING 350
SWIDTH 444 0
DWIDTH 32 0
BBX 32 68 1 -17
BITMAP
000FFC00
003FFF00
007FFF80
01FFFFE0
03FFFFE0
07FFFFF0
07FFFFF8
0FFFFFFC
0FFF1FFC
1FFC0FFE
1FF807FE
1FF807FE
3FF803FE
3FF003FF
3FF003FF
3FF003FE
3FF007FE
1FF807FE
1FF807FE
1FFC07FE
1FFC00FE
0FFE001C
0FFF8000
07FFC000
03FFF000
01FFF800
00FFFE00
007FFF00
003FFF80
001FFFE0
0007FFF0
0003FFF8
0000FFF8
00007FFC
00003FFC
06001FFC
1F000FFE
7F000FFE
FF8007FE
7F8007FE
7FC007FE
3FE007FE
3FF007FE
1FF80FFC
1FFE3FFC
0FFFFFFC
07FFFFF8
03FFFFF0
01FFFFF0
00FFFFE0
007FFF80
003FFF00
000FF800
0003C000
0003C000
0003D000
0007FE00
0007FF80
0007FF80
0007FFC0
00011FC0
00800FC0
00E00FC0
00F81FC0
01FFFF80
00FFFF00
003FFE00
0003C000
ENDCHAR
STARTCHAR scedilla
ENCODING 351
SWIDTH 347 0
DWIDTH 25 0
BBX 22 51 2 -17
BITMAP
003F00
00FFC0
03FFE0
07FFF0
0FFFF8
1FFFF8
1FFFF8
3FF3FC
3FE1FC
3FC1FC
3FC1FC
3FC1FC
3FC1FC
3FE1FC
3FE008
3FF000
1FFC00
1FFF00
0FFF80
07FFC0
03FFE0
00FFF0
007FF8
001FF8
100FF8
380FFC
780FFC
7C0FF8
FF1FF8
7FFFF8
7FFFF8
3FFFF0
1FFFE0
07FFC0
01FF00
007000
00F000
00F000
00F400
00FFC0
00FFE0
01FFE0
01FFF0
0047F0
2003F0
3803F0
3F07F0
7FFFE0
1FFFC0
0FFF80
00F000
ENDCHAR
STARTCHAR Scaron
ENCODING 352
SWIDTH 475 0
DWIDTH 34 0
BBX 32 70 1 -2
BITMAP
00000080
001001E0
007C03F0
01FE07F8
00FF1FF0
007FBFE0
003FFFC0
003FFF80
001FFF00
000FFE00
0007FC00
0003F800
00003000
00000000
00000000
00000000
00000000
000FFC00
003FFF00
007FFF80
01FFFFE0
03FFFFE0
07FFFFF0
07FFFFF8
0FFFFFFC
0FFF1FFC
1FFC0FFE
1FF807FE
1FF807FE
3FF803FE
3FF003FF
3FF003FF
3FF003FE
3FF007FE
1FF807FE
1FF807FE
1FFC07FE
1FFC00FE
0FFE001C
0FFF8000
07FFC000
03FFF000
01FFF800
00FFFE00
007FFF00
003FFF80
001FFFE0
0007FFF0
0003FFF8
0000FFF8
00007FFC
00003FFC
06001FFC
1F000FFE
7F000FFE
FF8007FE
7F8007FE
7FC007FE
3FE007FE
3FF007FE
1FF80FFC
0FFE3FFC
0FFFFFFC
07FFFFF8
03FFFFF0
03FFFFF0
01FFFFE0
007FFF80
003FFF00
000FF800
ENDCHAR
STARTCHAR scaron
ENCODING 353
SWIDTH 347 0
DWIDTH 25 0
BBX 24 52 2 -2
BITMAP
000010
020038
0F007E
1FC0FF
3FE3FE
0FF7FC
0FFFF8
07FFF0
03FFE0
01FFC0
00FF80
007F00
000600
000000
000000
000000
003F00
00FFC0
03FFE0
07FFF0
0FFFF8
1FFFF8
1FFFF8
3FF3FC
3FE1FC
3FC1FC
3FC1FC
3FC1FC
3FC1FC
3FE1FC
3FE008
3FF000
1FFC00
1FFF00
0FFF80
07FFC0
03FFE0
00FFF0
007FF8
001FF8
100FF8
380FFC
780FFC
7C0FF8
FF1FF8
7FFFF8
7FFFF8
3FFFF0
1FFFE0
07FFC0
01FF00
001000
ENDCHAR
STARTCHAR Ydieresis
ENCODING 376
SWIDTH 444 0
DWIDTH 32 0
BBX 33 68 1 -2
BITMAP
0000100000
007E0FC000
007F0FE000
007F0FE000
007F0FE000
007F0FE000
00FF0FE000
00FF1FE000
00FE1FE000
003E01C000
0000000000
0000000000
0000000000
0000000000
0000000000
0000007F80
000000FF80
000000FF80
FC0000FF00
FF8001FF00
7F8001FF00
7FC001FE00
7FC003FE00
7FC003FC00
3FE003FC00
3FE007FC00
3FE007F800
1FF00FF800
1FF00FF000
1FF00FF000
0FF81FF000
0FF81FE000
0FF83FE000
07FC3FC000
07FC7FC000
03FE7F8000
03FEFF8000
03FEFF8000
01FFFF0000
01FFFF0000
00FFFE0000
00FFFE0000
007FFC0000
007FFC0000
003FF80000
003FF80000
003FF80000
001FF80000
001FF80000
001FF80000
001FF80000
001FF00000
001FF00000
001FF00000
001FF00000
001FF00000
001FF00000
001FF00000
001FF00000
001FF00000
001FF00000
001FF00000
001FF80000
001FF80000
001FF80000
001FF80000
001FF80000
0000080000
ENDCHAR
STARTCHAR Zcaron
ENCODING 381
SWIDTH 458 0
DWIDTH 33 0
BBX 30 69 3 -1
BITMAP
00000200
00C00700
01E00FC0
07F83FE0
03FC7F80
03FEFF00
01FFFF00
00FFFE00
007FFC00
003FF800
001FF000
000FE000
00008000
00000000
00000000
00000000
00000000
00000000
00000000
003FFFF8
3FFFFFFC
7FFFFFFC
7FFFFFFC
7FFFFFFC
3FFFFFFC
3FFFFFFC
3FFFFFFC
3FFFFFF8
3F001FF8
00001FF0
00003FF0
00003FE0
00007FC0
0000FFC0
0000FF80
0001FF80
0001FF00
0003FF00
0003FE00
0007FE00
0007FC00
000FF800
001FF800
001FF000
003FF000
003FE000
007FE000
00FFC000
00FF8000
01FF8000
01FF0000
03FF0000
07FE0000
07FC0000
0FFC0000
0FF80000
1FF80000
3FF00000
3FE00000
7FFFFF80
FFFFFFF8
FFFFFFF0
FFFFFFF0
FFFFFFF0
FFFFFFF0
FFFFFFF0
7FFFFFF0
7FFFFFF0
78000010
ENDCHAR
STARTCHAR zcaron
ENCODING 382
SWIDTH 344 0
DWIDTH 25 0
BBX 22 50 3 0
BITMAP
000040
0800F0
3E01F8
7F03FC
7F8FF8
3FDFF0
1FFFE0
1FFFC0
0FFF80
07FF00
03FE00
01FC00
001800
000000
000000
000000
1FFFE0
7FFFF0
7FFFF0
7FFFF0
3FFFF0
3FFFF0
3FFFF0
300FF0
001FE0
003FC0
003FC0
007F80
00FF00
00FF00
01FE00
01FC00
03FC00
07F800
07F800
0FF000
0FE000
1FE000
1FC000
3FC000
7F8000
7F0000
FF0000
FFFFF8
FFFFF0
7FFFF0
7FFFF0
7FFFF0
7FFFF0
7E0070
ENDCHAR
STARTCHAR florin
ENCODING 402
SWIDTH 487 0
DWIDTH 35 0
BBX 37 66 -4 -18
BITMAP
0000000C00
000000FF80
000001FFC0
000003FFE0
000007FFE0
00000FFFF0
00001FFFF0
00003FFFF0
00003FFFF0
00007FFFF8
00007FCFF8
0000FF87F8
0000FF87F0
0000FF07F0
0001FF07F0
0001FF07F0
0001FE07F0
0001FE0FF0
0003FE0000
0003FE0000
0003FE0000
0003FE0000
0003FC0000
0003FC0000
0007FC0000
0007FC0000
0007FFFC00
001FFFFC00
01FFFFFC00
01FFFFFC00
01FFFFFC00
01FFFFF800
01FFFF8000
01FFF80000
018FF80000
000FF80000
000FF80000
000FF80000
000FF80000
000FF80000
000FF80000
000FF80000
000FF00000
000FF00000
001FF00000
001FF00000
001FF00000
001FF00000
001FF00000
001FF00000
001FF00000
001FE00000
003FE00000
003FE00000
003FE00000
007FC00000
107FC00000
3FFFC00000
7FFF800000
7FFF800000
FFFF000000
FFFE000000
7FFC000000
3FF8000000
1FF0000000
0380000000
ENDCHAR
STARTCHAR dotlessj
ENCODING 567
SWIDTH 252 0
DWIDTH 18 0
BBX 19 52 -4 -18
BITMAP
003000
003FC0
003FC0
003FC0
003FC0
003FC0
003FC0
003FC0
003FC0
003FC0
003FC0
003FC0
003FC0
003FC0
003FC0
003FC0
003FC0
003FC0
003FC0
003FE0
003FE0
003FE0
003FE0
001FE0
001FE0
001FE0
001FE0
001FE0
001FE0
001FE0
001FE0
001FE0
001FE0
001FE0
001FE0
001FE0
003FE0
003FC0
003FC0
003FC0
003FC0
107FC0
387FC0
3FFF80
7FFF80
7FFF80
FFFF00
7FFF00
3FFE00
1FFC00
07F800
00C000
ENDCHAR
STARTCHAR circumflex
ENCODING 710
SWIDTH 500 0
DWIDTH 36 0
BBX 21 12 7 36
BITMAP
00FC00
01FE00
03FF00
07FF80
0FFFC0
1FFFE0
3FFFF0
7FCFF8
FF03F8
7E01F0
3C00C0
180000
ENDCHAR
STARTCHAR caron
ENCODING 711
SWIDTH 500 0
DWIDTH 36 0
BBX 21 13 8 37
BITMAP
000080
1801E0
3C03F0
FE07F8
FF0FF0
7FBFE0
3FFFC0
1FFF80
1FFF00
0FFE00
07FC00
03F800
003000
ENDCHAR
STARTCHAR breve
ENCODING 728
SWIDTH 500 0
DWIDTH 36 0
BBX 18 10 9 38
BITMAP
000400
F807C0
F807C0
FC0FC0
FC1FC0
7FFF80
7FFF00
3FFE00
1FFC00
0FF800
ENDCHAR
STARTCHAR dotaccent
ENCODING 729
SWIDTH 500 0
DWIDTH 36 0
BBX 9 9 13 38
BITMAP
7F80
7F80
7F80
7F80
7F80
7F80
7F80
FF80
0F80
ENDCHAR
STARTCHAR ring
ENCODING 730
SWIDTH 500 0
DWIDTH 36 0
BBX 16 15 10 37
BITMAP
07F0
1FFC
3FFE
7FFF
7C1F
F81F
F81F
F81F
F81F
F83F
FC3E
FFFE
7FFC
3FF8
0FE0
ENDCHAR
STARTCHAR ogonek
ENCODING 731
SWIDTH 500 0
DWIDTH 36 0
BBX 15 17 12 -16
BITMAP
0080
03F8
07E0
0FC0
3F80
3F00
7E00
FE00
FE00
FC00
FC18
FE3E
FFFE
FFFC
7FF8
3FF0
1FC0
ENDCHAR
STARTCHAR tilde
ENCODING 732
SWIDTH 500 0
DWIDTH 36 0
BBX 21 9 8 38
BITMAP
060078
1FC0F8
3FFFF8
7FFFF0
7FFFF0
FFFFE0
FFFFC0
7C7F80
100000
ENDCHAR
STARTCHAR hungarumlaut
ENCODING 733
SWIDTH 500 0
DWIDTH 36 0
BBX 31 13 5 37
BITMAP
00200000
00700040
00F800E0
01FC03F0
03FF07F8
0FFE1FFC
1FF83FFE
3FF07FF8
7FC1FFC0
FF81FF00
3E00FC00
1C007000
08002000
ENDCHAR
STARTCHAR dotaccentcmb
ENCODING 775
SWIDTH 500 0
DWIDTH 36 0
BBX 9 9 13 38
BITMAP
7F80
7F80
7F80
7F80
7F80
7F80
7F80
FF80
0F80
ENDCHAR
STARTCHAR Omega
ENCODING 937
SWIDTH 558 0
DWIDTH 40 0
BBX 35 53 3 -2
BITMAP
0000F80000
000FFF0000
001FFFC000
007FFFE000
00FFFFF000
01FFFFF800
01FFFFFC00
03FFFFFE00
07FFFFFE00
07FF0FFF00
0FFE07FF00
0FFC03FF00
1FF801FF80
1FF801FF80
3FF000FF80
3FF000FFC0
3FF000FFC0
3FE000FFC0
7FE000FFC0
7FE000FFC0
7FE0007FC0
7FE0007FC0
7FC0007FC0
7FC0007FC0
7FC0007FC0
7FC0007FC0
7FC0007FC0
7FC0007FC0
7FC000FFC0
7FC000FFC0
7FC000FFC0
7FC000FF80
7FC000FF80
7FE000FF80
7FE000FF80
3FE001FF00
3FE001FF00
3FE001FF00
3FF001FE00
1FF003FE00
1FF003FC00
0FF803FC00
0FF807F800
07FC07F800
07FC0FF0C0
FFFE1FFFC0
FFFE1FFFC0
FFFE1FFFC0
FFFC1FFFE0
FFFC1FFFE0
7FFC1FFFE0
7FF01FFFE0
7C001FFE00
ENDCHAR
STARTCHAR mu.dup1
ENCODING 956
SWIDTH 420 0
DWIDTH 30 0
BBX 26 52 2 -18
BITMAP
00007F80
00007F80
3FE07F80
3FC07F80
3FC07F80
3FC07F80
3FC07F80
3FC07F80
3FC07F80
7FC07F80
7FC07F80
7FC07F80
7FC07F80
7FC07F80
7FC07F80
7FC07F80
7F807F80
7F80FF80
7F80FF80
7F80FF80
7F80FF80
7F81FF80
7F81FF80
7F83FF80
7F83FF80
7FC7FF80
7FFFFF80
7FFFFF80
3FFFFF80
3FFFBF80
3FFF3F80
7FFE3F80
7FFC3F80
7FF03FC0
7F001FC0
7F000000
7F000000
7F000000
7F000000
7F000000
7F000000
FF000000
FF000000
FF000000
FF000000
FF000000
FF000000
FF000000
FF000000
FF000000
FF000000
01000000
ENDCHAR
STARTCHAR pi
ENCODING 960
SWIDTH 563 0
DWIDTH 41 0
BBX 36 37 2 -2
BITMAP
0000003FE0
003FFFFFE0
7FFFFFFFE0
FFFFFFFFE0
FFFFFFFFE0
7FFFFFFFF0
7FFFFFFFF0
7FFFFFFE00
7FFE03FE00
7FFE03FE00
03FE03FE00
03FE03FE00
03FE03FE00
03FE03FE00
01FE03FE00
01FE03FE00
01FE03FE00
01FE03FE00
01FE03FE00
01FE03FE00
01FE03FE00
01FE03FE00
01FE03FE00
01FE03FE00
01FE03FE00
01FE03FE00
01FE03FE00
01FE03FE00
01FE03FE00
01FE03FE00
01FE03FE00
01FE03FE00
01FE03FC00
01FE03FC00
01FE03FC00
01FE007C00
001F000000
ENDCHAR
STARTCHAR endash
ENCODING 8211
SWIDTH 500 0
DWIDTH 36 0
BBX 36 7 0 13
BITMAP
01FFFFFF00
FFFFFFFFF0
FFFFFFFFF0
FFFFFFFFF0
FFFFFFFFE0
FFFFFFFFE0
0000000060
ENDCHAR
STARTCHAR emdash
ENCODING 8212
SWIDTH 1000 0
DWIDTH 72 0
BBX 72 7 0 13
BITMAP
0003FFFFFFFFFFFF00
FFFFFFFFFFFFFFFFFF
FFFFFFFFFFFFFFFFFF
FFFFFFFFFFFFFFFFFF
FFFFFFFFFFFFFFFFFE
FFFFFFFFFFFFFFFFFE
00000000000000001E
ENDCHAR
STARTCHAR quoteleft
ENCODING 8216
SWIDTH 208 0
DWIDTH 15 0
BBX 11 22 2 30
BITMAP
0800
0FE0
0FE0
0FE0
0FE0
1FE0
1FE0
1FE0
1FE0
1FE0
1FE0
3FC0
3FC0
3FC0
3FC0
7FC0
7FC0
7F80
FF80
3F80
0780
0080
ENDCHAR
STARTCHAR quoteright
ENCODING 8217
SWIDTH 208 0
DWIDTH 15 0
BBX 11 21 3 31
BITMAP
3800
3F00
3FE0
3FE0
3FC0
3FC0
7FC0
7FC0
7F80
7F80
7F80
7F80
7F00
FF00
FF00
FF00
FF00
FF00
FE00
FE00
0E00
ENDCHAR
STARTCHAR quotesinglbase
ENCODING 8218
SWIDTH 208 0
DWIDTH 15 0
BBX 11 21 2 -8
BITMAP
3800
3F00
3FE0
3FC0
7FC0
7FC0
7F80
7F80
7F80
7F80
7F00
FF00
FF00
FF00
FF00
FF00
FE00
FE00
FE00
FE00
0E00
ENDCHAR
STARTCHAR quotedblleft
ENCODING 8220
SWIDTH 390 0
DWIDTH 28 0
BBX 25 22 2 30
BITMAP
08004000
0FE07F80
0FE07F00
0FE07F00
0FE07F00
1FE07F00
1FE0FF00
1FE0FF00
1FE0FF00
1FE0FF00
1FE0FF00
3FC1FF00
3FC1FE00
3FC1FE00
3FC1FE00
7FC3FE00
7FC3FE00
7F83FE00
FF87FC00
3F81FC00
07803C00
00800400
ENDCHAR
STARTCHAR quotedblright
ENCODING 8221
SWIDTH 390 0
DWIDTH 28 0
BBX 24 21 3 31
BITMAP
3801C0
3F01F8
3FE1FF
3FE1FF
3FC1FE
3FC1FE
7FC3FE
7FC3FE
7F83FC
7F83FC
7F83FC
7F83FC
7F03F8
FF07F8
FF07F8
FF07F8
FF07F8
FF07F8
FE07F8
FE07F0
0E0070
ENDCHAR
STARTCHAR quotedblbase
ENCODING 8222
SWIDTH 390 0
DWIDTH 28 0
BBX 24 21 2 -8
BITMAP
3801C0
3F01FC
3FE1FF
3FC1FE
7FC3FE
7FC3FE
7F83FE
7F83FC
7F83FC
7F83FC
7F03FC
FF07F8
FF07F8
FF07F8
FF07F8
FF07F8
FE07F8
FE07F0
FE07F0
FE07F0
0E0030
ENDCHAR
STARTCHAR dagger
ENCODING 8224
SWIDTH 520 0
DWIDTH 37 0
BBX 31 61 3 -10
BITMAP
003FC000
003FF800
003FF000
003FF000
003FF000
003FF000
003FF000
003FF000
003FF000
003FF000
003FF000
003FF000
003FF000
003FF000
003FF000
07FFFFE0
FFFFFFFE
FFFFFFFE
FFFFFFFE
FFFFFFFE
FFFFFFFE
FFFFFFFE
FFFFFFFE
603FF002
003FF000
003FF000
003FF000
003FF000
003FF000
003FF000
003FF000
003FF000
003FF000
003FF000
003FF000
003FF000
003FF000
003FF000
003FF000
003FF000
003FF000
003FF000
003FF000
003FF000
003FF000
003FF000
003FF000
003FF000
003FF000
003FF000
003FF000
003FF000
003FF000
003FF000
003FF000
003FF000
003FF000
003FF000
001FF000
001FF000
00000800
ENDCHAR
STARTCHAR daggerdbl
ENCODING 8225
SWIDTH 520 0
DWIDTH 37 0
BBX 31 61 3 -10
BITMAP
003FC000
003FF800
003FF000
003FF000
003FF000
003FF000
003FF000
003FF000
003FF000
003FF000
003FF000
003FF000
003FF000
003FF000
003FF000
07FFFFE0
FFFFFFFE
FFFFFFFE
FFFFFFFE
FFFFFFFE
FFFFFFFE
FFFFFFFE
FFFFFFFE
603FF002
003FF000
003FF000
003FF000
003FF000
003FF000
003FF000
003FF000
003FF000
003FF000
003FF000
003FF000
FFFFFFFE
FFFFFFFE
FFFFFFFE
FFFFFFFE
FFFFFFFE
FFFFFFFE
FFFFFFFE
7FFFF7FE
003FF000
003FF000
003FF000
003FF000
003FF000
003FF000
003FF000
003FF000
003FF000
003FF000
003FF000
003FF000
003FF000
003FF000
003FF000
001FF000
001FF000
00000800
ENDCHAR
STARTCHAR bullet
ENCODING 8226
SWIDTH 590 0
DWIDTH 42 0
BBX 18 19 12 17
BITMAP
7FC000
7FFF80
7FFF80
7FFFC0
7FFFC0
7FFFC0
7FFFC0
7FFFC0
7FFFC0
7FFFC0
7FFFC0
7FFFC0
7FFFC0
7FFFC0
7FFFC0
7FFF80
FFFF80
1FFF80
000380
ENDCHAR
STARTCHAR ellipsis
ENCODING 8230
SWIDTH 930 0
DWIDTH 67 0
BBX 55 14 6 -2
BITMAP
7FC001FF0007F8
7FC001FF0007FC
7FE001FF0007FC
7FE001FF8007FE
7FE001FF8007FE
7FE001FF8007FE
7FE001FF8007FE
7FE001FF800FFE
7FE003FF800FFE
7FE003FF800FFE
FFE003FF800FFC
FFE003FF000FFC
FFC003FF000FFC
00400001000004
ENDCHAR
STARTCHAR perthousand
ENCODING 8240
SWIDTH 1012 0
DWIDTH 73 0
BBX 70 50 2 -2
BITMAP
000000000200000000
000000000780000000
01FC00000FC0000000
07FE00001FE0000000
0FFF00003FC0000000
1FFF80003F80000000
1FFFC0007F00000000
3FFFC000FE00000000
3F9FC001FC00000000
7F0FE003F800000000
7F0FE003F800000000
7E0FE007F000000000
FE07E00FE000000000
FE07E01FC000000000
FE07E01F8000000000
FE07E03F8000000000
FE0FE07F0000000000
FE0FE0FE0000000000
FE0FE0FC0000000000
FE0FC1FC0000000000
FF1FC3F80000000000
7FFFC3F00000000000
7FFF87F00000000000
3FFF0FE00000000000
3FFF0FC07F80007F80
1FFE1FC0FFC000FFC0
0FFC3F81FFE001FFE0
01F03F03FFF003FFF0
00007F07FFF007FFF0
0000FE07FFF807FFF8
0000FE0FE3F80FF3F8
0001FC0FE3F80FE1F8
0001F80FC1F80FC1FC
0003F81FC1FC1FC1FC
0007F01FC1FC1FC1FC
0007E01FC1FC1FC1FC
000FE01F81FC1FC1FC
000FC01F81FC1F81FC
001FC01F81FC1F81FC
003F801F81FC1F81FC
003F001F81F81FC1F8
007F001FC3F81FC3F8
007E001FC3F81FE3F8
00FE001FFFF01FFFF0
01FC000FFFF00FFFF0
01FC000FFFE00FFFE0
03F80007FFC007FFC0
03F00003FF8003FF80
00F00001FF0001FF00
001000003C00003C00
ENDCHAR
STARTCHAR guilsinglleft
ENCODING 8249
SWIDTH 277 0
DWIDTH 20 0
BBX 16 31 2 0
BITMAP
0080
00F8
01FF
01FE
01FE
03FE
07FC
07FC
0FF8
0FF8
1FF0
3FE0
3FE0
7FC0
FFC0
FF80
7FC0
7FC0
3FE0
3FE0
1FF0
1FF0
0FF8
0FF8
07FC
03FE
03FE
01FF
00FE
00F0
0040
ENDCHAR
STARTCHAR guilsinglright
ENCODING 8250
SWIDTH 277 0
DWIDTH 20 0
BBX 17 31 1 0
BITMAP
010000
070000
3F8000
FFC000
7FC000
3FE000
3FF000
1FF000
0FF800
0FF800
07FC00
07FC00
03FE00
03FE00
01FF00
01FF00
01FF80
03FF00
03FE00
07FC00
07FC00
0FF800
0FF000
1FF000
1FE000
3FE000
3FC000
7FC000
7F8000
1F8000
010000
ENDCHAR
STARTCHAR fraction
ENCODING 8260
SWIDTH 546 0
DWIDTH 39 0
BBX 37 50 1 -2
BITMAP
0000000080
00000001E0
00000001F8
00000003F8
00000007F0
0000000FE0
0000001FC0
0000003F80
0000003F80
0000007F00
000000FE00
000001FC00
000001F800
000003F800
000007F000
00000FE000
00000FC000
00001FC000
00003F8000
00003F0000
00007F0000
0000FE0000
0001FC0000
0001F80000
0003F80000
0007F00000
0007E00000
000FE00000
000FC00000
001FC00000
003F800000
003F000000
007F000000
00FE000000
00FC000000
01FC000000
01F8000000
03F8000000
07F0000000
07E0000000
0FE0000000
0FC0000000
1FC0000000
3F80000000
3F00000000
7F00000000
7E00000000
FE00000000
3C00000000
0400000000
ENDCHAR
STARTCHAR franc
ENCODING 8355
SWIDTH 723 0
DWIDTH 52 0
BBX 47 52 5 -2
BITMAP
000003800000
00FFFF800000
7FFFFF800000
7FFFFF800000
7FFFFF800000
7FFFFF800000
7FFFFF800000
7FFFFF800000
7FFFFF800000
7FFF80000000
7FC000000000
7FC000000000
7FC000000000
7FC000000000
FFC000000000
FFC000000000
FFC0000000F8
FFC0000001FE
FFC0000803FE
FFC00007C7FE
FFC00007CFFE
FFC00007CFFC
FFC00007FFFC
FFCFFE07FFFC
FFFFFE07FF84
FFFFFE07FF00
FFFFFE07FF00
FFFFFF07FE00
FFFFFF07FE00
FFFFFF03FE00
FFFFFF03FC00
FFC00003FC00
FFC00003FC00
FFC00003FC00
FFC00003FC00
FFC00003FC00
FFC00003FC00
FFC00003FC00
FFC00003FC00
FFC00003FC00
FFC00003FC00
FFC00003FC00
FFC00003FC00
FFC00003FC00
FFC00003FC00
FFC00003FC00
FFC00003FC00
FFC00003FC00
FFC00003FC00
FFC00003FC00
3FC00003FC00
000000000C00
ENDCHAR
STARTCHAR Euro
ENCODING 8364
SWIDTH 484 0
DWIDTH 35 0
BBX 32 47 0 -1
BITMAP
0001FF00
0007FFC0
000FFFE0
001FFFF0
003FFFF8
003FFFFC
007FFFFC
00FFC3FE
00FF81FE
01FF01FE
01FF00FE
03FE00FF
03FE00FF
03FC001F
07FC0000
07FC0000
07FC7FF0
0FFFFFF0
FFFFFFF0
FFFFFFF0
7FFFFFF0
7FFFFF80
7FF00000
1FF00000
1FF00050
1FFFFFF0
FFFFFFF0
FFFFFFF0
7FFFFFF0
7FFFFFF0
7FF00000
1FF00000
1FF001F0
0FF001FE
0FF801FE
0FF803FE
0FF803FC
07FC03FC
07FC07F8
07FF0FF8
03FFFFF0
01FFFFF0
01FFFFE0
00FFFFC0
007FFF80
001FFF00
0007FC00
ENDCHAR
STARTCHAR trademark
ENCODING 8482
SWIDTH 718 0
DWIDTH 52 0
BBX 38 22 7 30
BITMAP
0008000000
FFF80007F0
FFF87FCFFC
FFF87FCFFC
FFF87FCFFC
FFC07FCFFC
0FC07FCFFC
0FC07FEF7C
0FC07FFF7C
0FC07FFF7C
0FC07FFF7C
0FC07DFFFC
0FC07DFEFC
0FC07DFEFC
0FC07DFEFC
0FC07DFEFC
0FC07DFEFC
0FC07CFCFC
0FC07CFCFC
0FC07C00FC
0FC07C00FC
000000001C
ENDCHAR
STARTCHAR Omega.dup2
ENCODING 8486
SWIDTH 558 0
DWIDTH 40 0
BBX 35 53 3 -2
BITMAP
0000F80000
000FFF0000
001FFFC000
007FFFE000
00FFFFF000
01FFFFF800
01FFFFFC00
03FFFFFE00
07FFFFFE00
07FF0FFF00
0FFE07FF00
0FFC03FF00
1FF801FF80
1FF801FF80
3FF000FF80
3FF000FFC0
3FF000FFC0
3FE000FFC0
7FE000FFC0
7FE000FFC0
7FE0007FC0
7FE0007FC0
7FC0007FC0
7FC0007FC0
7FC0007FC0
7FC0007FC0
7FC0007FC0
7FC0007FC0
7FC000FFC0
7FC000FFC0
7FC000FFC0
7FC000FF80
7FC000FF80
7FE000FF80
7FE000FF80
3FE001FF00
3FE001FF00
3FE001FF00
3FF001FE00
1FF003FE00
1FF003FC00
0FF803FC00
0FF807F800
07FC07F800
07FC0FF0C0
FFFE1FFFC0
FFFE1FFFC0
FFFE1FFFC0
FFFC1FFFE0
FFFC1FFFE0
7FFC1FFFE0
7FF01FFFE0
7C001FFE00
ENDCHAR
STARTCHAR partialdiff
ENCODING 8706
SWIDTH 429 0
DWIDTH 31 0
BBX 27 50 2 0
BITMAP
00FC0000
03FF0000
0FFFC000
3FFFE000
7FFFF000
7FFFF800
3FFFF800
1FFFFC00
0FFFFC00
0E0FFE00
0403FE00
0003FF00
0001FF00
0000FF80
0000FF80
001FFF80
00FFFF80
01FFFFC0
03FFFFC0
07FFFFC0
07FFFFC0
0FFFFFC0
1FFFFFC0
1FF0FFE0
3FE07FE0
3FE03FE0
3FC03FE0
7FC03FE0
7FC03FE0
7F803FE0
7F803FE0
FF803FC0
FF803FC0
FF803FC0
FF803FC0
FF807FC0
FF807FC0
FF807F80
FF80FF80
FF80FF80
7FC1FF00
7FE1FF00
7FFFFE00
7FFFFE00
3FFFFC00
3FFFF800
1FFFF000
0FFFE000
03FFC000
00FE0000
ENDCHAR
STARTCHAR increment
ENCODING 8710
SWIDTH 651 0
DWIDTH 47 0
BBX 41 53 3 -3
BITMAP
0001E0000000
0001FFF80000
0001FFF80000
0003FFF80000
0003FFF80000
0003FFFC0000
0007FFFC0000
0007FFFC0000
0007FFFC0000
000FFFFE0000
000FFFFE0000
000FFBFE0000
000FF3FE0000
001FF3FF0000
001FF3FF0000
001FF1FF0000
003FE1FF0000
003FE1FF8000
003FE1FF8000
007FE0FF8000
007FC0FF8000
007FC0FFC000
007FC0FFC000
00FF807FC000
00FF807FC000
00FF807FE000
01FF807FE000
01FF007FE000
01FF003FE000
03FF003FF000
03FF003FF000
03FE003FF000
03FE001FF000
07FE001FF800
07FC001FF800
07FC001FF800
0FFC000FFC00
0FFC000FFC00
0FF8000FFC00
1FF8000FFC00
1FF80007FE00
1FF80007FE00
3FF00007FE00
3FF00007FE00
3FF01FFFFF00
3FFFFFFFFF00
7FFFFFFFFF00
7FFFFFFFFF00
7FFFFFFFFF80
FFFFFFFFFF80
FFFFFFFFFF80
FFFFFFFFFF80
7FFFFF800000
ENDCHAR
STARTCHAR product
ENCODING 8719
SWIDTH 558 0
DWIDTH 40 0
BBX 34 52 3 -1
BITMAP
0007FFFF00
07FFFFFF80
3FFFFFFF80
3FFFFFFF80
3FFFFFFF80
7FFFFFFF80
7FFFFFFF80
7FFFFFFF80
7FFF00FFC0
7FC000FFC0
7FC000FFC0
7FC000FFC0
7FC000FFC0
7FC000FFC0
7FC000FFC0
7FC000FFC0
7FC000FFC0
7FC000FFC0
7FC000FFC0
FFC000FFC0
FFC000FFC0
FFC000FFC0
FFC000FFC0
FFC000FFC0
FFC000FFC0
FFC000FFC0
FFC000FFC0
FFC000FFC0
FFC000FFC0
FFC000FFC0
FFC000FFC0
7FC000FFC0
7FC000FFC0
7FC000FFC0
7FC000FFC0
7FC000FFC0
7FC000FFC0
7FC000FFC0
7FC000FFC0
7FC000FFC0
7FC000FFC0
7FC000FFC0
7FC000FFC0
7FC000FFC0
7FC000FFC0
7FC000FFC0
7FC000FFC0
7FC000FFC0
7FC000FFC0
7FC001FF80
7FC001FF80
3FC0000F80
ENDCHAR
STARTCHAR summation
ENCODING 8721
SWIDTH 447 0
DWIDTH 32 0
BBX 26 51 5 -1
BITMAP
00000380
00FFFF80
7FFFFF80
7FFFFF80
7FFFFF80
7FFFFF80
7FFFFF80
7FFFFF80
7FFFFF80
7FFFC000
7FF80000
3FFC0000
1FFE0000
0FFF0000
03FF8000
01FFC000
00FFE000
007FF000
003FF800
001FFC00
000FFE00
0007FF00
0003FF00
0003FF00
0001FF00
0000FF00
0001FF00
0003FF00
0007FF00
000FFE00
001FFC00
003FFC00
007FF800
00FFF000
01FFE000
03FFC000
07FF8000
0FFF0000
1FFE0000
3FFC0000
7FF80000
FFF00F80
FFE7FF80
FFFFFF80
FFFFFF80
FFFFFF80
FFFFFFC0
FFFFFFC0
FFFFFFC0
FFFFFE00
1FFFF000
ENDCHAR
STARTCHAR minus
ENCODING 8722
SWIDTH 833 0
DWIDTH 60 0
BBX 43 9 9 17
BITMAP
FFFFFFFFFF80
FFFFFFFFFFE0
FFFFFFFFFFE0
FFFFFFFFFFC0
FFFFFFFFFFC0
FFFFFFFFFFC0
FFFFFFFFFFC0
FFFFFFFFFFC0
FFFFFFFFFFC0
ENDCHAR
STARTCHAR radical
ENCODING 8730
SWIDTH 584 0
DWIDTH 42 0
BBX 36 54 3 -1
BITMAP
0000007FC0
000007FFE0
000007FFE0
00000FFFE0
00000FFFE0
00000FFFE0
00000FFFF0
00000FE000
00001FE000
00001FE000
00001FE000
00001FE000
00001FC000
00003FC000
00003FC000
00003FC000
00003F8000
00003F8000
00007F8000
00007F8000
FF007F8000
FF007F0000
FF00FF0000
FF00FF0000
FF00FF0000
FF00FE0000
7F00FE0000
7F81FE0000
7F81FE0000
7F81FC0000
7F81FC0000
7F83FC0000
3F83FC0000
3F83F80000
3FC3F80000
3FC7F80000
3FC7F00000
3FC7F00000
1FC7F00000
1FCFF00000
1FEFE00000
1FEFE00000
0FEFE00000
0FFFE00000
0FFFC00000
0FFFC00000
0FFFC00000
07FF800000
07FF800000
07FF800000
07FF000000
03FF000000
03FF000000
00FF000000
ENDCHAR
STARTCHAR infinity
ENCODING 8734
SWIDTH 833 0
DWIDTH 60 0
BBX 49 29 5 7
BITMAP
00000000FF0000
001FE007FFC000
00FFF80FFFF000
01FFFC1FFFF800
03FFFF3FFFFC00
07FFFF7FFFFC00
0FFFFFFFFFFE00
1FFFFFFFFFFE00
3FFFFFFFFFFF00
3FFFFFFF81FF00
7FE07FFF00FF00
7FC03FFE00FF80
7F801FFE007F80
FF800FFC007F80
FF000FFC007F80
FF001FFC007F80
FF003FFE007F80
7F807FFE00FF80
7FC0FFFF01FF00
7FE1FFFFC3FF00
7FFFFFFFFFFE00
3FFFFFFFFFFE00
3FFFFF7FFFFC00
1FFFFF3FFFF800
0FFFFE3FFFF000
07FFF81FFFE000
03FFF007FFC000
00FFC003FF0000
001C0000180000
ENDCHAR
STARTCHAR integral
ENCODING 8747
SWIDTH 496 0
DWIDTH 36 0
BBX 26 62 5 -9
BITMAP
0007F800
000FFE00
001FFF00
003FFF00
007FFF80
007FFF80
00FFFF80
00FF9F80
00FF1FC0
00FF0FC0
01FF03C0
01FF0000
01FF0000
01FF0000
01FF0000
01FF0000
01FF0000
01FF0000
01FF0000
00FF0000
00FF0000
00FF0000
00FF0000
00FF0000
00FF0000
00FF8000
00FF8000
00FF8000
00FF8000
007F8000
007F8000
007F8000
007F8000
007FC000
007FC000
007FC000
007FC000
003FC000
003FC000
003FC000
003FC000
003FC000
003FC000
003FC000
003FC000
003FC000
003FC000
003FC000
003FC000
003FC000
803FC000
FC3FC000
FC7FC000
FE7FC000
FFFF8000
7FFF8000
7FFF0000
7FFF0000
3FFE0000
1FFC0000
0FF80000
07E00000
ENDCHAR
STARTCHAR approxequal
ENCODING 8776
SWIDTH 833 0
DWIDTH 60 0
BBX 48 30 6 7
BITMAP
000000000078
001F800000FF
007FFC0001FE
01FFFFC007FE
03FFFFFFFFFE
07FFFFFFFFFC
0FFFFFFFFFFC
1FFFFFFFFFF8
3FFFFFFFFFF0
3FFFFFFFFFE0
7FF01FFFFFC0
7FC003FFFF80
FF80003FFE00
FF8000000000
0F0000000000
000000000040
0000000000FF
007FF80001FF
01FFFF8007FE
03FFFFFEFFFE
07FFFFFFFFFC
0FFFFFFFFFFC
1FFFFFFFFFF8
1FFFFFFFFFF8
3FFFFFFFFFF0
7FF07FFFFFE0
7FE007FFFF80
7FC0007FFE00
FF800001E000
7F0000000000
ENDCHAR
STARTCHAR notequal
ENCODING 8800
SWIDTH 833 0
DWIDTH 60 0
BBX 43 48 9 -2
BITMAP
000000010000
000000018000
00000003E000
00000007F000
00000007F800
0000000FFC00
0000001FF800
0000001FF800
0000003FF000
0000007FE000
0000007FC000
000000FFC000
0FFFFFFFFE00
FFFFFFFFFFE0
FFFFFFFFFFE0
FFFFFFFFFFC0
FFFFFFFFFFC0
FFFFFFFFFFC0
FFFFFFFFFFC0
FFFFFFFFFFC0
FFFFFFFFFFC0
00003FF00000
00007FE00000
00007FC00000
0000FFC00000
0000FF800000
0001FF800000
0001FF000000
FFFFFFFFFFC0
FFFFFFFFFFE0
FFFFFFFFFFE0
FFFFFFFFFFC0
FFFFFFFFFFC0
FFFFFFFFFFC0
FFFFFFFFFFC0
FFFFFFFFFFC0
FFFFF001FFC0
007FE0000000
007FC0000000
00FF80000000
00FF80000000
01FF00000000
03FF00000000
03FE00000000
01FC00000000
00FC00000000
003800000000
000800000000
ENDCHAR
STARTCHAR lessequal
ENCODING 8804
SWIDTH 833 0
DWIDTH 60 0
BBX 43 46 9 -1
BITMAP
000000000300
000000000F00
000000003F00
00000001FF00
0000000FFF80
0000003FFF80
000001FFFF80
00000FFFFF80
00007FFFFF80
0003FFFFFF00
001FFFFFF800
01FFFFFFC000
0FFFFFFE0000
7FFFFFE00000
7FFFFF000000
7FFFF0000000
7FFF80000000
7FF800000000
FFFC00000000
FFFF80000000
FFFFF0000000
7FFFFF000000
1FFFFFE00000
03FFFFFE0000
00FFFFFFE000
001FFFFFFF00
0007FFFFFFC0
0000FFFFFF80
00001FFFFF80
000001FFFF80
0000003FFF80
00000003FF00
000000007F00
000000000300
000000000000
000000000000
000000000000
FFFFFFFFFF80
FFFFFFFFFFE0
FFFFFFFFFFE0
FFFFFFFFFFC0
FFFFFFFFFFC0
FFFFFFFFFFC0
FFFFFFFFFFC0
FFFFFFFFFFC0
0000000000C0
ENDCHAR
STARTCHAR greaterequal
ENCODING 8805
SWIDTH 833 0
DWIDTH 60 0
BBX 43 45 9 -1
BITMAP
300000000000
3F0000000000
3FF000000000
7FFF00000000
7FFFE0000000
7FFFFE000000
7FFFFFC00000
FFFFFFF00000
3FFFFFFE0000
01FFFFFFC000
001FFFFFF000
0001FFFFFE00
00003FFFFF80
000003FFFFC0
0000007FFFC0
0000000FFF80
00000007FF80
0000007FFF80
000003FFFF80
00003FFFFF80
0001FFFFFF80
001FFFFFFC00
00FFFFFFC000
07FFFFFE0000
3FFFFFF00000
7FFFFF800000
7FFFFC000000
7FFFE0000000
7FFF00000000
7FF800000000
3FE000000000
3F0000000000
3C0000000000
200000000000
000000000000
000000000000
FFFFFFFFFF80
FFFFFFFFFFE0
FFFFFFFFFFE0
FFFFFFFFFFC0
FFFFFFFFFFC0
FFFFFFFFFFC0
FFFFFFFFFFC0
FFFFFFFFFFC0
0000000000C0
ENDCHAR
STARTCHAR lozenge
ENCODING 9674
SWIDTH 521 0
DWIDTH 38 0
BBX 38 68 0 -13
BITMAP
0000C00000
0001FE0000
0001FF0000
0003FF0000
0003FF8000
0007FF8000
0007FFC000
000FFFC000
000FEFE000
001FCFE000
001FC7E000
001F87F000
003F87F000
003F83F800
007F03F800
007F01FC00
00FE01FC00
00FE00FE00
01FC00FE00
01FC00FE00
03F8007F00
03F8007F00
03F8003F80
07F0003F80
07F0001FC0
0FE0001FC0
0FE0000FC0
1FC0000FE0
1FC0000FE0
3FC00007F0
3F800007F0
7F800003F8
7F000003F8
7F000003FC
FE000003F8
FE000007F8
7F000007F0
7F00000FF0
3F80000FE0
3F80001FE0
1F80001FC0
1FC0001FC0
1FC0003F80
0FE0003F80
0FE0007F00
07F0007F00
07F000FF00
03F800FE00
03F800FE00
01F801FC00
01FC01FC00
01FC03F800
00FE03F800
00FE07F000
007F07F000
007F0FE000
003F0FE000
003F8FE000
001F9FC000
001FDFC000
001FFF8000
000FFF8000
000FFF0000
0007FF0000
0007FE0000
0003FE0000
0003FC0000
00001C0000
ENDCHAR
STARTCHAR dotaccentcmb.cap
ENCODING 57344
SWIDTH 234 0
DWIDTH 17 0
BBX 9 10 4 56
BITMAP
8000
7F00
7F80
7F80
7F80
FF80
FF80
FF80
FF00
0F00
ENDCHAR
STARTCHAR apple
ENCODING 61440
SWIDTH 790 0
DWIDTH 57 0
BBX 49 58 4 -1
BITMAP
00000000080000
00000000780000
00000001F80000
00000003F80000
00000007F80000
0000000FF80000
0000001FF00000
0000001FF00000
0000003FE00000
0000003FC00000
0000003FC00000
0000007F800000
0000007E000000
0000007C000000
001FF001FF8000
00FFFE0FFFE000
01FFFFFFFFF800
07FFFFFFFFFC00
0FFFFFFFFFFE00
0FFFFFFFFFFF00
1FFFFFFFFFFC00
3FFFFFFFFFF800
3FFFFFFFFFF000
7FFFFFFFFFE000
7FFFFFFFFFE000
7FFFFFFFFFC000
FFFFFFFFFFC000
FFFFFFFFFF8000
FFFFFFFFFF8000
FFFFFFFFFF8000
FFFFFFFFFF8000
FFFFFFFFFF8000
FFFFFFFFFF8000
FFFFFFFFFF8000
FFFFFFFFFF8000
FFFFFFFFFF8000
FFFFFFFFFFC000
7FFFFFFFFFC000
7FFFFFFFFFE000
7FFFFFFFFFF000
7FFFFFFFFFF800
3FFFFFFFFFFE00
3FFFFFFFFFFF00
3FFFFFFFFFFF80
1FFFFFFFFFFF00
1FFFFFFFFFFF00
0FFFFFFFFFFE00
0FFFFFFFFFFE00
07FFFFFFFFFC00
03FFFFFFFFFC00
03FFFFFFFFF800
01FFFFFFFFF000
00FFFFFFFFF000
007FFFFFFFE000
003FFFFFFFC000
001FFFFFFF8000
000FFE0FFF0000
0007F001FC0000
ENDCHAR
STARTCHAR fi
ENCODING 64257
SWIDTH 540 0
DWIDTH 39 0
BBX 32 54 1 -1
BITMAP
0001FC00
000FFF00
001FFFC0
003FFFE0
007FFFF0
00FFFFF0
01FFFFF8
01FFFFF8
03FFFFFC
03FF07FC
03FE03FC
07FC01FC
07FC01FE
07FC01FE
07F801FE
0FF8007E
0FF80000
0FF80000
0FF80000
0FF80000
0FF80000
0FF80000
0FF97FC0
0FFFFFFF
3FFFFFFF
FFFFFFFF
FFFFFFFF
7FFFFFFF
7FFFFFFF
7FFFF8FF
7FF800FF
0FF800FF
0FF800FF
0FF800FF
0FF800FF
0FF800FF
0FF800FF
0FF800FF
0FF800FF
0FF800FF
0FF800FF
0FF800FF
0FF800FF
07F800FF
07F800FF
07F800FF
07F800FF
07F800FF
07F800FF
07F800FF
07F800FF
07F800FF
07F800FF
03F8001F
ENDCHAR
STARTCHAR fl
ENCODING 64258
SWIDTH 516 0
DWIDTH 37 0
BBX 33 54 1 -1
BITMAP
0001F80000
000FFE3F80
001FFFBF80
003FFFFF80
007FFFFF80
00FFFFFF80
01FFFFFF80
01FFFFFF80
03FF07FF80
03FE03FF80
03FC01FF80
07FC01FF80
07FC01FF80
07F800FF80
07F800FF80
0FF800FF80
0FF800FF80
0FF800FF00
0FF800FF00
0FF800FF00
0FF800FF00
0FF800FF00
0FF800FF00
0FFFF0FF00
3FFFF0FF00
FFFFF0FF00
FFFFF0FF00
7FFFF0FF00
7FFFF0FF00
7FFFC0FF00
7FF800FF00
0FF800FF00
0FF800FF00
0FF800FF00
0FF800FF00
0FF800FF00
0FF800FF00
0FF800FF00
0FF800FF00
0FF800FF00
0FF800FF00
0FF800FF00
0FF800FF00
07F800FF00
07F800FF00
07F800FF00
07F800FF00
07F800FF00
07F800FF00
07F800FF00
07F800FF00
07F800FF00
07F800FF00
03F800FF00
ENDCHAR
STARTCHAR .notdef
ENCODING -1
SWIDTH 600 0
DWIDTH 43 0
BBX 1 1 0 0
BITMAP
00
ENDCHAR
STARTCHAR .null
ENCODING -1
SWIDTH 0 0
DWIDTH 0 0
BBX 1 1 0 0
BITMAP
00
ENDCHAR
STARTCHAR nonmarkingreturn
ENCODING -1
SWIDTH 333 0
DWIDTH 24 0
BBX 1 1 0 0
BITMAP
00
ENDCHAR
STARTCHAR NULL
ENCODING -1
SWIDTH 0 0
DWIDTH 0 0
BBX 1 1 0 0
BITMAP
00
ENDCHAR
STARTCHAR CR
ENCODING -1
SWIDTH 242 0
DWIDTH 17 0
BBX 1 1 0 0
BITMAP
00
ENDCHAR
STARTCHAR middot
ENCODING -1
SWIDTH 260 0
DWIDTH 19 0
BBX 12 15 3 15
BITMAP
7FC0
7FE0
7FE0
7FE0
7FF0
7FF0
7FF0
7FF0
7FF0
7FF0
7FF0
FFE0
FFE0
FFE0
0060
ENDCHAR
STARTCHAR overscore
ENCODING -1
SWIDTH 403 0
DWIDTH 29 0
BBX 23 7 3 39
BITMAP
FFFFFE
FFFFFE
7FFFFE
7FFFFE
7FFFFE
7FFFFE
7FFFFE
ENDCHAR
STARTCHAR commaaccent
ENCODING -1
SWIDTH 242 0
DWIDTH 17 0
BBX 10 14 3 -18
BITMAP
2000
3C00
3FC0
3FC0
7FC0
7F80
7F80
7F00
7F00
7E00
7C00
F800
F800
3000
ENDCHAR
STARTCHAR grave.cap
ENCODING -1
SWIDTH 348 0
DWIDTH 25 0
BBX 17 12 4 55
BITMAP
080000
1E0000
3F0000
3FC000
7FF000
7FFC00
FFFE00
1FFF80
03FF80
007F00
001E00
000400
ENDCHAR
STARTCHAR acute.cap
ENCODING -1
SWIDTH 348 0
DWIDTH 25 0
BBX 17 12 4 55
BITMAP
000800
003C00
007E00
01FE00
07FF00
1FFF00
3FFF80
FFFC00
7FE000
7F0000
3C0000
100000
ENDCHAR
STARTCHAR circumflex.cap
ENCODING -1
SWIDTH 407 0
DWIDTH 29 0
BBX 21 12 4 54
BITMAP
00FE00
01FF00
03FF80
07FF80
0FFFC0
1FFFE0
3FEFF0
7FC7F8
FF03F8
7E01F0
3C00C0
180000
ENDCHAR
STARTCHAR dieresis.cap
ENCODING -1
SWIDTH 374 0
DWIDTH 27 0
BBX 19 10 4 56
BITMAP
001000
7E0FC0
7F0FE0
7F0FE0
7F0FE0
FF0FE0
FF0FE0
FF1FE0
FE1FE0
3E01C0
ENDCHAR
STARTCHAR caron.cap
ENCODING -1
SWIDTH 407 0
DWIDTH 29 0
BBX 21 13 4 55
BITMAP
000040
1800E0
3C03F0
FE07F8
FF0FF0
7FFFE0
3FFFC0
1FFF80
0FFF00
07FE00
03FC00
01F800
001000
ENDCHAR
STARTCHAR ring.cap
ENCODING -1
SWIDTH 343 0
DWIDTH 25 0
BBX 17 16 4 52
BITMAP
03F000
0FFC00
1FFE00
3FFF00
7E3F00
7C1F00
F81F80
F80F80
F81F00
F81F00
F83F00
FEFE00
7FFC00
3FF800
1FF000
018000
ENDCHAR
STARTCHAR tilde.cap
ENCODING -1
SWIDTH 410 0
DWIDTH 30 0
BBX 22 9 4 56
BITMAP
03007C
0FE0F8
3FFFF8
3FFFF8
7FFFF0
FFFFF0
FFFFE0
3C3FC0
080000
ENDCHAR
ENDFONT
